<svg version="1.1" xmlns="http://www.w3.org/2000/svg" xmlns:xlink="http://www.w3.org/1999/xlink" width="1035" height="1345"><defs/><g><g/><g/><g/><g/><g/><g/><g/><g/><g/><g/><g/><g/><g/><g/><g/><g/><g/><g/><g><rect fill="white" stroke="none" x="0" y="0" width="1035" height="1345"/></g><g><text fill="black" stroke="none" font-family="sans-serif" font-size="16.5pt" font-style="normal" font-weight="normal" text-decoration="normal" x="396.605988685513" y="24.50280495" text-anchor="start" dominant-baseline="alphabetic">general network diagram</text></g><g/><g><path fill="none" stroke="black" paint-order="fill stroke markers" d=" M 73.50841485 128.884754037 L 73.50841485 1345.8573998869997" stroke-miterlimit="10" stroke-width="1.3612669416666667" stroke-dasharray="12.565541,5.445067766666667"/><path fill="none" stroke="black" paint-order="fill stroke markers" d=" M 388.04246683645835 128.884754037 L 388.04246683645835 1345.8573998869997" stroke-miterlimit="10" stroke-width="1.3612669416666667" stroke-dasharray="12.565541,5.445067766666667"/><path fill="none" stroke="black" paint-order="fill stroke markers" d=" M 657.3869579973307 128.884754037 L 657.3869579973307 1345.8573998869997" stroke-miterlimit="10" stroke-width="1.3612669416666667" stroke-dasharray="12.565541,5.445067766666667"/><path fill="none" stroke="black" paint-order="fill stroke markers" d=" M 820.2110012259752 128.884754037 L 820.2110012259752 1345.8573998869997" stroke-miterlimit="10" stroke-width="1.3612669416666667" stroke-dasharray="12.565541,5.445067766666667"/><path fill="none" stroke="black" paint-order="fill stroke markers" d=" M 961.832468771026 128.884754037 L 961.832468771026 1345.8573998869997" stroke-miterlimit="10" stroke-width="1.3612669416666667" stroke-dasharray="12.565541,5.445067766666667"/></g><g><g><path fill="white" stroke="black" paint-order="fill stroke markers" d=" M 82.819480731 59.786844078 A 9.311065881 9.311065881 0 1 1 82.81947607546743 59.77753301367084 M 73.50841485 69.097909959 L 73.50841485 89.026857985 M 61.747068473999995 76.285399411 L 85.26976122599999 76.285399411 M 73.50841485 89.026857985 L 61.747068473999995 107.648989747 M 73.50841485 89.026857985 L 85.26976122599999 107.648989747" stroke-miterlimit="10" stroke-width="2.7769845610000004" stroke-dasharray=""/></g><g><g/><text fill="black" stroke="none" font-family="sans-serif" font-size="11pt" font-style="normal" font-weight="normal" text-decoration="normal" x="56.39675866103515" y="123.98419304699999" text-anchor="start" dominant-baseline="alphabetic">client</text></g><path fill="none" stroke="none"/><g><path fill="white" stroke="black" paint-order="fill stroke markers" d=" M 300.23291004990364 84.779705127 L 475.852023623013 84.779705127 L 475.852023623013 128.884754037 L 300.23291004990364 128.884754037 L 300.23291004990364 84.779705127 Z" stroke-miterlimit="10" stroke-width="2.613632528" stroke-dasharray=""/></g><g><g/><text fill="black" stroke="none" font-family="sans-serif" font-size="11pt" font-style="normal" font-weight="normal" text-decoration="normal" x="317.95660563040366" y="112.549550737" text-anchor="start" dominant-baseline="alphabetic">authentication_server</text></g><g><path fill="white" stroke="black" paint-order="fill stroke markers" d=" M 633.5375611793307 96.867755569 L 633.5375611793307 62.563828639 L 681.2363548153306 62.563828639 L 681.2363548153306 96.867755569" stroke-miterlimit="10" stroke-width="2.7769845610000004" stroke-dasharray=""/><path fill="white" stroke="black" paint-order="fill stroke markers" d=" M 681.2363548153306 61.3713587981 L 681.235162355427 61.47916934301662 L 681.2315850949609 61.58696910696859 L 681.2256233916556 61.69474731006935 L 681.2172778416763 61.8024931745884 L 681.206549279571 61.91019592602908 L 681.1934387781872 62.017844794206 L 681.177947648564 62.125429014322044 L 681.1600774398014 62.232937828044854 L 681.1398299389053 62.34036048458265 L 681.1172071706092 62.44768624175929 L 681.0922113971708 62.55490436708851 L 681.0648451181468 62.66200413884712 L 681.0351110701422 62.76897484714718 L 681.0030122265371 62.87580579500701 L 680.968551797189 62.982486299420856 L 680.9317332281122 63.08900569242717 L 680.8925602011328 63.19535332217542 L 680.8510366335211 63.30151855399125 L 680.8071666775991 63.40749077143996 L 680.7609547203257 63.5132593773881 L 680.7124053828584 63.618813795063225 L 680.6615235200903 63.724143469111524 L 680.6083142201654 63.82923786665337 L 680.5527828039692 63.93408647833659 L 680.4949348245972 64.03867881938739 L 680.434776066799 64.1430044306588 L 680.3723125464004 64.24705287967667 L 680.3075505097012 64.35081376168277 L 680.2404964328512 64.45427670067541 L 680.1711570212022 64.55743135044686 L 680.0995392086376 64.66026739561813 L 680.0256501568789 64.7627745526704 L 679.9494972547699 64.86494257097338 L 679.871088117537 64.96676123381039 L 679.790430586029 65.06822035939997 L 679.7075327259315 65.16930980191414 L 679.6224028269617 65.27001945249287 L 679.5350494020382 65.37033924025505 L 679.445481186431 65.47025913330548 L 679.353707136887 65.56976913973813 L 679.2597364307346 65.66885930863528 L 679.163578464966 65.7675197310626 L 679.0652428552979 65.86574054106009 L 678.9647394352091 65.96351191662859 L 678.862078254958 66.06082408071202 L 678.7572695805769 66.15766730217506 L 678.650323892846 66.25403189677627 L 678.541251886245 66.3499082281365 L 678.4300644678838 66.4452867087025 L 678.3167727564112 66.54015780070569 L 678.2013880809043 66.63451201711595 L 678.0839219797342 66.72833992259025 L 677.9643861994133 66.82163213441623 L 677.84279269342 66.91437932345046 L 677.7191536210037 67.00657221505134 L 677.5934813459683 67.0982015900065 L 677.4657884354368 67.18925828545483 L 677.3360876585938 67.27973319580266 L 677.2043919854088 67.36961727363435 L 677.0707145853396 67.45890153061701 L 676.9350688260147 67.54757703839935 L 676.7974682718968 67.6356349295045 L 676.6579266829269 67.72306639821673 L 676.5164580131476 67.80986270146201 L 676.3730764093078 67.89601515968236 L 676.2277962094487 67.98151515770375 L 676.0806319414688 68.06635414559763 L 675.9315983216727 68.15052363953589 L 675.7807102532978 68.2340152226393 L 675.6279828250255 68.31682054581911 L 675.4734313094713 68.39893132861202 L 675.3170711616577 68.48033936000816 L 675.1589180174694 68.56103649927225 L 674.9989876920891 68.6410146767576 L 674.837296178416 68.72026589471311 L 674.6738596454667 68.79878222808303 L 674.5086944367581 68.87655582529945 L 674.3418170686738 68.95357890906746 L 674.1732442288113 69.02984377714286 L 674.0029927743142 69.10534280310242 L 673.831079730186 69.18006843710643 L 673.657522287588 69.25401320665378 L 673.4823378021197 69.32716971732913 L 673.3055437920837 69.39953065354239 L 673.1271579367336 69.47108877926021 L 672.9471980745063 69.54183693872967 L 672.7656822012383 69.61176805719379 L 672.5826284683653 69.68087514159897 L 672.3980551811084 69.74915128129439 L 672.2119807966421 69.81658964872294 L 672.0244239222502 69.88318350010411 L 671.8354033134635 69.94892617610824 L 671.6449378721857 70.01381110252252 L 671.4530466448018 70.07783179090838 L 671.259748820275 70.14098183925032 L 671.0650637282265 70.20325493259614 L 670.8690108370033 70.26464484368842 L 670.6716097517311 70.32514543358717 L 670.4728802123541 70.38475065228383 L 670.2728420916603 70.44345453930622 L 670.0715153932954 70.50125122431453 L 669.8689202497613 70.55813492768844 L 669.6650769204035 70.61409996110503 L 669.4600057893853 70.66914072810756 L 669.2537273636485 70.72325172466522 L 669.0462622708642 70.77642753972344 L 668.8376312573685 70.82866285574504 L 668.627855186089 70.87995244924193 L 668.416955034458 70.9302911912975 L 668.204951892315 70.9796740480795 L 667.9918669597973 71.0280960813434 L 667.777721545221 71.07555244892625 L 667.5625370629486 71.12203840523081 L 667.3463350312494 71.16754930170019 L 667.1291370701463 71.21208058728268 L 666.9109648992543 71.25562780888683 L 666.6918403356087 71.29818661182675 L 666.4717852914833 71.33975274025764 L 666.2508217721993 71.38032203760127 L 666.0289718739243 71.41989044696174 L 665.8062577814633 71.45845401153106 L 665.5827017660398 71.49600887498494 L 665.3583261830694 71.5325512818683 L 665.1331534699231 71.56807757797091 L 664.9072061436847 71.60258421069277 L 664.6805067988985 71.63606772939937 L 664.45307810531 71.66852478576672 L 664.2249428055992 71.69995213411627 L 663.9961237131059 71.73034663173934 L 663.7666437095486 71.7597052392115 L 663.5365257427366 71.78802502069648 L 663.3057928242745 71.81530314423973 L 663.0744680272621 71.84153688205163 L 662.8425744839863 71.86672361078024 L 662.6101353836082 71.8908608117737 L 662.3771739698441 71.913946071332 L 662.1437135386411 71.93597708094846 L 661.9097774358481 71.95695163754044 L 661.6753890548802 71.97686764366978 L 661.4405718343802 71.99572310775245 L 661.2053492558746 72.01351614425778 L 660.9697448414249 72.03024497389691 L 660.7337821512766 72.04590792380084 L 660.497484781502 72.06050342768764 L 660.260876361641 72.07403002601906 L 660.0239805523383 72.08648636614654 L 659.7868210429779 72.09787120244648 L 659.5494215493127 72.1081833964447 L 659.3118058110942 72.11742191693043 L 659.0739975896986 72.12558584005929 L 658.8360206657495 72.13267434944576 L 658.5978988367411 72.13868673624485 L 658.359655914658 72.14362239922286 L 658.1213157235936 72.14748084481762 L 657.8829020973686 72.1502616871878 L 657.6444388771469 72.15196464825142 L 657.4059499090517 72.15258955771385 L 657.1674590417812 72.15213635308466 L 656.9289901242233 72.15060507968391 L 656.6905670030711 72.14799589063767 L 656.4522135204381 72.1443090468627 L 656.2139535114737 72.13954491704027 L 655.9758108019805 72.1337039775794 L 655.7378092060309 72.12678681256918 L 655.499972523586 72.11879411372033 L 655.2623245381161 72.10972668029609 L 655.0248890142216 72.09958541903224 L 654.7876896952569 72.08837134404646 L 654.5507503009565 72.07608557673689 L 654.3140945250622 72.06272934567005 L 654.0777460329543 72.04830398645788 L 653.8417284592853 72.0328109416243 L 653.6060654056157 72.01625176046089 L 653.3707804380546 71.99862809887196 L 653.1358970849026 71.97994171920898 L 652.9014388342993 71.96019449009434 L 652.6674291318744 71.9393883862345 L 652.433891378403 71.91752548822251 L 652.2008489274662 71.89460798232996 L 651.9683250831145 71.87063816028832 L 651.7363430975386 71.84561841905983 L 651.504926168744 71.81955126059778 L 651.2740974382305 71.79243929159627 L 651.0438799886789 71.7642852232296 L 650.8142968416423 71.73509187088118 L 650.585370955244 71.7048621538619 L 650.357125221882 71.67359909511825 L 650.1295824659394 71.64130582093009 L 649.9027654415021 71.6079855605979 L 649.6766968300836 71.57364164611994 L 649.4513992383567 71.53827751185906 L 649.2268951958926 71.50189669419922 L 649.0032071529087 71.46450283119185 L 648.7803574780228 71.42609966219209 L 648.5583684560166 71.38669102748484 L 648.3372622856076 71.34628086790075 L 648.1170610772282 71.30487322442208 L 647.897786850816 71.26247223777868 L 647.6794615336108 71.21908214803388 L 647.4621069579624 71.17470729416048 L 647.2457448591474 71.12935211360693 L 647.0303968731951 71.08302114185344 L 646.8160845347248 71.0357190119586 L 646.6028292747917 70.987450454096 L 646.3906524187443 70.93822029508118 L 646.1795751840909 70.88803345788901 L 645.9696186783796 70.8368949611614 L 645.7608038970857 70.7848099187054 L 645.5531517215134 70.73178353898187 L 645.3466829167072 70.67782112458457 L 645.1414181293756 70.62292807170999 L 644.9373778858261 70.56710986961765 L 644.7345825899131 70.51037210008127 L 644.5330525209973 70.4527204368305 L 644.3328078319176 70.39416064498364 L 644.133868546976 70.33469858047107 L 643.9362545599353 70.27434018944969 L 643.7399856320294 70.2130915077083 L 643.5450813899876 70.15095866006402 L 643.3515613240717 70.08794785974987 L 643.1594447861269 70.02406540779336 L 642.9687509876471 69.95931769238642 L 642.7794989978531 69.89371118824668 L 642.5917077417862 69.82725245596986 L 642.4053959984155 69.7599481413738 L 642.2205823987601 69.69180497483389 L 642.0372854240261 69.62282977060998 L 641.8555234037578 69.55302942616503 L 641.6753145140063 69.4824109214753 L 641.4966767755101 69.41098131833243 L 641.3196280518941 69.3387477596372 L 641.1441860478833 69.26571746868528 L 640.9703683075319 69.19189774844492 L 640.798192212469 69.1172959808266 L 640.6276749801606 69.04191962594494 L 640.458833662188 68.96577622137262 L 640.2916851425421 68.88887338138663 L 640.1262461359357 68.81121879620689 L 639.9625331861315 68.73282023122718 L 639.8005626642882 68.6536855262387 L 639.640350767323 68.573822594646 L 639.4819135162918 68.49323942267567 L 639.325266754788 68.41194406857777 L 639.1704261473571 68.32994466181995 L 639.0174071779309 68.24724940227456 L 638.8662251482785 68.16386655939866 L 638.7168951764772 68.07980447140702 L 638.5694321953997 67.99507154443839 L 638.4238509512212 67.90967625171488 L 638.2801660019447 67.8236271326946 L 638.1383917159455 67.73693279221771 L 637.9985422705341 67.64960189964606 L 637.8606316505384 67.56164318799608 L 637.7246736469053 67.47306545306569 L 637.5906818553223 67.38387755255452 L 637.4586696748565 67.29408840517834 L 637.3286503066162 67.20370698977703 L 637.2006367524297 67.11274234441683 L 637.0746418135458 67.02120356548647 L 636.9506780893535 66.92909980678756 L 636.8287579761218 66.83644027861922 L 636.7088936657603 66.74323424685704 L 636.5910971446004 66.64949103202653 L 636.475380192196 66.55522000837107 L 636.3617543801457 66.46043060291444 L 636.2502310709364 66.3651322945182 L 636.1408214168057 66.2693346129338 L 636.033536358628 66.17304713784955 L 635.9283866248197 66.07627949793272 L 635.8253827302667 65.97904136986665 L 635.7245349752724 65.88134247738313 L 635.6258534445283 65.78319259028999 L 635.5293480061054 65.68460152349414 L 635.4350283104669 65.58557913602012 L 635.3429037895039 65.48613533002413 L 635.2529836555917 65.38628004980393 L 635.1652769006688 65.2860232808043 L 635.0797922953375 65.18537504861862 L 634.9965383879872 65.08434541798623 L 634.9155235039392 64.982944491786 L 634.8367557446144 64.88118241002603 L 634.7602429867231 64.77906934882972 L 634.6859928814773 64.67661551941809 L 634.6140128538258 64.5738311670887 L 634.5443101017111 64.47072657019112 L 634.4768915953506 64.36731203909913 L 634.4117640765386 64.26359791517966 L 634.3489340579727 64.15959456975868 L 634.2884078226025 64.05531240308405 L 634.230191423001 63.95076184328555 L 634.1742906807598 63.84595334533201 L 634.1207111859063 63.74089738998592 L 634.0694582963455 63.63560448275524 L 634.0205371373237 63.530085152842965 L 633.9739526009158 63.42434995209415 L 633.9297093455369 63.318409453940745 L 633.8878117954755 63.2122742523443 L 633.8482641404518 63.105954960736526 L 633.8110703351981 62.99946221095797 L 633.7762340990643 62.892806652194885 L 633.7437589156445 62.78599894991426 L 633.7136480324306 62.679049784797314 L 633.6859044604853 62.57196985167143 L 633.660530974143 62.464769858440704 L 633.637530110731 62.357460525015114 L 633.6169041703165 62.25005258223858 L 633.5986552154764 62.14255677081588 L 633.5827850710909 62.03498384023857 L 633.5692953241614 61.92734454771006 L 633.5581873236512 61.81964965706991 L 633.5494621803512 61.71190993771744 L 633.5431207667682 61.6041361635348 L 633.5391637170386 61.49633911180959 L 633.5375914268639 61.38852956215717 L 633.5384040534718 61.28071829544265 L 633.5416015156004 61.172916092702856 L 633.547183493506 61.06513373406823 L 633.5551494289957 60.957381997684834 L 633.5654985254824 60.84967165863649 L 633.5782297480653 60.74201348786736 L 633.5933418236324 60.6344182511048 L 633.610833240989 60.526896707782825 L 633.6307022510077 60.41945960996616 L 633.6529468668044 60.31211770127506 L 633.6775648639359 60.204881715810956 L 633.7045537806229 60.097762377083015 L 633.7339109179962 59.99077039693585 L 633.7656333403668 59.88391647447831 L 633.7997178755187 59.7772112950136 L 633.8361611150267 59.67066552897075 L 633.8749594145975 59.56428983083758 L 633.9161088944331 59.45809483809524 L 633.9596054396202 59.35209117015452 L 634.0054447005402 59.24628942729389 L 634.0536220933054 59.14070018959944 L 634.1041328002167 59.03533401590697 L 634.1569717702453 58.93020144274604 L 634.2121337195384 58.82531298328635 L 634.269613131947 58.72067912628645 L 634.3294042595778 58.61631033504484 L 634.3915011233677 58.51221704635366 L 634.4558975136822 58.40840966945505 L 634.522586990936 58.30489858500019 L 634.5915628862368 58.20169414401126 L 634.6628183020526 58.098806666846365 L 634.7363461129013 57.996246442167475 L 634.8121389660629 57.894023725911595 L 634.8901892823153 57.79214874026516 L 634.9704892566921 57.69063167264185 L 635.0530308592624 57.58948267466382 L 635.1378058359352 57.488711861146584 L 635.2248057092831 57.38832930908751 L 635.3140217793915 57.28834505665816 L 635.4054451247276 57.18876910220045 L 635.4990666030332 57.08961140322686 L 635.5948768522381 56.99088187542464 L 635.6928662913978 56.8925903916643 L 635.7930251216496 56.794746781012314 L 635.8953433271942 56.6973608277482 L 635.999810676296 56.60044227038614 L 636.1064167223075 56.5040008007011 L 636.2151508047127 56.40804606275968 L 636.326002050194 56.31258765195572 L 636.4389593737194 56.217635114050736 L 636.5540114796505 56.12319794421941 L 636.6711468628727 56.029285586100016 L 636.790353809945 55.93590743085011 L 636.9116204002725 55.8430728162074 L 637.0349345072968 55.75079102555599 L 637.1602837997103 55.65907128699804 L 637.287655742688 55.56792277243099 L 637.4170375991418 55.47735459663031 L 637.5484164309939 55.387375816338135 L 637.6817791004705 55.29799542935749 L 637.8171122714159 55.20922237365261 L 637.9544024106258 55.12106552645507 L 638.0936357892006 55.033533703376136 L 638.2347984839184 54.94663565752517 L 638.3778763786275 54.86038007863435 L 638.5228551656577 54.77477559218968 L 638.669720347251 54.689830758568455 L 638.8184572370117 54.60555407218327 L 638.9690509613746 54.52195396063252 L 639.121486461093 54.439038783857704 L 639.2757484927438 54.35681683330739 L 639.4318216302524 54.27529633110813 L 639.5896902664352 54.19448542924221 L 639.7493386145602 54.114392208732454 L 639.9107507099253 54.03502467883419 L 640.0739104114558 53.95639077623426 L 640.2388014033173 53.878498364257396 L 640.4054071965483 53.801355232079885 L 640.573711130708 53.72496909395066 L 640.7436963755433 53.649347588419886 L 640.9153459326716 53.57449827757509 L 641.08864263728 53.50042864628498 L 641.2635691598425 53.42714610145097 L 641.4401080078527 53.35465797126647 L 641.6182415275728 53.28297150448409 L 641.7979519057993 53.21209386969077 L 641.9792211716442 53.14203215459092 L 642.1620311983319 53.072793365297684 L 642.3463637050121 53.00438442563227 L 642.5322002585879 52.93681217643165 L 642.7195222755585 52.870083374864436 L 642.9083110238784 52.80420469375517 L 643.0985476248302 52.739182720917064 L 643.2902130549123 52.67502395849323 L 643.4832881477414 52.611734822306424 L 643.6777535959691 52.54932164121754 L 643.8735899532127 52.48779065649267 L 644.0707776359994 52.427148021179015 L 644.2692969257257 52.36739979948956 L 644.4691279706277 52.3085519661967 L 644.6702507877675 52.25061040603471 L 644.8726452650311 52.19358091311133 L 645.0762911631394 52.13746919032833 L 645.2811681176722 52.08228084881122 L 645.4872556411049 52.02802140734818 L 645.6945331248568 51.974696291838114 L 645.9029798413522 51.922310834748146 L 646.1125749460934 51.87087027458034 L 646.3232974797444 51.82037975534783 L 646.5351263702274 51.770844326060484 L 646.74804043483 51.72226894021993 L 646.9620183823232 51.674658455324284 L 647.1770388150904 51.62801763238236 L 647.3930802312676 51.58235113543759 L 647.6101210268931 51.5376635311016 L 647.8281394980685 51.49395928809759 L 648.047113843128 51.451242776813444 L 648.2670221648198 51.409518268864694 L 648.487842472495 51.368789936667355 L 648.7095526843067 51.32906185302072 L 648.9321306294186 51.29033799070003 L 649.1555540502216 51.252622222059266 L 649.3798006045597 51.21591831864385 L 649.6048478679646 51.18022995081354 L 649.8306733358974 51.14556068737539 L 650.0572544259994 51.11191399522683 L 650.2845684803506 51.079293239009054 L 650.5125927677346 51.047701680770494 L 650.7413044859131 51.01714247964064 L 650.9706807639047 50.98761869151416 L 651.2006986642729 50.95913326874524 L 651.431335185419 50.93168905985244 L 651.6625672638834 50.90528880923376 L 651.8943717766507 50.87993515689227 L 652.1267255434631 50.85563063817208 L 652.3596053291373 50.83237768350481 L 652.5929878458888 50.81017861816654 L 652.8268497556606 50.78903566204531 L 653.0611676724565 50.768950929419105 L 653.29591816468 50.749926428744466 L 653.5310777574775 50.7319640624556 L 653.7666229350859 50.71506562677416 L 654.0025301431835 50.69923281152964 L 654.2387757912463 50.684467199990365 L 654.4753362549061 50.6707702687052 L 654.7121878783139 50.658143387355835 L 654.9493069765045 50.64658781861989 L 655.186669837766 50.63610471804463 L 655.4242527260097 50.62669513393135 L 655.662031883145 50.61836000723063 L 655.8999835314544 50.61110017144819 L 656.1380838759711 50.604916352561574 L 656.3763091068593 50.5998091689475 L 656.6146354017943 50.595779131320086 L 656.8530389283453 50.592826642679725 L 657.0914958463582 50.59095199827282 L 657.32998231034 50.59015538556226 L 657.568474471843 50.59043688420866 L 657.8069484818499 50.59179646606236 L 658.0453804931583 50.594233995166334 L 658.2837466627658 50.59774922776969 L 658.522023154254 50.6023418123521 L 658.7601861401726 50.60801128965893 L 658.9982118044211 50.61475709274719 L 659.2360763446316 50.622578547042174 L 659.4737559745482 50.63147487040497 L 659.7112269264063 50.64144517321068 L 659.9484654533082 50.6524884584373 L 660.1854478315992 50.66460362176552 L 660.4221503632388 50.67778945168912 L 660.6585493781711 50.69204462963607 L 660.8946212366917 50.70736773010048 L 661.1303423318113 50.72375722078505 L 661.365689091617 50.74121146275439 L 661.6006379816289 50.759728710598836 L 661.8351655071536 50.77930711260903 L 662.0692482156344 50.79994471096109 L 662.3028626989951 50.821639441912396 L 662.5359855959822 50.844389136007905 L 662.7685935945003 50.86819151829718 L 663.0006634339434 50.893044208561825 L 663.2321719075209 50.91894472155353 L 663.4630958645783 50.94589046724256 L 663.6934122129126 50.973878751076825 L 663.9230979210805 51.00290677425126 L 664.1521300207029 51.03297163398772 L 664.3804856087605 51.064070323825305 L 664.608141849885 51.09619973392093 L 664.8350759786417 51.129356651360375 L 665.0612653018071 51.16353776047952 L 665.2866872006374 51.198739643195935 L 665.5113191331303 51.23495877935069 L 665.73513863628 51.27219154706035 L 665.9581233283226 51.31043422307917 L 666.1802509109746 51.349682983171405 L 666.4014991716631 51.38993390249377 L 666.6218459857462 51.43118295598788 L 666.8412693187261 51.47342601878273 L 667.0597472284525 51.51665886660727 L 667.2772578673164 51.56087717621274 L 667.4937794844352 51.60607652580503 L 667.7092904278276 51.65225239548683 L 667.9237691465788 51.69940016770967 L 668.1371941929958 51.74751512773561 L 668.3495442247518 51.79659246410874 L 668.5607980070205 51.84662726913632 L 668.7709344145997 51.89761453937955 L 668.9799324340237 51.949549176153894 L 669.1877711656649 52.00242598603895 L 669.3944298258232 52.0562396813978 L 669.5998877488049 52.11098488090573 L 669.8041243889888 52.16665611008844 L 670.0071193228812 52.22324780186939 L 670.2088522511577 52.28075429712656 L 670.4093030006939 52.339169845258354 L 670.6084515265815 52.398488604758626 L 670.8062779141341 52.458704643800864 L 671.0027623808777 52.51981194083135 L 671.1978852785295 52.581804385171296 L 671.3916270949622 52.64467577762793 L 671.5839684561556 52.708419831114405 L 671.7748901281341 52.77303017127848 L 671.9643730188892 52.83850033713999 L 672.1523981802901 52.90482378173691 L 672.3389468099772 52.97199387278003 L 672.5240002532429 53.040003893316246 L 672.7075400048972 53.108847042400164 L 672.8895477111179 53.17851643577425 L 673.070005171286 53.24900510655722 L 673.2488943398058 53.32030600594074 L 673.4261973279096 53.39241200389429 L 673.6018964054464 53.465315889878156 L 673.7759740026547 53.5390103735645 L 673.94841271192 53.61348808556637 L 674.119195289515 53.68874157817461 L 674.2883046573243 53.76476332610268 L 674.4557239045519 53.84154572723915 L 674.6214362894127 53.91908110340788 L 674.7854252408064 53.99736170113587 L 674.9476743599744 54.07637969242858 L 675.10816742214 54.156127175552726 L 675.2668883781308 54.236596175826456 L 675.4238213559834 54.3177786464168 L 675.5789506625307 54.39966646914434 L 675.7322607849716 54.48225145529506 L 675.8837363924213 54.56552534643915 L 676.0333623374454 54.6494798152569 L 676.1811236575742 54.73410646637139 L 676.3270055767987 54.81939683718802 L 676.4709935070485 54.9053423987408 L 676.6130730496508 54.99193455654518 L 676.7532299967695 55.079164651457546 L 676.8914503328267 55.16702396054111 L 677.0277202359041 55.25550369793815 L 677.1620260791249 55.344595015748695 L 677.2943544320167 55.43428900491518 L 677.4246920618543 55.52457669611344 L 677.5530259349837 55.615449060649595 L 677.6793432181244 55.706897011362926 L 677.803631279653 55.79891140353456 L 677.9258776908674 55.891483035801954 L 678.0460702272281 55.98460265107904 L 678.1641968695818 56.07826093748187 L 678.2802458053625 56.17244852925987 L 678.3942054297734 56.26715600773234 L 678.506064346947 56.36237390223035 L 678.6158113710849 56.45809269104382 L 678.723435527576 56.55430280237361 L 678.8289260540945 56.65099461528878 L 678.9322724016755 56.74815846068861 L 679.0334642357705 56.84578462226952 L 679.1324914372804 56.943863337496715 L 679.2293441035673 57.0423847985804 L 679.3240125494457 57.14133915345658 L 679.4164873081496 57.240716506772216 L 679.5067591322804 57.34050692087479 L 679.5948189947308 57.44070041680606 L 679.6806580895878 57.54128697529992 L 679.7642678330138 57.64225653778434 L 679.8456398641038 57.74359900738722 L 679.9247660457227 57.84530424994605 L 680.0016384653181 57.94736209502132 L 680.0762494357123 58.04976233691358 L 680.1485914958703 58.15249473568397 L 680.2186574116465 58.25554901817823 L 680.2864401765075 58.35891487905398 L 680.3519330122335 58.46258198181127 L 680.4151293695954 58.566539959826216 L 680.4760229290101 58.67077841738765 L 680.5346076011725 58.77528693073668 L 680.5908775276641 58.88005504910905 L 680.6448270815393 58.985072295780256 L 680.6964508678876 59.09032816911312 L 680.7457437243733 59.19581214360803 L 680.7927007217519 59.301513670955444 L 680.8373171643627 59.4074221810907 L 680.8795885905988 59.513527083251056 L 680.9195107733526 59.619817767034704 L 680.9570797204393 59.72628360346185 L 680.9922916749953 59.832913946037564 L 681.0251431158547 59.939698131816456 L 681.0556307579005 60.046625482468926 L 681.0837515523942 60.153685305349015 L 681.1095026872796 60.26086689456366 L 681.1328815874648 60.36815953204325 L 681.1538859150791 60.47555248861345 L 681.1725135697073 60.5830350250681 L 681.1887626885996 60.69059639324311 L 681.2026316468575 60.79822583709131 L 681.2141190575968 60.905912593758 L 681.2232237720859 61.01364589465726 L 681.2299448798611 61.12141496654876 L 681.2342817088171 61.22920903261514 L 681.2362338252747 61.337017313539604 M 681.2363548153306 95.6752857281 L 681.235162355427 95.78309627301661 L 681.2315850949609 95.89089603696858 L 681.2256233916556 95.99867424006935 L 681.2172778416763 96.1064201045884 L 681.206549279571 96.21412285602908 L 681.1934387781872 96.321771724206 L 681.177947648564 96.42935594432204 L 681.1600774398014 96.53686475804484 L 681.1398299389053 96.64428741458265 L 681.1172071706092 96.75161317175929 L 681.0922113971708 96.85883129708851 L 681.0648451181468 96.96593106884711 L 681.0351110701422 97.07290177714718 L 681.0030122265371 97.17973272500701 L 680.968551797189 97.28641322942086 L 680.9317332281122 97.39293262242717 L 680.8925602011328 97.49928025217542 L 680.8510366335211 97.60544548399125 L 680.8071666775991 97.71141770143996 L 680.7609547203257 97.8171863073881 L 680.7124053828584 97.92274072506322 L 680.6615235200903 98.02807039911151 L 680.6083142201654 98.13316479665336 L 680.5527828039692 98.23801340833658 L 680.4949348245972 98.34260574938737 L 680.434776066799 98.4469313606588 L 680.3723125464004 98.55097980967666 L 680.3075505097012 98.65474069168278 L 680.2404964328512 98.7582036306754 L 680.1711570212022 98.86135828044685 L 680.0995392086376 98.96419432561812 L 680.0256501568789 99.0667014826704 L 679.9494972547699 99.16886950097337 L 679.871088117537 99.27068816381038 L 679.790430586029 99.37214728939998 L 679.7075327259315 99.47323673191414 L 679.6224028269617 99.57394638249288 L 679.5350494020382 99.67426617025505 L 679.445481186431 99.77418606330548 L 679.353707136887 99.87369606973812 L 679.2597364307346 99.97278623863527 L 679.163578464966 100.0714466610626 L 679.0652428552979 100.1696674710601 L 678.9647394352091 100.2674388466286 L 678.862078254958 100.36475101071201 L 678.7572695805769 100.46159423217506 L 678.650323892846 100.55795882677627 L 678.541251886245 100.65383515813649 L 678.4300644678838 100.74921363870249 L 678.3167727564112 100.84408473070569 L 678.2013880809043 100.93843894711594 L 678.0839219797342 101.03226685259024 L 677.9643861994133 101.12555906441622 L 677.84279269342 101.21830625345046 L 677.7191536210037 101.31049914505132 L 677.5934813459683 101.4021285200065 L 677.4657884354368 101.49318521545483 L 677.3360876585938 101.58366012580265 L 677.2043919854088 101.67354420363434 L 677.0707145853396 101.762828460617 L 676.9350688260147 101.85150396839936 L 676.7974682718968 101.93956185950451 L 676.6579266829269 102.02699332821673 L 676.5164580131476 102.11378963146201 L 676.3730764093078 102.19994208968237 L 676.2277962094487 102.28544208770374 L 676.0806319414688 102.37028107559762 L 675.9315983216727 102.45445056953588 L 675.7807102532978 102.53794215263929 L 675.6279828250255 102.6207474758191 L 675.4734313094713 102.70285825861201 L 675.3170711616577 102.78426629000816 L 675.1589180174694 102.86496342927225 L 674.9989876920891 102.9449416067576 L 674.837296178416 103.02419282471311 L 674.6738596454667 103.10270915808303 L 674.5086944367581 103.18048275529944 L 674.3418170686738 103.25750583906745 L 674.1732442288113 103.33377070714286 L 674.0029927743142 103.4092697331024 L 673.831079730186 103.48399536710642 L 673.657522287588 103.55794013665377 L 673.4823378021197 103.63109664732913 L 673.3055437920837 103.70345758354237 L 673.1271579367336 103.7750157092602 L 672.9471980745063 103.84576386872968 L 672.7656822012383 103.91569498719377 L 672.5826284683653 103.98480207159896 L 672.3980551811084 104.05307821129438 L 672.2119807966421 104.12051657872294 L 672.0244239222502 104.1871104301041 L 671.8354033134635 104.25285310610823 L 671.6449378721857 104.31773803252251 L 671.4530466448018 104.38175872090837 L 671.259748820275 104.44490876925032 L 671.0650637282265 104.50718186259614 L 670.8690108370033 104.5685717736884 L 670.6716097517311 104.62907236358716 L 670.4728802123541 104.68867758228383 L 670.2728420916603 104.7473814693062 L 670.0715153932954 104.80517815431453 L 669.8689202497613 104.86206185768845 L 669.6650769204035 104.91802689110501 L 669.4600057893853 104.97306765810755 L 669.2537273636485 105.02717865466522 L 669.0462622708642 105.08035446972343 L 668.8376312573685 105.13258978574503 L 668.627855186089 105.18387937924192 L 668.416955034458 105.23421812129749 L 668.204951892315 105.28360097807949 L 667.9918669597973 105.33202301134341 L 667.777721545221 105.37947937892625 L 667.5625370629486 105.4259653352308 L 667.3463350312494 105.4714762317002 L 667.1291370701463 105.51600751728267 L 666.9109648992543 105.55955473888682 L 666.6918403356087 105.60211354182675 L 666.4717852914833 105.64367967025764 L 666.2508217721993 105.68424896760128 L 666.0289718739243 105.72381737696173 L 665.8062577814633 105.76238094153106 L 665.5827017660398 105.79993580498493 L 665.3583261830694 105.83647821186828 L 665.1331534699231 105.8720045079709 L 664.9072061436847 105.90651114069276 L 664.6805067988985 105.93999465939936 L 664.45307810531 105.97245171576672 L 664.2249428055992 106.00387906411626 L 663.9961237131059 106.03427356173933 L 663.7666437095486 106.0636321692115 L 663.5365257427366 106.09195195069648 L 663.3057928242745 106.11923007423972 L 663.0744680272621 106.14546381205162 L 662.8425744839863 106.17065054078024 L 662.6101353836082 106.1947877417737 L 662.3771739698441 106.21787300133201 L 662.1437135386411 106.23990401094846 L 661.9097774358481 106.26087856754044 L 661.6753890548802 106.28079457366978 L 661.4405718343802 106.29965003775246 L 661.2053492558746 106.31744307425777 L 660.9697448414249 106.3341719038969 L 660.7337821512766 106.34983485380084 L 660.497484781502 106.36443035768762 L 660.260876361641 106.37795695601905 L 660.0239805523383 106.39041329614655 L 659.7868210429779 106.40179813244647 L 659.5494215493127 106.4121103264447 L 659.3118058110942 106.42134884693041 L 659.0739975896986 106.42951277005928 L 658.8360206657495 106.43660127944577 L 658.5978988367411 106.44261366624485 L 658.359655914658 106.44754932922287 L 658.1213157235936 106.45140777481762 L 657.8829020973686 106.45418861718778 L 657.6444388771469 106.45589157825142 L 657.4059499090517 106.45651648771386 L 657.1674590417812 106.45606328308465 L 656.9289901242233 106.4545320096839 L 656.6905670030711 106.45192282063768 L 656.4522135204381 106.44823597686269 L 656.2139535114737 106.44347184704026 L 655.9758108019805 106.43763090757939 L 655.7378092060309 106.43071374256917 L 655.499972523586 106.42272104372033 L 655.2623245381161 106.41365361029608 L 655.0248890142216 106.40351234903224 L 654.7876896952569 106.39229827404645 L 654.5507503009565 106.38001250673689 L 654.3140945250622 106.36665627567004 L 654.0777460329543 106.35223091645787 L 653.8417284592853 106.33673787162431 L 653.6060654056157 106.32017869046089 L 653.3707804380546 106.30255502887195 L 653.1358970849026 106.28386864920897 L 652.9014388342993 106.26412142009434 L 652.6674291318744 106.2433153162345 L 652.433891378403 106.22145241822251 L 652.2008489274662 106.19853491232995 L 651.9683250831145 106.17456509028831 L 651.7363430975386 106.14954534905984 L 651.504926168744 106.12347819059778 L 651.2740974382305 106.09636622159626 L 651.0438799886789 106.06821215322961 L 650.8142968416423 106.03901880088118 L 650.585370955244 106.0087890838619 L 650.357125221882 105.97752602511825 L 650.1295824659394 105.94523275093007 L 649.9027654415021 105.91191249059789 L 649.6766968300836 105.87756857611994 L 649.4513992383567 105.84220444185907 L 649.2268951958926 105.8058236241992 L 649.0032071529087 105.76842976119184 L 648.7803574780228 105.73002659219209 L 648.5583684560166 105.69061795748485 L 648.3372622856076 105.65020779790075 L 648.1170610772282 105.60880015442207 L 647.897786850816 105.56639916777867 L 647.6794615336108 105.52300907803387 L 647.4621069579624 105.47863422416049 L 647.2457448591474 105.43327904360692 L 647.0303968731951 105.38694807185344 L 646.8160845347248 105.33964594195861 L 646.6028292747917 105.291377384096 L 646.3906524187443 105.24214722508117 L 646.1795751840909 105.19196038788901 L 645.9696186783796 105.1408218911614 L 645.7608038970857 105.08873684870541 L 645.5531517215134 105.03571046898188 L 645.3466829167072 104.98174805458457 L 645.1414181293756 104.92685500170998 L 644.9373778858261 104.87103679961766 L 644.7345825899131 104.81429903008126 L 644.5330525209973 104.7566473668305 L 644.3328078319176 104.69808757498365 L 644.133868546976 104.63862551047107 L 643.9362545599353 104.57826711944969 L 643.7399856320294 104.51701843770829 L 643.5450813899876 104.45488559006402 L 643.3515613240717 104.39187478974986 L 643.1594447861269 104.32799233779335 L 642.9687509876471 104.26324462238642 L 642.7794989978531 104.19763811824667 L 642.5917077417862 104.13117938596986 L 642.4053959984155 104.0638750713738 L 642.2205823987601 103.99573190483389 L 642.0372854240261 103.92675670060999 L 641.8555234037578 103.85695635616503 L 641.6753145140063 103.7863378514753 L 641.4966767755101 103.71490824833242 L 641.3196280518941 103.64267468963719 L 641.1441860478833 103.56964439868527 L 640.9703683075319 103.4958246784449 L 640.798192212469 103.4212229108266 L 640.6276749801606 103.34584655594495 L 640.458833662188 103.26970315137261 L 640.2916851425421 103.19280031138662 L 640.1262461359357 103.11514572620688 L 639.9625331861315 103.03674716122718 L 639.8005626642882 102.9576124562387 L 639.640350767323 102.87774952464599 L 639.4819135162918 102.79716635267567 L 639.325266754788 102.71587099857777 L 639.1704261473571 102.63387159181995 L 639.0174071779309 102.55117633227457 L 638.8662251482785 102.46779348939864 L 638.7168951764772 102.383731401407 L 638.5694321953997 102.29899847443839 L 638.4238509512212 102.21360318171489 L 638.2801660019447 102.12755406269459 L 638.1383917159455 102.04085972221772 L 637.9985422705341 101.95352882964605 L 637.8606316505384 101.86557011799609 L 637.7246736469053 101.77699238306568 L 637.5906818553223 101.68780448255453 L 637.4586696748565 101.59801533517833 L 637.3286503066162 101.50763391977702 L 637.2006367524297 101.41666927441683 L 637.0746418135458 101.32513049548646 L 636.9506780893535 101.23302673678755 L 636.8287579761218 101.14036720861921 L 636.7088936657603 101.04716117685703 L 636.5910971446004 100.95341796202653 L 636.475380192196 100.85914693837105 L 636.3617543801457 100.76435753291443 L 636.2502310709364 100.66905922451821 L 636.1408214168057 100.5732615429338 L 636.033536358628 100.47697406784954 L 635.9283866248197 100.3802064279327 L 635.8253827302667 100.28296829986664 L 635.7245349752724 100.18526940738312 L 635.6258534445283 100.08711952028997 L 635.5293480061054 99.98852845349413 L 635.4350283104669 99.8895060660201 L 635.3429037895039 99.79006226002413 L 635.2529836555917 99.69020697980392 L 635.1652769006688 99.5899502108043 L 635.0797922953375 99.48930197861863 L 634.9965383879872 99.38827234798623 L 634.9155235039392 99.28687142178599 L 634.8367557446144 99.18510934002603 L 634.7602429867231 99.08299627882971 L 634.6859928814773 98.98054244941808 L 634.6140128538258 98.87775809708869 L 634.5443101017111 98.7746535001911 L 634.4768915953506 98.67123896909912 L 634.4117640765386 98.56752484517966 L 634.3489340579727 98.46352149975867 L 634.2884078226025 98.35923933308405 L 634.230191423001 98.25468877328554 L 634.1742906807598 98.14988027533201 L 634.1207111859063 98.04482431998592 L 634.0694582963455 97.93953141275524 L 634.0205371373237 97.83401208284296 L 633.9739526009158 97.72827688209414 L 633.9297093455369 97.62233638394075 L 633.8878117954755 97.5162011823443 L 633.8482641404518 97.40988189073651 L 633.8110703351981 97.30338914095798 L 633.7762340990643 97.19673358219488 L 633.7437589156445 97.08992587991426 L 633.7136480324306 96.9829767147973 L 633.6859044604853 96.87589678167143 L 633.660530974143 96.7686967884407 L 633.637530110731 96.66138745501512 L 633.6169041703165 96.55397951223858 L 633.5986552154764 96.44648370081588 L 633.5827850710909 96.33891077023856 L 633.5692953241614 96.23127147771005 L 633.5581873236512 96.1235765870699 L 633.5494621803512 96.01583686771744 L 633.5431207667682 95.90806309353479 L 633.5391637170386 95.80026604180959 L 633.5375914268639 95.69245649215716" stroke-miterlimit="10" stroke-width="2.7769845610000004" stroke-dasharray=""/></g><g><g/><text fill="black" stroke="none" font-family="sans-serif" font-size="11pt" font-style="normal" font-weight="normal" text-decoration="normal" x="577.5050991716471" y="123.98419304699999" text-anchor="start" dominant-baseline="alphabetic">authentication_database</text></g><path fill="none" stroke="none"/><g><path fill="white" stroke="black" paint-order="fill stroke markers" d=" M 753.6040201230143 84.779705127 L 886.8179823289362 84.779705127 L 886.8179823289362 128.884754037 L 753.6040201230143 128.884754037 L 753.6040201230143 84.779705127 Z" stroke-miterlimit="10" stroke-width="2.613632528" stroke-dasharray=""/></g><g><g/><text fill="black" stroke="none" font-family="sans-serif" font-size="11pt" font-style="normal" font-weight="normal" text-decoration="normal" x="771.3277157035143" y="112.549550737" text-anchor="start" dominant-baseline="alphabetic">resorce_server</text></g><g><path fill="white" stroke="black" paint-order="fill stroke markers" d=" M 937.9830719530261 96.867755569 L 937.9830719530261 62.563828639 L 985.681865589026 62.563828639 L 985.681865589026 96.867755569" stroke-miterlimit="10" stroke-width="2.7769845610000004" stroke-dasharray=""/><path fill="white" stroke="black" paint-order="fill stroke markers" d=" M 985.681865589026 61.3713587981 L 985.6806731291223 61.47916934301662 L 985.6770958686562 61.58696910696859 L 985.671134165351 61.69474731006935 L 985.6627886153716 61.8024931745884 L 985.6520600532664 61.91019592602908 L 985.6389495518825 62.017844794206 L 985.6234584222593 62.125429014322044 L 985.6055882134967 62.232937828044854 L 985.5853407126007 62.34036048458265 L 985.5627179443045 62.44768624175929 L 985.5377221708661 62.55490436708851 L 985.5103558918421 62.66200413884712 L 985.4806218438375 62.76897484714718 L 985.4485230002324 62.87580579500701 L 985.4140625708843 62.982486299420856 L 985.3772440018075 63.08900569242717 L 985.3380709748282 63.19535332217542 L 985.2965474072164 63.30151855399125 L 985.2526774512944 63.40749077143996 L 985.206465494021 63.5132593773881 L 985.1579161565537 63.618813795063225 L 985.1070342937857 63.724143469111524 L 985.0538249938608 63.82923786665337 L 984.9982935776645 63.93408647833659 L 984.9404455982925 64.03867881938739 L 984.8802868404944 64.1430044306588 L 984.8178233200957 64.24705287967667 L 984.7530612833965 64.35081376168277 L 984.6860072065465 64.45427670067541 L 984.6166677948976 64.55743135044686 L 984.5450499823329 64.66026739561813 L 984.4711609305742 64.7627745526704 L 984.3950080284652 64.86494257097338 L 984.3165988912324 64.96676123381039 L 984.2359413597243 65.06822035939997 L 984.1530434996268 65.16930980191414 L 984.067913600657 65.27001945249287 L 983.9805601757336 65.37033924025505 L 983.8909919601264 65.47025913330548 L 983.7992179105823 65.56976913973813 L 983.70524720443 65.66885930863528 L 983.6090892386613 65.7675197310626 L 983.5107536289933 65.86574054106009 L 983.4102502089045 65.96351191662859 L 983.3075890286533 66.06082408071202 L 983.2027803542722 66.15766730217506 L 983.0958346665414 66.25403189677627 L 982.9867626599404 66.3499082281365 L 982.8755752415791 66.4452867087025 L 982.7622835301065 66.54015780070569 L 982.6468988545996 66.63451201711595 L 982.5294327534295 66.72833992259025 L 982.4098969731086 66.82163213441623 L 982.2883034671154 66.91437932345046 L 982.164664394699 67.00657221505134 L 982.0389921196636 67.0982015900065 L 981.9112992091322 67.18925828545483 L 981.7815984322891 67.27973319580266 L 981.6499027591042 67.36961727363435 L 981.5162253590349 67.45890153061701 L 981.38057959971 67.54757703839935 L 981.2429790455922 67.6356349295045 L 981.1034374566223 67.72306639821673 L 980.9619687868429 67.80986270146201 L 980.8185871830032 67.89601515968236 L 980.673306983144 67.98151515770375 L 980.5261427151642 68.06635414559763 L 980.377109095368 68.15052363953589 L 980.2262210269931 68.2340152226393 L 980.0734935987208 68.31682054581911 L 979.9189420831666 68.39893132861202 L 979.7625819353531 68.48033936000816 L 979.6044287911648 68.56103649927225 L 979.4444984657845 68.6410146767576 L 979.2828069521113 68.72026589471311 L 979.119370419162 68.79878222808303 L 978.9542052104534 68.87655582529945 L 978.7873278423691 68.95357890906746 L 978.6187550025066 69.02984377714286 L 978.4485035480095 69.10534280310242 L 978.2765905038814 69.18006843710643 L 978.1030330612833 69.25401320665378 L 977.927848575815 69.32716971732913 L 977.751054565779 69.39953065354239 L 977.572668710429 69.47108877926021 L 977.3927088482017 69.54183693872967 L 977.2111929749336 69.61176805719379 L 977.0281392420607 69.68087514159897 L 976.8435659548037 69.74915128129439 L 976.6574915703375 69.81658964872294 L 976.4699346959455 69.88318350010411 L 976.2809140871589 69.94892617610824 L 976.090448645881 70.01381110252252 L 975.8985574184971 70.07783179090838 L 975.7052595939704 70.14098183925032 L 975.5105745019218 70.20325493259614 L 975.3145216106986 70.26464484368842 L 975.1171205254265 70.32514543358717 L 974.9183909860494 70.38475065228383 L 974.7183528653557 70.44345453930622 L 974.5170261669907 70.50125122431453 L 974.3144310234567 70.55813492768844 L 974.1105876940989 70.61409996110503 L 973.9055165630806 70.66914072810756 L 973.6992381373439 70.72325172466522 L 973.4917730445595 70.77642753972344 L 973.2831420310638 70.82866285574504 L 973.0733659597844 70.87995244924193 L 972.8624658081534 70.9302911912975 L 972.6504626660103 70.9796740480795 L 972.4373777334927 71.0280960813434 L 972.2232323189163 71.07555244892625 L 972.008047836644 71.12203840523081 L 971.7918458049447 71.16754930170019 L 971.5746478438416 71.21208058728268 L 971.3564756729496 71.25562780888683 L 971.1373511093041 71.29818661182675 L 970.9172960651787 71.33975274025764 L 970.6963325458946 71.38032203760127 L 970.4744826476197 71.41989044696174 L 970.2517685551586 71.45845401153106 L 970.0282125397351 71.49600887498494 L 969.8038369567647 71.5325512818683 L 969.5786642436184 71.56807757797091 L 969.35271691738 71.60258421069277 L 969.1260175725938 71.63606772939937 L 968.8985888790054 71.66852478576672 L 968.6704535792945 71.69995213411627 L 968.4416344868013 71.73034663173934 L 968.2121544832439 71.7597052392115 L 967.9820365164319 71.78802502069648 L 967.7513035979698 71.81530314423973 L 967.5199788009575 71.84153688205163 L 967.2880852576816 71.86672361078024 L 967.0556461573035 71.8908608117737 L 966.8226847435394 71.913946071332 L 966.5892243123365 71.93597708094846 L 966.3552882095435 71.95695163754044 L 966.1208998285755 71.97686764366978 L 965.8860826080755 71.99572310775245 L 965.6508600295699 72.01351614425778 L 965.4152556151203 72.03024497389691 L 965.179292924972 72.04590792380084 L 964.9429955551973 72.06050342768764 L 964.7063871353363 72.07403002601906 L 964.4694913260337 72.08648636614654 L 964.2323318166732 72.09787120244648 L 963.994932323008 72.1081833964447 L 963.7573165847896 72.11742191693043 L 963.5195083633939 72.12558584005929 L 963.2815314394448 72.13267434944576 L 963.0434096104365 72.13868673624485 L 962.8051666883533 72.14362239922286 L 962.566826497289 72.14748084481762 L 962.328412871064 72.1502616871878 L 962.0899496508422 72.15196464825142 L 961.8514606827471 72.15258955771385 L 961.6129698154765 72.15213635308466 L 961.3745008979187 72.15060507968391 L 961.1360777767665 72.14799589063767 L 960.8977242941335 72.1443090468627 L 960.6594642851691 72.13954491704027 L 960.4213215756758 72.1337039775794 L 960.1833199797262 72.12678681256918 L 959.9454832972814 72.11879411372033 L 959.7078353118114 72.10972668029609 L 959.4703997879169 72.09958541903224 L 959.2332004689522 72.08837134404646 L 958.9962610746518 72.07608557673689 L 958.7596052987575 72.06272934567005 L 958.5232568066497 72.04830398645788 L 958.2872392329806 72.0328109416243 L 958.051576179311 72.01625176046089 L 957.8162912117499 71.99862809887196 L 957.5814078585979 71.97994171920898 L 957.3469496079946 71.96019449009434 L 957.1129399055698 71.9393883862345 L 956.8794021520984 71.91752548822251 L 956.6463597011615 71.89460798232996 L 956.4138358568098 71.87063816028832 L 956.1818538712339 71.84561841905983 L 955.9504369424393 71.81955126059778 L 955.7196082119258 71.79243929159627 L 955.4893907623742 71.7642852232296 L 955.2598076153376 71.73509187088118 L 955.0308817289393 71.7048621538619 L 954.8026359955774 71.67359909511825 L 954.5750932396347 71.64130582093009 L 954.3482762151974 71.6079855605979 L 954.122207603779 71.57364164611994 L 953.896910012052 71.53827751185906 L 953.6724059695879 71.50189669419922 L 953.448717926604 71.46450283119185 L 953.2258682517181 71.42609966219209 L 953.003879229712 71.38669102748484 L 952.7827730593029 71.34628086790075 L 952.5625718509235 71.30487322442208 L 952.3432976245114 71.26247223777868 L 952.1249723073062 71.21908214803388 L 951.9076177316578 71.17470729416048 L 951.6912556328427 71.12935211360693 L 951.4759076468904 71.08302114185344 L 951.2615953084202 71.0357190119586 L 951.048340048487 70.987450454096 L 950.8361631924396 70.93822029508118 L 950.6250859577863 70.88803345788901 L 950.4151294520749 70.8368949611614 L 950.206314670781 70.7848099187054 L 949.9986624952087 70.73178353898187 L 949.7921936904025 70.67782112458457 L 949.5869289030709 70.62292807170999 L 949.3828886595214 70.56710986961765 L 949.1800933636084 70.51037210008127 L 948.9785632946927 70.4527204368305 L 948.778318605613 70.39416064498364 L 948.5793793206714 70.33469858047107 L 948.3817653336306 70.27434018944969 L 948.1854964057247 70.2130915077083 L 947.9905921636829 70.15095866006402 L 947.797072097767 70.08794785974987 L 947.6049555598222 70.02406540779336 L 947.4142617613425 69.95931769238642 L 947.2250097715485 69.89371118824668 L 947.0372185154815 69.82725245596986 L 946.8509067721109 69.7599481413738 L 946.6660931724555 69.69180497483389 L 946.4827961977214 69.62282977060998 L 946.3010341774532 69.55302942616503 L 946.1208252877017 69.4824109214753 L 945.9421875492054 69.41098131833243 L 945.7651388255895 69.3387477596372 L 945.5896968215786 69.26571746868528 L 945.4158790812272 69.19189774844492 L 945.2437029861643 69.1172959808266 L 945.0731857538559 69.04191962594494 L 944.9043444358833 68.96577622137262 L 944.7371959162374 68.88887338138663 L 944.5717569096311 68.81121879620689 L 944.4080439598268 68.73282023122718 L 944.2460734379836 68.6536855262387 L 944.0858615410183 68.573822594646 L 943.9274242899871 68.49323942267567 L 943.7707775284833 68.41194406857777 L 943.6159369210525 68.32994466181995 L 943.4629179516262 68.24724940227456 L 943.3117359219739 68.16386655939866 L 943.1624059501726 68.07980447140702 L 943.014942969095 67.99507154443839 L 942.8693617249165 67.90967625171488 L 942.7256767756401 67.8236271326946 L 942.5839024896409 67.73693279221771 L 942.4440530442295 67.64960189964606 L 942.3061424242337 67.56164318799608 L 942.1701844206007 67.47306545306569 L 942.0361926290176 67.38387755255452 L 941.9041804485519 67.29408840517834 L 941.7741610803115 67.20370698977703 L 941.646147526125 67.11274234441683 L 941.5201525872411 67.02120356548647 L 941.3961888630488 66.92909980678756 L 941.2742687498171 66.83644027861922 L 941.1544044394557 66.74323424685704 L 941.0366079182958 66.64949103202653 L 940.9208909658913 66.55522000837107 L 940.8072651538411 66.46043060291444 L 940.6957418446317 66.3651322945182 L 940.586332190501 66.2693346129338 L 940.4790471323233 66.17304713784955 L 940.373897398515 66.07627949793272 L 940.270893503962 65.97904136986665 L 940.1700457489677 65.88134247738313 L 940.0713642182236 65.78319259028999 L 939.9748587798007 65.68460152349414 L 939.8805390841623 65.58557913602012 L 939.7884145631992 65.48613533002413 L 939.698494429287 65.38628004980393 L 939.6107876743641 65.2860232808043 L 939.5253030690328 65.18537504861862 L 939.4420491616826 65.08434541798623 L 939.3610342776345 64.982944491786 L 939.2822665183097 64.88118241002603 L 939.2057537604185 64.77906934882972 L 939.1315036551727 64.67661551941809 L 939.0595236275211 64.5738311670887 L 938.9898208754064 64.47072657019112 L 938.9224023690459 64.36731203909913 L 938.8572748502339 64.26359791517966 L 938.794444831668 64.15959456975868 L 938.7339185962978 64.05531240308405 L 938.6757021966963 63.95076184328555 L 938.6198014544551 63.84595334533201 L 938.5662219596016 63.74089738998592 L 938.5149690700408 63.63560448275524 L 938.466047911019 63.530085152842965 L 938.4194633746112 63.42434995209415 L 938.3752201192323 63.318409453940745 L 938.3333225691708 63.2122742523443 L 938.2937749141471 63.105954960736526 L 938.2565811088934 62.99946221095797 L 938.2217448727596 62.892806652194885 L 938.1892696893399 62.78599894991426 L 938.1591588061259 62.679049784797314 L 938.1314152341806 62.57196985167143 L 938.1060417478383 62.464769858440704 L 938.0830408844263 62.357460525015114 L 938.0624149440118 62.25005258223858 L 938.0441659891717 62.14255677081588 L 938.0282958447863 62.03498384023857 L 938.0148060978568 61.92734454771006 L 938.0036980973465 61.81964965706991 L 937.9949729540465 61.71190993771744 L 937.9886315404635 61.6041361635348 L 937.9846744907339 61.49633911180959 L 937.9831022005592 61.38852956215717 L 937.9839148271672 61.28071829544265 L 937.9871122892957 61.172916092702856 L 937.9926942672014 61.06513373406823 L 938.000660202691 60.957381997684834 L 938.0110092991778 60.84967165863649 L 938.0237405217606 60.74201348786736 L 938.0388525973277 60.6344182511048 L 938.0563440146843 60.526896707782825 L 938.0762130247031 60.41945960996616 L 938.0984576404998 60.31211770127506 L 938.1230756376312 60.204881715810956 L 938.1500645543182 60.097762377083015 L 938.1794216916916 59.99077039693585 L 938.2111441140621 59.88391647447831 L 938.245228649214 59.7772112950136 L 938.281671888722 59.67066552897075 L 938.3204701882928 59.56428983083758 L 938.3616196681285 59.45809483809524 L 938.4051162133155 59.35209117015452 L 938.4509554742356 59.24628942729389 L 938.4991328670008 59.14070018959944 L 938.549643573912 59.03533401590697 L 938.6024825439406 58.93020144274604 L 938.6576444932338 58.82531298328635 L 938.7151239056424 58.72067912628645 L 938.7749150332731 58.61631033504484 L 938.837011897063 58.51221704635366 L 938.9014082873775 58.40840966945505 L 938.9680977646314 58.30489858500019 L 939.0370736599322 58.20169414401126 L 939.108329075748 58.098806666846365 L 939.1818568865966 57.996246442167475 L 939.2576497397582 57.894023725911595 L 939.3357000560106 57.79214874026516 L 939.4160000303874 57.69063167264185 L 939.4985416329578 57.58948267466382 L 939.5833166096305 57.488711861146584 L 939.6703164829785 57.38832930908751 L 939.7595325530868 57.28834505665816 L 939.850955898423 57.18876910220045 L 939.9445773767285 57.08961140322686 L 940.0403876259335 56.99088187542464 L 940.1383770650931 56.8925903916643 L 940.238535895345 56.794746781012314 L 940.3408541008895 56.6973608277482 L 940.4453214499913 56.60044227038614 L 940.5519274960028 56.5040008007011 L 940.660661578408 56.40804606275968 L 940.7715128238893 56.31258765195572 L 940.8844701474147 56.217635114050736 L 940.9995222533458 56.12319794421941 L 941.116657636568 56.029285586100016 L 941.2358645836404 55.93590743085011 L 941.3571311739678 55.8430728162074 L 941.4804452809922 55.75079102555599 L 941.6057945734057 55.65907128699804 L 941.7331665163833 55.56792277243099 L 941.8625483728372 55.47735459663031 L 941.9939272046893 55.387375816338135 L 942.1272898741659 55.29799542935749 L 942.2626230451112 55.20922237365261 L 942.3999131843211 55.12106552645507 L 942.5391465628959 55.033533703376136 L 942.6803092576138 54.94663565752517 L 942.8233871523229 54.86038007863435 L 942.968365939353 54.77477559218968 L 943.1152311209463 54.689830758568455 L 943.263968010707 54.60555407218327 L 943.4145617350699 54.52195396063252 L 943.5669972347883 54.439038783857704 L 943.7212592664391 54.35681683330739 L 943.8773324039478 54.27529633110813 L 944.0352010401306 54.19448542924221 L 944.1948493882555 54.114392208732454 L 944.3562614836206 54.03502467883419 L 944.5194211851511 53.95639077623426 L 944.6843121770127 53.878498364257396 L 944.8509179702436 53.801355232079885 L 945.0192219044034 53.72496909395066 L 945.1892071492387 53.649347588419886 L 945.3608567063669 53.57449827757509 L 945.5341534109754 53.50042864628498 L 945.7090799335379 53.42714610145097 L 945.885618781548 53.35465797126647 L 946.0637523012681 53.28297150448409 L 946.2434626794947 53.21209386969077 L 946.4247319453395 53.14203215459092 L 946.6075419720272 53.072793365297684 L 946.7918744787074 53.00438442563227 L 946.9777110322832 52.93681217643165 L 947.1650330492538 52.870083374864436 L 947.3538217975737 52.80420469375517 L 947.5440583985255 52.739182720917064 L 947.7357238286077 52.67502395849323 L 947.9287989214367 52.611734822306424 L 948.1232643696644 52.54932164121754 L 948.319100726908 52.48779065649267 L 948.5162884096948 52.427148021179015 L 948.714807699421 52.36739979948956 L 948.914638744323 52.3085519661967 L 949.1157615614628 52.25061040603471 L 949.3181560387264 52.19358091311133 L 949.5218019368348 52.13746919032833 L 949.7266788913676 52.08228084881122 L 949.9327664148002 52.02802140734818 L 950.1400438985521 51.974696291838114 L 950.3484906150476 51.922310834748146 L 950.5580857197888 51.87087027458034 L 950.7688082534397 51.82037975534783 L 950.9806371439228 51.770844326060484 L 951.1935512085254 51.72226894021993 L 951.4075291560185 51.674658455324284 L 951.6225495887858 51.62801763238236 L 951.838591004963 51.58235113543759 L 952.0556318005885 51.5376635311016 L 952.2736502717638 51.49395928809759 L 952.4926246168234 51.451242776813444 L 952.7125329385151 51.409518268864694 L 952.9333532461903 51.368789936667355 L 953.155063458002 51.32906185302072 L 953.3776414031139 51.29033799070003 L 953.6010648239169 51.252622222059266 L 953.825311378255 51.21591831864385 L 954.05035864166 51.18022995081354 L 954.2761841095927 51.14556068737539 L 954.5027651996947 51.11191399522683 L 954.7300792540459 51.079293239009054 L 954.95810354143 51.047701680770494 L 955.1868152596085 51.01714247964064 L 955.4161915376001 50.98761869151416 L 955.6462094379682 50.95913326874524 L 955.8768459591143 50.93168905985244 L 956.1080780375787 50.90528880923376 L 956.339882550346 50.87993515689227 L 956.5722363171584 50.85563063817208 L 956.8051161028326 50.83237768350481 L 957.0384986195842 50.81017861816654 L 957.272360529356 50.78903566204531 L 957.5066784461518 50.768950929419105 L 957.7414289383753 50.749926428744466 L 957.9765885311729 50.7319640624556 L 958.2121337087813 50.71506562677416 L 958.4480409168789 50.69923281152964 L 958.6842865649417 50.684467199990365 L 958.9208470286014 50.6707702687052 L 959.1576986520092 50.658143387355835 L 959.3948177501999 50.64658781861989 L 959.6321806114613 50.63610471804463 L 959.8697634997051 50.62669513393135 L 960.1075426568403 50.61836000723063 L 960.3454943051497 50.61110017144819 L 960.5835946496665 50.604916352561574 L 960.8218198805546 50.5998091689475 L 961.0601461754896 50.595779131320086 L 961.2985497020406 50.592826642679725 L 961.5370066200535 50.59095199827282 L 961.7754930840354 50.59015538556226 L 962.0139852455384 50.59043688420866 L 962.2524592555452 50.59179646606236 L 962.4908912668536 50.594233995166334 L 962.7292574364611 50.59774922776969 L 962.9675339279494 50.6023418123521 L 963.2056969138679 50.60801128965893 L 963.4437225781164 50.61475709274719 L 963.6815871183269 50.622578547042174 L 963.9192667482436 50.63147487040497 L 964.1567377001016 50.64144517321068 L 964.3939762270036 50.6524884584373 L 964.6309586052945 50.66460362176552 L 964.8676611369341 50.67778945168912 L 965.1040601518664 50.69204462963607 L 965.340132010387 50.70736773010048 L 965.5758531055067 50.72375722078505 L 965.8111998653123 50.74121146275439 L 966.0461487553242 50.759728710598836 L 966.280676280849 50.77930711260903 L 966.5147589893297 50.79994471096109 L 966.7483734726904 50.821639441912396 L 966.9814963696775 50.844389136007905 L 967.2141043681956 50.86819151829718 L 967.4461742076387 50.893044208561825 L 967.6776826812162 50.91894472155353 L 967.9086066382737 50.94589046724256 L 968.1389229866079 50.973878751076825 L 968.3686086947758 51.00290677425126 L 968.5976407943982 51.03297163398772 L 968.8259963824559 51.064070323825305 L 969.0536526235803 51.09619973392093 L 969.2805867523371 51.129356651360375 L 969.5067760755024 51.16353776047952 L 969.7321979743327 51.198739643195935 L 969.9568299068256 51.23495877935069 L 970.1806494099753 51.27219154706035 L 970.4036341020179 51.31043422307917 L 970.6257616846699 51.349682983171405 L 970.8470099453584 51.38993390249377 L 971.0673567594415 51.43118295598788 L 971.2867800924214 51.47342601878273 L 971.5052580021478 51.51665886660727 L 971.7227686410117 51.56087717621274 L 971.9392902581305 51.60607652580503 L 972.1548012015229 51.65225239548683 L 972.3692799202742 51.69940016770967 L 972.5827049666912 51.74751512773561 L 972.7950549984471 51.79659246410874 L 973.0063087807158 51.84662726913632 L 973.216445188295 51.89761453937955 L 973.425443207719 51.949549176153894 L 973.6332819393602 52.00242598603895 L 973.8399405995185 52.0562396813978 L 974.0453985225002 52.11098488090573 L 974.2496351626842 52.16665611008844 L 974.4526300965765 52.22324780186939 L 974.6543630248531 52.28075429712656 L 974.8548137743892 52.339169845258354 L 975.0539623002768 52.398488604758626 L 975.2517886878294 52.458704643800864 L 975.448273154573 52.51981194083135 L 975.6433960522248 52.581804385171296 L 975.8371378686576 52.64467577762793 L 976.029479229851 52.708419831114405 L 976.2204009018294 52.77303017127848 L 976.4098837925845 52.83850033713999 L 976.5979089539854 52.90482378173691 L 976.7844575836725 52.97199387278003 L 976.9695110269382 53.040003893316246 L 977.1530507785925 53.108847042400164 L 977.3350584848132 53.17851643577425 L 977.5155159449813 53.24900510655722 L 977.6944051135011 53.32030600594074 L 977.8717081016049 53.39241200389429 L 978.0474071791417 53.465315889878156 L 978.22148477635 53.5390103735645 L 978.3939234856153 53.61348808556637 L 978.5647060632103 53.68874157817461 L 978.7338154310196 53.76476332610268 L 978.9012346782472 53.84154572723915 L 979.066947063108 53.91908110340788 L 979.2309360145017 53.99736170113587 L 979.3931851336697 54.07637969242858 L 979.5536781958353 54.156127175552726 L 979.7123991518262 54.236596175826456 L 979.8693321296787 54.3177786464168 L 980.024461436226 54.39966646914434 L 980.1777715586669 54.48225145529506 L 980.3292471661166 54.56552534643915 L 980.4788731111407 54.6494798152569 L 980.6266344312695 54.73410646637139 L 980.772516350494 54.81939683718802 L 980.9165042807439 54.9053423987408 L 981.0585838233461 54.99193455654518 L 981.1987407704648 55.079164651457546 L 981.336961106522 55.16702396054111 L 981.4732310095994 55.25550369793815 L 981.6075368528202 55.344595015748695 L 981.739865205712 55.43428900491518 L 981.8702028355497 55.52457669611344 L 981.998536708679 55.615449060649595 L 982.1248539918197 55.706897011362926 L 982.2491420533484 55.79891140353456 L 982.3713884645628 55.891483035801954 L 982.4915810009235 55.98460265107904 L 982.6097076432771 56.07826093748187 L 982.7257565790578 56.17244852925987 L 982.8397162034687 56.26715600773234 L 982.9515751206424 56.36237390223035 L 983.0613221447802 56.45809269104382 L 983.1689463012714 56.55430280237361 L 983.2744368277898 56.65099461528878 L 983.3777831753708 56.74815846068861 L 983.4789750094658 56.84578462226952 L 983.5780022109757 56.943863337496715 L 983.6748548772626 57.0423847985804 L 983.769523323141 57.14133915345658 L 983.861998081845 57.240716506772216 L 983.9522699059758 57.34050692087479 L 984.0403297684261 57.44070041680606 L 984.1261688632832 57.54128697529992 L 984.2097786067092 57.64225653778434 L 984.2911506377991 57.74359900738722 L 984.370276819418 57.84530424994605 L 984.4471492390135 57.94736209502132 L 984.5217602094076 58.04976233691358 L 984.5941022695656 58.15249473568397 L 984.6641681853419 58.25554901817823 L 984.7319509502029 58.35891487905398 L 984.7974437859289 58.46258198181127 L 984.8606401432908 58.566539959826216 L 984.9215337027055 58.67077841738765 L 984.9801183748679 58.77528693073668 L 985.0363883013595 58.88005504910905 L 985.0903378552347 58.985072295780256 L 985.141961641583 59.09032816911312 L 985.1912544980686 59.19581214360803 L 985.2382114954472 59.301513670955444 L 985.2828279380581 59.4074221810907 L 985.3250993642941 59.513527083251056 L 985.365021547048 59.619817767034704 L 985.4025904941346 59.72628360346185 L 985.4378024486906 59.832913946037564 L 985.47065388955 59.939698131816456 L 985.5011415315959 60.046625482468926 L 985.5292623260896 60.153685305349015 L 985.5550134609749 60.26086689456366 L 985.5783923611601 60.36815953204325 L 985.5993966887744 60.47555248861345 L 985.6180243434027 60.5830350250681 L 985.6342734622949 60.69059639324311 L 985.6481424205529 60.79822583709131 L 985.6596298312921 60.905912593758 L 985.6687345457813 61.01364589465726 L 985.6754556535565 61.12141496654876 L 985.6797924825124 61.22920903261514 L 985.68174459897 61.337017313539604 M 985.681865589026 95.6752857281 L 985.6806731291223 95.78309627301661 L 985.6770958686562 95.89089603696858 L 985.671134165351 95.99867424006935 L 985.6627886153716 96.1064201045884 L 985.6520600532664 96.21412285602908 L 985.6389495518825 96.321771724206 L 985.6234584222593 96.42935594432204 L 985.6055882134967 96.53686475804484 L 985.5853407126007 96.64428741458265 L 985.5627179443045 96.75161317175929 L 985.5377221708661 96.85883129708851 L 985.5103558918421 96.96593106884711 L 985.4806218438375 97.07290177714718 L 985.4485230002324 97.17973272500701 L 985.4140625708843 97.28641322942086 L 985.3772440018075 97.39293262242717 L 985.3380709748282 97.49928025217542 L 985.2965474072164 97.60544548399125 L 985.2526774512944 97.71141770143996 L 985.206465494021 97.8171863073881 L 985.1579161565537 97.92274072506322 L 985.1070342937857 98.02807039911151 L 985.0538249938608 98.13316479665336 L 984.9982935776645 98.23801340833658 L 984.9404455982925 98.34260574938737 L 984.8802868404944 98.4469313606588 L 984.8178233200957 98.55097980967666 L 984.7530612833965 98.65474069168278 L 984.6860072065465 98.7582036306754 L 984.6166677948976 98.86135828044685 L 984.5450499823329 98.96419432561812 L 984.4711609305742 99.0667014826704 L 984.3950080284652 99.16886950097337 L 984.3165988912324 99.27068816381038 L 984.2359413597243 99.37214728939998 L 984.1530434996268 99.47323673191414 L 984.067913600657 99.57394638249288 L 983.9805601757336 99.67426617025505 L 983.8909919601264 99.77418606330548 L 983.7992179105823 99.87369606973812 L 983.70524720443 99.97278623863527 L 983.6090892386613 100.0714466610626 L 983.5107536289933 100.1696674710601 L 983.4102502089045 100.2674388466286 L 983.3075890286533 100.36475101071201 L 983.2027803542722 100.46159423217506 L 983.0958346665414 100.55795882677627 L 982.9867626599404 100.65383515813649 L 982.8755752415791 100.74921363870249 L 982.7622835301065 100.84408473070569 L 982.6468988545996 100.93843894711594 L 982.5294327534295 101.03226685259024 L 982.4098969731086 101.12555906441622 L 982.2883034671154 101.21830625345046 L 982.164664394699 101.31049914505132 L 982.0389921196636 101.4021285200065 L 981.9112992091322 101.49318521545483 L 981.7815984322891 101.58366012580265 L 981.6499027591042 101.67354420363434 L 981.5162253590349 101.762828460617 L 981.38057959971 101.85150396839936 L 981.2429790455922 101.93956185950451 L 981.1034374566223 102.02699332821673 L 980.9619687868429 102.11378963146201 L 980.8185871830032 102.19994208968237 L 980.673306983144 102.28544208770374 L 980.5261427151642 102.37028107559762 L 980.377109095368 102.45445056953588 L 980.2262210269931 102.53794215263929 L 980.0734935987208 102.6207474758191 L 979.9189420831666 102.70285825861201 L 979.7625819353531 102.78426629000816 L 979.6044287911648 102.86496342927225 L 979.4444984657845 102.9449416067576 L 979.2828069521113 103.02419282471311 L 979.119370419162 103.10270915808303 L 978.9542052104534 103.18048275529944 L 978.7873278423691 103.25750583906745 L 978.6187550025066 103.33377070714286 L 978.4485035480095 103.4092697331024 L 978.2765905038814 103.48399536710642 L 978.1030330612833 103.55794013665377 L 977.927848575815 103.63109664732913 L 977.751054565779 103.70345758354237 L 977.572668710429 103.7750157092602 L 977.3927088482017 103.84576386872968 L 977.2111929749336 103.91569498719377 L 977.0281392420607 103.98480207159896 L 976.8435659548037 104.05307821129438 L 976.6574915703375 104.12051657872294 L 976.4699346959455 104.1871104301041 L 976.2809140871589 104.25285310610823 L 976.090448645881 104.31773803252251 L 975.8985574184971 104.38175872090837 L 975.7052595939704 104.44490876925032 L 975.5105745019218 104.50718186259614 L 975.3145216106986 104.5685717736884 L 975.1171205254265 104.62907236358716 L 974.9183909860494 104.68867758228383 L 974.7183528653557 104.7473814693062 L 974.5170261669907 104.80517815431453 L 974.3144310234567 104.86206185768845 L 974.1105876940989 104.91802689110501 L 973.9055165630806 104.97306765810755 L 973.6992381373439 105.02717865466522 L 973.4917730445595 105.08035446972343 L 973.2831420310638 105.13258978574503 L 973.0733659597844 105.18387937924192 L 972.8624658081534 105.23421812129749 L 972.6504626660103 105.28360097807949 L 972.4373777334927 105.33202301134341 L 972.2232323189163 105.37947937892625 L 972.008047836644 105.4259653352308 L 971.7918458049447 105.4714762317002 L 971.5746478438416 105.51600751728267 L 971.3564756729496 105.55955473888682 L 971.1373511093041 105.60211354182675 L 970.9172960651787 105.64367967025764 L 970.6963325458946 105.68424896760128 L 970.4744826476197 105.72381737696173 L 970.2517685551586 105.76238094153106 L 970.0282125397351 105.79993580498493 L 969.8038369567647 105.83647821186828 L 969.5786642436184 105.8720045079709 L 969.35271691738 105.90651114069276 L 969.1260175725938 105.93999465939936 L 968.8985888790054 105.97245171576672 L 968.6704535792945 106.00387906411626 L 968.4416344868013 106.03427356173933 L 968.2121544832439 106.0636321692115 L 967.9820365164319 106.09195195069648 L 967.7513035979698 106.11923007423972 L 967.5199788009575 106.14546381205162 L 967.2880852576816 106.17065054078024 L 967.0556461573035 106.1947877417737 L 966.8226847435394 106.21787300133201 L 966.5892243123365 106.23990401094846 L 966.3552882095435 106.26087856754044 L 966.1208998285755 106.28079457366978 L 965.8860826080755 106.29965003775246 L 965.6508600295699 106.31744307425777 L 965.4152556151203 106.3341719038969 L 965.179292924972 106.34983485380084 L 964.9429955551973 106.36443035768762 L 964.7063871353363 106.37795695601905 L 964.4694913260337 106.39041329614655 L 964.2323318166732 106.40179813244647 L 963.994932323008 106.4121103264447 L 963.7573165847896 106.42134884693041 L 963.5195083633939 106.42951277005928 L 963.2815314394448 106.43660127944577 L 963.0434096104365 106.44261366624485 L 962.8051666883533 106.44754932922287 L 962.566826497289 106.45140777481762 L 962.328412871064 106.45418861718778 L 962.0899496508422 106.45589157825142 L 961.8514606827471 106.45651648771386 L 961.6129698154765 106.45606328308465 L 961.3745008979187 106.4545320096839 L 961.1360777767665 106.45192282063768 L 960.8977242941335 106.44823597686269 L 960.6594642851691 106.44347184704026 L 960.4213215756758 106.43763090757939 L 960.1833199797262 106.43071374256917 L 959.9454832972814 106.42272104372033 L 959.7078353118114 106.41365361029608 L 959.4703997879169 106.40351234903224 L 959.2332004689522 106.39229827404645 L 958.9962610746518 106.38001250673689 L 958.7596052987575 106.36665627567004 L 958.5232568066497 106.35223091645787 L 958.2872392329806 106.33673787162431 L 958.051576179311 106.32017869046089 L 957.8162912117499 106.30255502887195 L 957.5814078585979 106.28386864920897 L 957.3469496079946 106.26412142009434 L 957.1129399055698 106.2433153162345 L 956.8794021520984 106.22145241822251 L 956.6463597011615 106.19853491232995 L 956.4138358568098 106.17456509028831 L 956.1818538712339 106.14954534905984 L 955.9504369424393 106.12347819059778 L 955.7196082119258 106.09636622159626 L 955.4893907623742 106.06821215322961 L 955.2598076153376 106.03901880088118 L 955.0308817289393 106.0087890838619 L 954.8026359955774 105.97752602511825 L 954.5750932396347 105.94523275093007 L 954.3482762151974 105.91191249059789 L 954.122207603779 105.87756857611994 L 953.896910012052 105.84220444185907 L 953.6724059695879 105.8058236241992 L 953.448717926604 105.76842976119184 L 953.2258682517181 105.73002659219209 L 953.003879229712 105.69061795748485 L 952.7827730593029 105.65020779790075 L 952.5625718509235 105.60880015442207 L 952.3432976245114 105.56639916777867 L 952.1249723073062 105.52300907803387 L 951.9076177316578 105.47863422416049 L 951.6912556328427 105.43327904360692 L 951.4759076468904 105.38694807185344 L 951.2615953084202 105.33964594195861 L 951.048340048487 105.291377384096 L 950.8361631924396 105.24214722508117 L 950.6250859577863 105.19196038788901 L 950.4151294520749 105.1408218911614 L 950.206314670781 105.08873684870541 L 949.9986624952087 105.03571046898188 L 949.7921936904025 104.98174805458457 L 949.5869289030709 104.92685500170998 L 949.3828886595214 104.87103679961766 L 949.1800933636084 104.81429903008126 L 948.9785632946927 104.7566473668305 L 948.778318605613 104.69808757498365 L 948.5793793206714 104.63862551047107 L 948.3817653336306 104.57826711944969 L 948.1854964057247 104.51701843770829 L 947.9905921636829 104.45488559006402 L 947.797072097767 104.39187478974986 L 947.6049555598222 104.32799233779335 L 947.4142617613425 104.26324462238642 L 947.2250097715485 104.19763811824667 L 947.0372185154815 104.13117938596986 L 946.8509067721109 104.0638750713738 L 946.6660931724555 103.99573190483389 L 946.4827961977214 103.92675670060999 L 946.3010341774532 103.85695635616503 L 946.1208252877017 103.7863378514753 L 945.9421875492054 103.71490824833242 L 945.7651388255895 103.64267468963719 L 945.5896968215786 103.56964439868527 L 945.4158790812272 103.4958246784449 L 945.2437029861643 103.4212229108266 L 945.0731857538559 103.34584655594495 L 944.9043444358833 103.26970315137261 L 944.7371959162374 103.19280031138662 L 944.5717569096311 103.11514572620688 L 944.4080439598268 103.03674716122718 L 944.2460734379836 102.9576124562387 L 944.0858615410183 102.87774952464599 L 943.9274242899871 102.79716635267567 L 943.7707775284833 102.71587099857777 L 943.6159369210525 102.63387159181995 L 943.4629179516262 102.55117633227457 L 943.3117359219739 102.46779348939864 L 943.1624059501726 102.383731401407 L 943.014942969095 102.29899847443839 L 942.8693617249165 102.21360318171489 L 942.7256767756401 102.12755406269459 L 942.5839024896409 102.04085972221772 L 942.4440530442295 101.95352882964605 L 942.3061424242337 101.86557011799609 L 942.1701844206007 101.77699238306568 L 942.0361926290176 101.68780448255453 L 941.9041804485519 101.59801533517833 L 941.7741610803115 101.50763391977702 L 941.646147526125 101.41666927441683 L 941.5201525872411 101.32513049548646 L 941.3961888630488 101.23302673678755 L 941.2742687498171 101.14036720861921 L 941.1544044394557 101.04716117685703 L 941.0366079182958 100.95341796202653 L 940.9208909658913 100.85914693837105 L 940.8072651538411 100.76435753291443 L 940.6957418446317 100.66905922451821 L 940.586332190501 100.5732615429338 L 940.4790471323233 100.47697406784954 L 940.373897398515 100.3802064279327 L 940.270893503962 100.28296829986664 L 940.1700457489677 100.18526940738312 L 940.0713642182236 100.08711952028997 L 939.9748587798007 99.98852845349413 L 939.8805390841623 99.8895060660201 L 939.7884145631992 99.79006226002413 L 939.698494429287 99.69020697980392 L 939.6107876743641 99.5899502108043 L 939.5253030690328 99.48930197861863 L 939.4420491616826 99.38827234798623 L 939.3610342776345 99.28687142178599 L 939.2822665183097 99.18510934002603 L 939.2057537604185 99.08299627882971 L 939.1315036551727 98.98054244941808 L 939.0595236275211 98.87775809708869 L 938.9898208754064 98.7746535001911 L 938.9224023690459 98.67123896909912 L 938.8572748502339 98.56752484517966 L 938.794444831668 98.46352149975867 L 938.7339185962978 98.35923933308405 L 938.6757021966963 98.25468877328554 L 938.6198014544551 98.14988027533201 L 938.5662219596016 98.04482431998592 L 938.5149690700408 97.93953141275524 L 938.466047911019 97.83401208284296 L 938.4194633746112 97.72827688209414 L 938.3752201192323 97.62233638394075 L 938.3333225691708 97.5162011823443 L 938.2937749141471 97.40988189073651 L 938.2565811088934 97.30338914095798 L 938.2217448727596 97.19673358219488 L 938.1892696893399 97.08992587991426 L 938.1591588061259 96.9829767147973 L 938.1314152341806 96.87589678167143 L 938.1060417478383 96.7686967884407 L 938.0830408844263 96.66138745501512 L 938.0624149440118 96.55397951223858 L 938.0441659891717 96.44648370081588 L 938.0282958447863 96.33891077023856 L 938.0148060978568 96.23127147771005 L 938.0036980973465 96.1235765870699 L 937.9949729540465 96.01583686771744 L 937.9886315404635 95.90806309353479 L 937.9846744907339 95.80026604180959 L 937.9831022005592 95.69245649215716" stroke-miterlimit="10" stroke-width="2.7769845610000004" stroke-dasharray=""/></g><g><g/><text fill="black" stroke="none" font-family="sans-serif" font-size="11pt" font-style="normal" font-weight="normal" text-decoration="normal" x="903.1531856289362" y="123.98419304699999" text-anchor="start" dominant-baseline="alphabetic">resorce_database</text></g></g><g><path fill="white" stroke="black" paint-order="fill stroke markers" d=" M 379.87486518645835 226.89597383699999 L 396.21006848645834 226.89597383699999 L 396.21006848645834 364.111681557 L 379.87486518645835 364.111681557 L 379.87486518645835 226.89597383699999" stroke-miterlimit="10" stroke-width="1.3612669416666667" stroke-dasharray=""/><path fill="white" stroke="black" paint-order="fill stroke markers" d=" M 649.2193563473306 272.634543077 L 665.5545596473307 272.634543077 L 665.5545596473307 318.373112317 L 649.2193563473306 318.373112317 L 649.2193563473306 272.634543077" stroke-miterlimit="10" stroke-width="1.3612669416666667" stroke-dasharray=""/><path fill="white" stroke="black" paint-order="fill stroke markers" d=" M 379.87486518645835 610.7732513869998 L 396.21006848645834 610.7732513869998 L 396.21006848645834 793.7275283469996 L 379.87486518645835 793.7275283469996 L 379.87486518645835 610.7732513869998" stroke-miterlimit="10" stroke-width="1.3612669416666667" stroke-dasharray=""/><path fill="white" stroke="black" paint-order="fill stroke markers" d=" M 379.87486518645835 880.3041058369996 L 396.21006848645834 880.3041058369996 L 396.21006848645834 971.7812443169995 L 379.87486518645835 971.7812443169995 L 379.87486518645835 880.3041058369996" stroke-miterlimit="10" stroke-width="1.3612669416666667" stroke-dasharray=""/><path fill="white" stroke="black" paint-order="fill stroke markers" d=" M 812.0433995759752 1126.9656756669997 L 828.3786028759753 1126.9656756669997 L 828.3786028759753 1264.1813833869999 L 812.0433995759752 1264.1813833869999 L 812.0433995759752 1126.9656756669997" stroke-miterlimit="10" stroke-width="1.3612669416666667" stroke-dasharray=""/><g><g><rect fill="white" stroke="none" x="145.18986111014326" y="205.660209547" width="163.00355781617188" height="21.23576429"/></g><text fill="black" stroke="none" font-family="sans-serif" font-size="11pt" font-style="normal" font-weight="normal" text-decoration="normal" x="147.64014160514324" y="220.36189251699997" text-anchor="start" dominant-baseline="alphabetic">autentication cradentials</text></g><g><path fill="none" stroke="black" paint-order="fill stroke markers" d=" M 73.50841485 226.89597383699999 L 377.15233130312504 226.89597383699999" stroke-miterlimit="10" stroke-width="1.3612669416666667" stroke-dasharray=""/><g transform="translate(379.87486518645835,226.89597383699999) translate(-379.87486518645835,-226.89597383699999)"><path fill="black" stroke="none" paint-order="stroke fill markers" d=" M 366.2621957697917 220.08963912866665 L 379.87486518645835 226.89597383699999 L 366.2621957697917 233.70230854533332 Z"/></g></g><g><g><rect fill="white" stroke="none" x="478.69680496876947" y="251.398778787" width="88.03581489625" height="21.23576429"/></g><text fill="black" stroke="none" font-family="sans-serif" font-size="11pt" font-style="normal" font-weight="normal" text-decoration="normal" x="481.1470854637695" y="266.100461757" text-anchor="start" dominant-baseline="alphabetic">autentication</text></g><g><path fill="none" stroke="black" paint-order="fill stroke markers" d=" M 396.21006848645834 272.634543077 L 646.4968224639973 272.634543077" stroke-miterlimit="10" stroke-width="1.3612669416666667" stroke-dasharray=""/><g transform="translate(649.2193563473306,272.634543077) translate(-649.2193563473306,-272.634543077)"><path fill="black" stroke="none" paint-order="stroke fill markers" d=" M 635.606686930664 265.82820836866665 L 649.2193563473306 272.634543077 L 635.606686930664 279.4408777853333 Z"/></g></g><g><g><rect fill="white" stroke="none" x="484.4090470952343" y="297.137348027" width="76.61133064332031" height="21.23576429"/></g><text fill="black" stroke="none" font-family="sans-serif" font-size="11pt" font-style="normal" font-weight="normal" text-decoration="normal" x="486.85932759023433" y="311.83903099699995" text-anchor="start" dominant-baseline="alphabetic">valid or not</text></g><g><path fill="none" stroke="black" paint-order="fill stroke markers" d=" M 649.2193563473306 318.373112317 L 398.93260236979165 318.373112317" stroke-miterlimit="10" stroke-width="1.3612669416666667" stroke-dasharray="6.53408132"/><g transform="translate(396.21006848645834,318.373112317) translate(-396.21006848645834,-318.373112317)"><path fill="none" stroke="black" paint-order="fill stroke markers" d=" M 409.822737903125 311.56677760866665 L 397.571335428125 318.373112317 L 409.822737903125 325.17944702533333" stroke-miterlimit="10" stroke-width="1.3612669416666667"/></g></g><g><g><rect fill="white" stroke="none" x="165.58712368338544" y="342.875917267" width="122.2090326696875" height="21.23576429"/></g><text fill="black" stroke="none" font-family="sans-serif" font-size="11pt" font-style="normal" font-weight="normal" text-decoration="normal" x="168.03740417838543" y="357.57760023699996" text-anchor="start" dominant-baseline="alphabetic">JWT token or eror</text></g><g><path fill="none" stroke="black" paint-order="fill stroke markers" d=" M 379.87486518645835 364.111681557 L 76.23094873333332 364.111681557" stroke-miterlimit="10" stroke-width="1.3612669416666667" stroke-dasharray="6.53408132"/><g transform="translate(73.50841485,364.111681557) translate(-73.50841485,-364.111681557)"><path fill="none" stroke="black" paint-order="fill stroke markers" d=" M 87.12108426666667 357.30534684866666 L 74.86968179166666 364.111681557 L 87.12108426666667 370.91801626533334" stroke-miterlimit="10" stroke-width="1.3612669416666667"/></g></g><g><g><rect fill="white" stroke="none" x="146.43544324617838" y="498.06034861699993" width="168.67999519410156" height="21.23576429"/></g><text fill="black" stroke="none" font-family="sans-serif" font-size="11pt" font-style="normal" font-weight="normal" text-decoration="normal" x="148.88572374117837" y="512.7620315869999" text-anchor="start" dominant-baseline="alphabetic">ask for recovery question</text></g><g><path fill="none" stroke="black" paint-order="fill stroke markers" d=" M 73.50841485 519.296112907 L 385.31993295312503 519.296112907" stroke-miterlimit="10" stroke-width="1.3612669416666667" stroke-dasharray=""/><g transform="translate(388.04246683645835,519.296112907) translate(-388.04246683645835,-519.296112907)"><path fill="black" stroke="none" paint-order="stroke fill markers" d=" M 374.42979741979167 512.4897781986666 L 388.04246683645835 519.296112907 L 374.42979741979167 526.1024476153333 Z"/></g></g><g><g><rect fill="white" stroke="none" x="174.54566510897135" y="543.7989178569999" width="112.45955146851563" height="21.23576429"/></g><text fill="black" stroke="none" font-family="sans-serif" font-size="11pt" font-style="normal" font-weight="normal" text-decoration="normal" x="176.99594560397134" y="558.5006008269999" text-anchor="start" dominant-baseline="alphabetic">recovery qestion</text></g><g><path fill="none" stroke="black" paint-order="fill stroke markers" d=" M 388.04246683645835 565.0346821469999 L 76.23094873333332 565.0346821469999" stroke-miterlimit="10" stroke-width="1.3612669416666667" stroke-dasharray="6.53408132"/><g transform="translate(73.50841485,565.0346821469999) translate(-73.50841485,-565.0346821469999)"><path fill="none" stroke="black" paint-order="fill stroke markers" d=" M 87.12108426666667 558.2283474386666 L 74.86968179166666 565.0346821469999 L 87.12108426666667 571.8410168553332" stroke-miterlimit="10" stroke-width="1.3612669416666667"/></g></g><g><g><rect fill="white" stroke="none" x="92.83840542166668" y="589.5374870969998" width="267.706469193125" height="21.23576429"/></g><text fill="black" stroke="none" font-family="sans-serif" font-size="11pt" font-style="normal" font-weight="normal" text-decoration="normal" x="95.28868591666668" y="604.2391700669998" text-anchor="start" dominant-baseline="alphabetic">ansear to recovery question + username</text></g><g><path fill="none" stroke="black" paint-order="fill stroke markers" d=" M 73.50841485 610.7732513869998 L 377.15233130312504 610.7732513869998" stroke-miterlimit="10" stroke-width="1.3612669416666667" stroke-dasharray=""/><g transform="translate(379.87486518645835,610.7732513869998) translate(-379.87486518645835,-610.7732513869998)"><path fill="black" stroke="none" paint-order="stroke fill markers" d=" M 366.2621957697917 603.9669166786665 L 379.87486518645835 610.7732513869998 L 366.2621957697917 617.5795860953332 Z"/></g></g><g><g><rect fill="white" stroke="none" x="473.41411256867184" y="635.2760563369998" width="106.76880134644531" height="21.23576429"/></g><text fill="black" stroke="none" font-family="sans-serif" font-size="11pt" font-style="normal" font-weight="normal" text-decoration="normal" x="475.86439306367186" y="649.9777393069998" text-anchor="start" dominant-baseline="alphabetic">get user ansear</text></g><g><path fill="none" stroke="black" paint-order="fill stroke markers" d=" M 396.21006848645834 656.5118206269998 L 654.6644241139974 656.5118206269998" stroke-miterlimit="10" stroke-width="1.3612669416666667" stroke-dasharray=""/><g transform="translate(657.3869579973307,656.5118206269998) translate(-657.3869579973307,-656.5118206269998)"><path fill="black" stroke="none" paint-order="stroke fill markers" d=" M 643.774288580664 649.7054859186665 L 657.3869579973307 656.5118206269998 L 643.774288580664 663.3181553353331 Z"/></g></g><g><g><rect fill="white" stroke="none" x="485.64030885773434" y="681.0146255769997" width="82.31640876832031" height="21.23576429"/></g><text fill="black" stroke="none" font-family="sans-serif" font-size="11pt" font-style="normal" font-weight="normal" text-decoration="normal" x="488.09058935273436" y="695.7163085469997" text-anchor="start" dominant-baseline="alphabetic">user ansear</text></g><g><path fill="none" stroke="black" paint-order="fill stroke markers" d=" M 657.3869579973307 702.2503898669997 L 398.93260236979165 702.2503898669997" stroke-miterlimit="10" stroke-width="1.3612669416666667" stroke-dasharray="6.53408132"/><g transform="translate(396.21006848645834,702.2503898669997) translate(-396.21006848645834,-702.2503898669997)"><path fill="none" stroke="black" paint-order="fill stroke markers" d=" M 409.822737903125 695.4440551586664 L 397.571335428125 702.2503898669997 L 409.822737903125 709.0567245753331" stroke-miterlimit="10" stroke-width="1.3612669416666667"/></g></g><g><g><rect fill="white" stroke="none" x="119.53847103445965" y="726.7531948169997" width="214.30633796753906" height="21.23576429"/></g><text fill="black" stroke="none" font-family="sans-serif" font-size="11pt" font-style="normal" font-weight="normal" text-decoration="normal" x="121.98875152945965" y="741.4548777869996" text-anchor="start" dominant-baseline="alphabetic">SMS to phone with recovery link</text></g><g><path fill="none" stroke="black" paint-order="fill stroke markers" d=" M 379.87486518645835 747.9889591069997 L 76.23094873333332 747.9889591069997" stroke-miterlimit="10" stroke-width="1.3612669416666667" stroke-dasharray=""/><g transform="translate(73.50841485,747.9889591069997) translate(-73.50841485,-747.9889591069997)"><path fill="none" stroke="black" paint-order="fill stroke markers" d=" M 87.12108426666667 741.1826243986663 L 74.86968179166666 747.9889591069997 L 87.12108426666667 754.795293815333" stroke-miterlimit="10" stroke-width="1.3612669416666667"/></g></g><g><g><rect fill="white" stroke="none" x="162.72027187674482" y="772.4917640569996" width="127.94273628296875" height="21.23576429"/></g><text fill="black" stroke="none" font-family="sans-serif" font-size="11pt" font-style="normal" font-weight="normal" text-decoration="normal" x="165.1705523717448" y="787.1934470269996" text-anchor="start" dominant-baseline="alphabetic">prosses completed</text></g><g><path fill="none" stroke="black" paint-order="fill stroke markers" d=" M 379.87486518645835 793.7275283469996 L 76.23094873333332 793.7275283469996" stroke-miterlimit="10" stroke-width="1.3612669416666667" stroke-dasharray="6.53408132"/><g transform="translate(73.50841485,793.7275283469996) translate(-73.50841485,-793.7275283469996)"><path fill="none" stroke="black" paint-order="fill stroke markers" d=" M 87.12108426666667 786.9211936386663 L 74.86968179166666 793.7275283469996 L 87.12108426666667 800.533863055333" stroke-miterlimit="10" stroke-width="1.3612669416666667"/></g></g><g><g><rect fill="white" stroke="none" x="179.8319356951042" y="859.0683415469996" width="93.71940864625" height="21.23576429"/></g><text fill="black" stroke="none" font-family="sans-serif" font-size="11pt" font-style="normal" font-weight="normal" text-decoration="normal" x="182.28221619010418" y="873.7700245169996" text-anchor="start" dominant-baseline="alphabetic">recovery data</text></g><g><path fill="none" stroke="black" paint-order="fill stroke markers" d=" M 73.50841485 880.3041058369996 L 377.15233130312504 880.3041058369996" stroke-miterlimit="10" stroke-width="1.3612669416666667" stroke-dasharray=""/><g transform="translate(379.87486518645835,880.3041058369996) translate(-379.87486518645835,-880.3041058369996)"><path fill="none" stroke="black" paint-order="fill stroke markers" d=" M 366.2621957697917 873.4977711286663 L 378.5135982447917 880.3041058369996 L 366.2621957697917 887.110440545333" stroke-miterlimit="10" stroke-width="1.3612669416666667"/></g></g><g><g><rect fill="white" stroke="none" x="419.62385988312496" y="904.8069107869995" width="214.34930671753906" height="21.23576429"/></g><text fill="black" stroke="none" font-family="sans-serif" font-size="11pt" font-style="normal" font-weight="normal" text-decoration="normal" x="422.074140378125" y="919.5085937569995" text-anchor="start" dominant-baseline="alphabetic">update password and username</text></g><g><path fill="none" stroke="black" paint-order="fill stroke markers" d=" M 396.21006848645834 926.0426750769996 L 654.6644241139974 926.0426750769996" stroke-miterlimit="10" stroke-width="1.3612669416666667" stroke-dasharray=""/><g transform="translate(657.3869579973307,926.0426750769996) translate(-657.3869579973307,-926.0426750769996)"><path fill="black" stroke="none" paint-order="stroke fill markers" d=" M 643.774288580664 919.2363403686662 L 657.3869579973307 926.0426750769996 L 643.774288580664 932.8490097853329 Z"/></g></g><g><g><rect fill="white" stroke="none" x="508.0418667800976" y="950.5454800269995" width="37.51329292359375" height="21.23576429"/></g><text fill="black" stroke="none" font-family="sans-serif" font-size="11pt" font-style="normal" font-weight="normal" text-decoration="normal" x="510.49214727509764" y="965.2471629969995" text-anchor="start" dominant-baseline="alphabetic">done</text></g><g><path fill="none" stroke="black" paint-order="fill stroke markers" d=" M 657.3869579973307 971.7812443169995 L 398.93260236979165 971.7812443169995" stroke-miterlimit="10" stroke-width="1.3612669416666667" stroke-dasharray="6.53408132"/><g transform="translate(396.21006848645834,971.7812443169995) translate(-396.21006848645834,-971.7812443169995)"><path fill="none" stroke="black" paint-order="fill stroke markers" d=" M 409.822737903125 964.9749096086662 L 397.571335428125 971.7812443169995 L 409.822737903125 978.5875790253328" stroke-miterlimit="10" stroke-width="1.3612669416666667"/></g></g><g><g><rect fill="white" stroke="none" x="375.74082599777273" y="1105.7299113769998" width="134.0701624304297" height="21.23576429"/></g><text fill="black" stroke="none" font-family="sans-serif" font-size="11pt" font-style="normal" font-weight="normal" text-decoration="normal" x="378.19110649277275" y="1120.4315943469999" text-anchor="start" dominant-baseline="alphabetic">API request + token</text></g><g><path fill="none" stroke="black" paint-order="fill stroke markers" d=" M 73.50841485 1126.9656756669997 L 809.3208656926419 1126.9656756669997" stroke-miterlimit="10" stroke-width="1.3612669416666667" stroke-dasharray=""/><g transform="translate(812.0433995759752,1126.9656756669997) translate(-812.0433995759752,-1126.9656756669997)"><path fill="black" stroke="none" paint-order="stroke fill markers" d=" M 798.4307301593085 1120.1593409586665 L 812.0433995759752 1126.9656756669997 L 798.4307301593085 1133.772010375333 Z"/></g></g><g><g><rect fill="white" stroke="none" x="860.8764619935397" y="1151.4684806169998" width="68.45814765992188" height="21.23576429"/></g><text fill="black" stroke="none" font-family="sans-serif" font-size="11pt" font-style="normal" font-weight="normal" text-decoration="normal" x="863.3267424885397" y="1166.170163587" text-anchor="start" dominant-baseline="alphabetic">sql reqest</text></g><g><path fill="none" stroke="black" paint-order="fill stroke markers" d=" M 828.3786028759753 1172.7042449069997 L 959.1099348876927 1172.7042449069997" stroke-miterlimit="10" stroke-width="1.3612669416666667" stroke-dasharray=""/><g transform="translate(961.832468771026,1172.7042449069997) translate(-961.832468771026,-1172.7042449069997)"><path fill="black" stroke="none" paint-order="stroke fill markers" d=" M 948.2197993543593 1165.8979101986665 L 961.832468771026 1172.7042449069997 L 948.2197993543593 1179.510579615333 Z"/></g></g><g><g><rect fill="white" stroke="none" x="855.5686540711764" y="1197.207049857" width="79.07376350464844" height="21.23576429"/></g><text fill="black" stroke="none" font-family="sans-serif" font-size="11pt" font-style="normal" font-weight="normal" text-decoration="normal" x="858.0189345661764" y="1211.908732827" text-anchor="start" dominant-baseline="alphabetic">200 or data</text></g><g><path fill="none" stroke="black" paint-order="fill stroke markers" d=" M 961.832468771026 1218.4428141469998 L 831.1011367593086 1218.4428141469998" stroke-miterlimit="10" stroke-width="1.3612669416666667" stroke-dasharray="6.53408132"/><g transform="translate(828.3786028759753,1218.4428141469998) translate(-828.3786028759753,-1218.4428141469998)"><path fill="none" stroke="black" paint-order="fill stroke markers" d=" M 841.991272292642 1211.6364794386666 L 829.739869817642 1218.4428141469998 L 841.991272292642 1225.249148855333" stroke-miterlimit="10" stroke-width="1.3612669416666667"/></g></g><g><g><rect fill="white" stroke="none" x="405.4759563078313" y="1242.945619097" width="74.5999018103125" height="21.23576429"/></g><text fill="black" stroke="none" font-family="sans-serif" font-size="11pt" font-style="normal" font-weight="normal" text-decoration="normal" x="407.92623680283134" y="1257.647302067" text-anchor="start" dominant-baseline="alphabetic">200 + data</text></g><g><path fill="none" stroke="black" paint-order="fill stroke markers" d=" M 812.0433995759752 1264.1813833869999 L 76.23094873333332 1264.1813833869999" stroke-miterlimit="10" stroke-width="1.3612669416666667" stroke-dasharray="6.53408132"/><g transform="translate(73.50841485,1264.1813833869999) translate(-73.50841485,-1264.1813833869999)"><path fill="none" stroke="black" paint-order="fill stroke markers" d=" M 87.12108426666667 1257.3750486786666 L 74.86968179166666 1264.1813833869999 L 87.12108426666667 1270.987718095333" stroke-miterlimit="10" stroke-width="1.3612669416666667"/></g></g><g><g/><path fill="none" stroke="black" paint-order="fill stroke markers" d=" M 16.335203299999996 161.55516063699997 L 714.5601695473307 161.55516063699997 L 714.5601695473307 388.614486507 L 16.335203299999996 388.614486507 L 16.335203299999996 161.55516063699997 Z" stroke-miterlimit="10" stroke-width="2.3336004714285714" stroke-dasharray=""/><path fill="white" stroke="black" paint-order="fill stroke markers" d=" M 16.335203299999996 161.55516063699997 L 16.335203299999996 181.15740459699998 L 121.99729385996093 181.15740459699998 L 131.79841583996094 171.35628261699998 L 131.79841583996094 161.55516063699997 L 16.335203299999996 161.55516063699997" stroke-miterlimit="10" stroke-width="2.3336004714285714" stroke-dasharray=""/><text fill="black" stroke="none" font-family="sans-serif" font-size="8.8pt" font-style="normal" font-weight="bold" text-decoration="normal" x="32.67040659999999" y="174.62332327699997" text-anchor="start" dominant-baseline="alphabetic">autentication</text></g><g><g/><path fill="none" stroke="black" paint-order="fill stroke markers" d=" M 16.335203299999996 453.95529970699994 L 714.5601695473307 453.95529970699994 L 714.5601695473307 996.2840492669995 L 16.335203299999996 996.2840492669995 L 16.335203299999996 453.95529970699994 Z" stroke-miterlimit="10" stroke-width="2.3336004714285714" stroke-dasharray=""/><path fill="white" stroke="black" paint-order="fill stroke markers" d=" M 16.335203299999996 453.95529970699994 L 16.335203299999996 473.55754366699995 L 97.91875687265625 473.55754366699995 L 107.71987885265625 463.75642168699994 L 107.71987885265625 453.95529970699994 L 16.335203299999996 453.95529970699994" stroke-miterlimit="10" stroke-width="2.3336004714285714" stroke-dasharray=""/><text fill="black" stroke="none" font-family="sans-serif" font-size="8.8pt" font-style="normal" font-weight="bold" text-decoration="normal" x="32.67040659999999" y="467.02346234699996" text-anchor="start" dominant-baseline="alphabetic">recovery</text></g><g><g/><path fill="none" stroke="black" paint-order="fill stroke markers" d=" M 16.335203299999996 1061.6248624669997 L 1019.005680321026 1061.6248624669997 L 1019.005680321026 1288.6841883369998 L 16.335203299999996 1288.6841883369998 L 16.335203299999996 1061.6248624669997 Z" stroke-miterlimit="10" stroke-width="2.3336004714285714" stroke-dasharray=""/><path fill="white" stroke="black" paint-order="fill stroke markers" d=" M 16.335203299999996 1061.6248624669997 L 16.335203299999996 1081.2271064269996 L 133.09725418710937 1081.2271064269996 L 142.89837616710938 1071.4259844469998 L 142.89837616710938 1061.6248624669997 L 16.335203299999996 1061.6248624669997" stroke-miterlimit="10" stroke-width="2.3336004714285714" stroke-dasharray=""/><text fill="black" stroke="none" font-family="sans-serif" font-size="8.8pt" font-style="normal" font-weight="bold" text-decoration="normal" x="32.67040659999999" y="1074.6930251069996" text-anchor="start" dominant-baseline="alphabetic">passwords API</text></g></g><g/><g/><g/><g/><g/></g></svg>