<svg version="1.1" xmlns="http://www.w3.org/2000/svg" xmlns:xlink="http://www.w3.org/1999/xlink" width="962" height="816"><defs/><g><g/><g/><g/><g/><g/><g/><g/><g/><g/><g/><g/><g/><g/><g><rect fill="white" stroke="none" x="0" y="0" width="962" height="816"/></g><g><text fill="black" stroke="none" font-family="sans-serif" font-size="16.5pt" font-style="normal" font-weight="normal" text-decoration="normal" x="431.28117667058723" y="24.50280495" text-anchor="start" dominant-baseline="alphabetic">REST API</text></g><g><g><path fill="lightgreen" stroke="black" paint-order="fill stroke markers" d=" M 317.57731702161453 50.39410218050001 L 949.1745304792604 50.39410218050001 L 949.1745304792604 782.2928860369999 L 317.57731702161453 782.2928860369999 L 317.57731702161453 50.39410218050001" stroke-miterlimit="10" stroke-width="1.3612669416666667" stroke-dasharray=""/></g><g><text fill="black" stroke="none" font-family="sans-serif" font-size="11pt" font-style="normal" font-weight="normal" text-decoration="normal" x="607.2878881669413" y="73.26338680050002" text-anchor="start" dominant-baseline="alphabetic"></text><text fill="black" stroke="none" font-family="sans-serif" font-size="11pt" font-style="normal" font-weight="bold" text-decoration="normal" x="607.2878881669413" y="73.26338680050002" text-anchor="start" dominant-baseline="alphabetic">servers</text><text fill="black" stroke="none" font-family="sans-serif" font-size="11pt" font-style="normal" font-weight="normal" text-decoration="normal" x="659.4639593339335" y="73.26338680050002" text-anchor="start" dominant-baseline="alphabetic"></text></g><g><path fill="grey" stroke="black" paint-order="fill stroke markers" d=" M 325.7449186716145 87.96506977050001 L 499.933632171677 87.96506977050001 L 499.933632171677 782.2928860369999 L 325.7449186716145 782.2928860369999 L 325.7449186716145 87.96506977050001" stroke-miterlimit="10" stroke-width="1.3612669416666667" stroke-dasharray=""/></g><g><text fill="black" stroke="none" font-family="sans-serif" font-size="11pt" font-style="normal" font-weight="normal" text-decoration="normal" x="344.79349905445827" y="110.83435439050001" text-anchor="start" dominant-baseline="alphabetic">authentication server</text></g><g><path fill="pink" stroke="black" paint-order="fill stroke markers" d=" M 516.268835471677 87.96506977050001 L 941.0069288292605 87.96506977050001 L 941.0069288292605 782.2928860369999 L 516.268835471677 782.2928860369999 L 516.268835471677 87.96506977050001" stroke-miterlimit="10" stroke-width="1.3612669416666667" stroke-dasharray=""/></g><g><text fill="black" stroke="none" font-family="sans-serif" font-size="11pt" font-style="normal" font-weight="normal" text-decoration="normal" x="702.1597327364062" y="110.83435439050001" text-anchor="start" dominant-baseline="alphabetic">server 2</text></g></g><g><path fill="none" stroke="black" paint-order="fill stroke markers" d=" M 89.84361815 204.026689217 L 89.84361815 816.5968129669999" stroke-miterlimit="10" stroke-width="1.3612669416666667" stroke-dasharray="12.565541,5.445067766666667"/><path fill="none" stroke="black" paint-order="fill stroke markers" d=" M 372.0012671716458 204.026689217 L 372.0012671716458 816.5968129669999" stroke-miterlimit="10" stroke-width="1.3612669416666667" stroke-dasharray="12.565541,5.445067766666667"/><path fill="none" stroke="black" paint-order="fill stroke markers" d=" M 459.09562392167703 204.026689217 L 459.09562392167703 816.5968129669999" stroke-miterlimit="10" stroke-width="1.3612669416666667" stroke-dasharray="12.565541,5.445067766666667"/><path fill="none" stroke="black" paint-order="fill stroke markers" d=" M 591.043418224638 204.026689217 L 591.043418224638 816.5968129669999" stroke-miterlimit="10" stroke-width="1.3612669416666667" stroke-dasharray="12.565541,5.445067766666667"/><path fill="none" stroke="black" paint-order="fill stroke markers" d=" M 856.6296256411745 204.026689217 L 856.6296256411745 816.5968129669999" stroke-miterlimit="10" stroke-width="1.3612669416666667" stroke-dasharray="12.565541,5.445067766666667"/></g><g><g><path fill="white" stroke="black" paint-order="fill stroke markers" d=" M 99.154684031 134.92877925800002 A 9.311065881 9.311065881 0 1 1 99.15467937546744 134.91946819367087 M 89.84361815 144.23984513900004 L 89.84361815 164.16879316500004 M 78.08227177399999 151.42733459100003 L 101.604964526 151.42733459100003 M 89.84361815 164.16879316500004 L 78.08227177399999 182.79092492700002 M 89.84361815 164.16879316500004 L 101.604964526 182.79092492700002" stroke-miterlimit="10" stroke-width="2.7769845610000004" stroke-dasharray=""/></g><g><g/><text fill="black" stroke="none" font-family="sans-serif" font-size="11pt" font-style="normal" font-weight="normal" text-decoration="normal" x="72.73196196103515" y="199.126128227" text-anchor="start" dominant-baseline="alphabetic">client</text></g><path fill="none" stroke="none"/><g><path fill="white" stroke="black" paint-order="fill stroke markers" d=" M 333.9125203216145 159.92164030700002 L 410.090014021677 159.92164030700002 L 410.090014021677 204.026689217 L 333.9125203216145 204.026689217 L 333.9125203216145 159.92164030700002 Z" stroke-miterlimit="10" stroke-width="2.613632528" stroke-dasharray=""/></g><g><g/><text fill="black" stroke="none" font-family="sans-serif" font-size="11pt" font-style="normal" font-weight="normal" text-decoration="normal" x="351.63621590211454" y="187.691485917" text-anchor="start" dominant-baseline="alphabetic">server</text></g><g><path fill="white" stroke="black" paint-order="fill stroke markers" d=" M 435.24622710367703 172.00969074900001 L 435.24622710367703 137.70576381900003 L 482.94502073967703 137.70576381900003 L 482.94502073967703 172.00969074900001" stroke-miterlimit="10" stroke-width="2.7769845610000004" stroke-dasharray=""/><path fill="white" stroke="black" paint-order="fill stroke markers" d=" M 482.94502073967703 136.51329397810002 L 482.94382827977336 136.62110452301664 L 482.9402510193073 136.72890428696863 L 482.9342893160019 136.83668249006936 L 482.9259437660226 136.94442835458844 L 482.9152152039174 137.0521311060291 L 482.90210470253356 137.15977997420603 L 482.88661357291033 137.26736419432206 L 482.8687433641477 137.3748730080449 L 482.8484958632517 137.48229566458267 L 482.8258730949555 137.58962142175932 L 482.8008773215172 137.69683954708853 L 482.77351104249317 137.80393931884714 L 482.74377699448854 137.9109100271472 L 482.7116781508834 138.01774097500703 L 482.6772177215353 138.12442147942087 L 482.6403991524585 138.2309408724272 L 482.6012261254792 138.33728850217545 L 482.5597025578674 138.44345373399128 L 482.51583260194536 138.54942595143999 L 482.4696206446721 138.6551945573881 L 482.4210713072048 138.76074897506325 L 482.3701894444367 138.86607864911156 L 482.3169801445117 138.9711730466534 L 482.2614487283156 139.0760216583366 L 482.20360074894353 139.18061399938742 L 482.1434419911454 139.28493961065882 L 482.0809784707467 139.3889880596767 L 482.0162164340475 139.4927489416828 L 481.94916235719757 139.59621188067544 L 481.87982294554854 139.6993665304469 L 481.80820513298397 139.80220257561817 L 481.7343160812253 139.90470973267043 L 481.65816317911623 140.00687775097342 L 481.5797540418834 140.1086964138104 L 481.49909651037535 140.2101555394 L 481.41619865027786 140.31124498191417 L 481.33106875130795 140.4119546324929 L 481.2437153263846 140.51227442025507 L 481.1541471107774 140.6121943133055 L 481.06237306123336 140.71170431973815 L 480.9684023550809 140.8107944886353 L 480.8722443893124 140.90945491106262 L 480.7739087796442 141.0076757210601 L 480.67340535955543 141.1054470966286 L 480.57074417930426 141.20275926071204 L 480.46593550492327 141.2996024821751 L 480.3589898171924 141.3959670767763 L 480.24991781059146 141.49184340813653 L 480.1387303922301 141.58722188870252 L 480.0254386807576 141.6820929807057 L 479.9100540052506 141.77644719711597 L 479.79258790408056 141.87027510259028 L 479.67305212375965 141.96356731441625 L 479.5514586177664 142.0563145034505 L 479.42781954534996 142.14850739505135 L 479.3021472703146 142.24013677000653 L 479.1744543597831 142.33119346545485 L 479.04475358294013 142.42166837580268 L 478.91305790975525 142.51155245363438 L 478.779380509686 142.60083671061705 L 478.64373475036103 142.6895122183994 L 478.50613419624324 142.77757010950452 L 478.36659260727333 142.86500157821675 L 478.22512393749395 142.95179788146203 L 478.08174233365423 143.0379503396824 L 477.936462133795 143.1234503377038 L 477.78929786581523 143.20828932559766 L 477.640264246019 143.2924588195359 L 477.4893761776442 143.37595040263932 L 477.3366487493719 143.45875572581915 L 477.18209723381756 143.54086650861205 L 477.025737086004 143.6222745400082 L 476.86758394181584 143.70297167927228 L 476.7076536164355 143.78294985675763 L 476.54596210276236 143.86220107471314 L 476.38252556981297 143.94071740808306 L 476.2173603611045 144.01849100529947 L 476.0504829930202 144.09551408906748 L 475.88191015315766 144.1717789571429 L 475.7116586986606 144.24727798310244 L 475.5397456545324 144.32200361710645 L 475.36618821193434 144.3959483866538 L 475.191003726466 144.46910489732915 L 475.01420971643 144.54146583354242 L 474.8358238610799 144.61302395926023 L 474.65586399885274 144.6837721187297 L 474.47434812558464 144.7537032371938 L 474.2912943927117 144.822810321599 L 474.10672110545465 144.8910864612944 L 473.9206467209885 144.95852482872297 L 473.7330898465965 145.02511868010413 L 473.5440692378099 145.09086135610826 L 473.35360379653196 145.15574628252256 L 473.1617125691482 145.2197669709084 L 472.9684147446214 145.28291701925033 L 472.77372965257285 145.34519011259619 L 472.57767676134966 145.40658002368843 L 472.3802756760775 145.4670806135872 L 472.1815461367004 145.52668583228385 L 471.98150801600667 145.58538971930625 L 471.78018131764173 145.64318640431455 L 471.57758617410764 145.70007010768848 L 471.3737428447499 145.75603514110506 L 471.16867171373156 145.8110759081076 L 470.96239328799487 145.86518690466525 L 470.75492819521054 145.91836271972346 L 470.54629718171486 145.97059803574507 L 470.33652111043534 146.02188762924195 L 470.1256209588044 146.07222637129752 L 469.9136178166613 146.12160922807954 L 469.70053288414374 146.17003126134344 L 469.48638746956726 146.21748762892628 L 469.271202987295 146.26397358523084 L 469.05500095559574 146.30948448170022 L 468.8378029944926 146.3540157672827 L 468.6196308236006 146.39756298888685 L 468.4005062599551 146.44012179182678 L 468.18045121582975 146.48168792025766 L 467.95948769654564 146.5222572176013 L 467.7376377982706 146.56182562696176 L 467.51492370580957 146.6003891915311 L 467.29136769038615 146.63794405498496 L 467.0669921074157 146.67448646186833 L 466.8418193942694 146.71001275797093 L 466.61587206803097 146.7445193906928 L 466.38917272324477 146.7780029093994 L 466.16174402965635 146.81045996576674 L 465.93360872994555 146.8418873141163 L 465.7047896374522 146.87228181173936 L 465.475309633895 146.90164041921153 L 465.24519166708285 146.9299602006965 L 465.0144587486208 146.95723832423977 L 464.7831339516084 146.98347206205165 L 464.55124040833266 147.00865879078026 L 464.3188013079545 147.03279599177372 L 464.08583989419037 147.05588125133204 L 463.8523794629875 147.0779122609485 L 463.6184433601945 147.09888681754046 L 463.38405497922656 147.1188028236698 L 463.14923775872654 147.1376582877525 L 462.9140151802209 147.1554513242578 L 462.67841076577133 147.17218015389693 L 462.442448075623 147.18784310380087 L 462.2061507058483 147.20243860768767 L 461.96954228598725 147.2159652060191 L 461.73264647668475 147.22842154614656 L 461.4954869673242 147.23980638244652 L 461.258087473659 147.25011857644472 L 461.02047173544065 147.25935709693044 L 460.78266351404494 147.26752102005932 L 460.54468659009586 147.2746095294458 L 460.3065647610875 147.28062191624488 L 460.0683218390043 147.28555757922288 L 459.82998164794 147.28941602481765 L 459.5915680217149 147.2921968671878 L 459.3531048014932 147.29389982825145 L 459.11461583339803 147.29452473771389 L 458.8761249661276 147.2940715330847 L 458.6376560485697 147.29254025968393 L 458.39923292741753 147.2899310706377 L 458.1608794447844 147.28624422686272 L 457.9226194358201 147.2814800970403 L 457.68447672632686 147.27563915757943 L 457.44647513037717 147.2687219925692 L 457.20863844793234 147.26072929372035 L 456.9709904624624 147.2516618602961 L 456.73355493856786 147.24152059903227 L 456.49635561960326 147.23030652404648 L 456.2594162253028 147.2180207567369 L 456.0227604494085 147.20466452567007 L 455.7864119573007 147.1902391664579 L 455.55039438363167 147.17474612162434 L 455.3147313299621 147.15818694046092 L 455.079446362401 147.14056327887198 L 454.84456300924893 147.121876899209 L 454.61010475864566 147.10212967009437 L 454.3760950562207 147.08132356623452 L 454.1425573027494 147.05946066822253 L 453.90951485181245 147.03654316233 L 453.67699100746074 147.01257334028836 L 453.44500902188497 146.98755359905985 L 453.2135920930903 146.9614864405978 L 452.9827633625768 146.9343744715963 L 452.75254591302524 146.90622040322964 L 452.5229627659886 146.87702705088122 L 452.2940368795904 146.84679733386193 L 452.0657911462284 146.8155342751183 L 451.83824839028574 146.7832410009301 L 451.6114313658485 146.74992074059793 L 451.38536275442993 146.71557682611996 L 451.160065162703 146.68021269185908 L 450.93556112023896 146.64383187419924 L 450.71187307725506 146.60643801119187 L 450.4890234023691 146.5680348421921 L 450.26703438036304 146.52862620748488 L 450.0459282099539 146.48821604790078 L 449.8257270015746 146.44680840442211 L 449.6064527751623 146.4044074177787 L 449.3881274579572 146.3610173280339 L 449.1707728823088 146.31664247416052 L 448.9544107834937 146.27128729360695 L 448.73906279754146 146.22495632185348 L 448.5247504590712 146.17765419195865 L 448.3114951991381 146.12938563409602 L 448.09931834309054 146.0801554750812 L 447.8882411084373 146.02996863788903 L 447.6782846027259 145.97883014116144 L 447.469469821432 145.92674509870542 L 447.2618176458597 145.8737187189819 L 447.0553488410535 145.8197563045846 L 446.85008405372184 145.76486325171 L 446.6460438101724 145.70904504961769 L 446.4432485142595 145.6523072800813 L 446.2417184453437 145.59465561683052 L 446.041473756264 145.53609582498368 L 445.8425344713224 145.4766337604711 L 445.64492048428167 145.41627536944972 L 445.44865155637575 145.35502668770832 L 445.2537473143339 145.29289384006404 L 445.060227248418 145.2298830397499 L 444.8681107104733 145.16600058779338 L 444.6774169119934 145.10125287238645 L 444.4881649221994 145.03564636824672 L 444.30037366613254 144.9691876359699 L 444.1140619227619 144.90188332137382 L 443.9292483231065 144.83374015483392 L 443.7459513483724 144.76476495061002 L 443.56418932810425 144.69496460616506 L 443.38398043835264 144.62434610147534 L 443.2053426998564 144.55291649833245 L 443.02829397624043 144.48068293963723 L 442.85285197222964 144.4076526486853 L 442.67903423187823 144.33383292844493 L 442.5068581368153 144.25923116082663 L 442.3363409045069 144.18385480594497 L 442.1674995865343 144.10771140137265 L 442.0003510668884 144.03080856138666 L 441.834912060282 143.95315397620692 L 441.6711991104779 143.8747554112272 L 441.5092285886346 143.79562070623874 L 441.34901669166925 143.71575777464602 L 441.1905794406382 143.6351746026757 L 441.03393267913435 143.5538792485778 L 440.87909207170344 143.47187984181997 L 440.72607310227716 143.3891845822746 L 440.5748910726249 143.30580173939867 L 440.42556110082364 143.22173965140703 L 440.2780981197461 143.13700672443844 L 440.13251687556755 143.05161143171492 L 439.9888319262911 142.96556231269463 L 439.8470576402919 142.87886797221773 L 439.7072081948804 142.79153707964608 L 439.5692975748847 142.7035783679961 L 439.43333957125174 142.6150006330657 L 439.2993477796686 142.52581273255456 L 439.1673355992029 142.43602358517836 L 439.0373162309625 142.34564216977705 L 438.90930267677606 142.25467752441685 L 438.7833077378922 142.1631387454865 L 438.6593440136998 142.0710349867876 L 438.53742390046807 141.97837545861924 L 438.4175595901067 141.88516942685706 L 438.2997630689468 141.79142621202655 L 438.18404611654233 141.69715518837108 L 438.07042030449213 141.60236578291446 L 437.9588969952827 141.50706747451824 L 437.84948734115204 141.41126979293384 L 437.7422022829744 141.31498231784957 L 437.6370525491661 141.21821467793274 L 437.534048654613 141.12097654986667 L 437.4332008996187 141.02327765738315 L 437.3345193688747 140.92512777029 L 437.2380139304517 140.82653670349416 L 437.14369423481327 140.72751431602015 L 437.05156971385026 140.62807051002414 L 436.96164957993807 140.52821522980395 L 436.87394282501515 140.42795846080432 L 436.7884582196839 140.32731022861864 L 436.70520431233354 140.22628059798626 L 436.62418942828555 140.12487967178603 L 436.5454216689608 140.02311759002606 L 436.46890891106943 139.92100452882974 L 436.39465880582367 139.81855069941813 L 436.3226787781721 139.71576634708873 L 436.25297602605747 139.61266175019114 L 436.18555751969694 139.50924721909917 L 436.12043000088494 139.4055330951797 L 436.05759998231906 139.3015297497587 L 435.99707374694884 139.19724758308408 L 435.9388573473474 139.09269702328558 L 435.8829566051061 138.98788852533204 L 435.82937711025266 138.88283256998594 L 435.7781242206919 138.77753966275526 L 435.72920306167003 138.67202033284298 L 435.6826185252622 138.56628513209418 L 435.6383752698832 138.46034463394076 L 435.59647771982185 138.35420943234433 L 435.55693006479805 138.24789014073656 L 435.51973625954446 138.141397390958 L 435.48490002341055 138.03474183219492 L 435.45242483999095 137.9279341299143 L 435.4223139567769 137.82098496479733 L 435.39457038483164 137.71390503167146 L 435.3691968984893 137.60670503844074 L 435.3461960350773 137.49939570501513 L 435.3255700946628 137.3919877622386 L 435.3073211398227 137.2844919508159 L 435.2914509954373 137.17691902023859 L 435.2779612485078 137.0692797277101 L 435.2668532479976 136.96158483706992 L 435.25812810469745 136.85384511771747 L 435.25178669111455 136.74607134353482 L 435.2478296413849 136.6382742918096 L 435.2462573512102 136.5304647421572 L 435.24706997781817 136.42265347544267 L 435.25026743994675 136.31485127270287 L 435.25584941785246 136.20706891406826 L 435.2638153533421 136.09931717768487 L 435.27416444982885 135.99160683863653 L 435.2868956724116 135.88394866786737 L 435.30200774797873 135.77635343110484 L 435.3194991653353 135.66883188778286 L 435.33936817535414 135.5613947899662 L 435.3616127911508 135.4540528812751 L 435.3862307882822 135.34681689581097 L 435.4132197049692 135.23969755708305 L 435.44257684234265 135.13270557693588 L 435.4742992647132 135.02585165447834 L 435.508383799865 134.91914647501363 L 435.5448270393731 134.8126007089708 L 435.58362533894376 134.7062250108376 L 435.6247748187795 134.60003001809528 L 435.6682713639665 134.49402635015454 L 435.7141106248866 134.38822460729392 L 435.76228801765177 134.28263536959946 L 435.81279872456304 134.177269195907 L 435.86563769459167 134.07213662274606 L 435.9207996438848 133.96724816328637 L 435.9782790562934 133.86261430628647 L 436.0380701839241 133.75824551504485 L 436.1001670477141 133.6541522263537 L 436.1645634380286 133.5503448494551 L 436.23125291528237 133.4468337650002 L 436.3002288105831 133.3436293240113 L 436.371484226399 133.2407418468464 L 436.4450120372476 133.1381816221675 L 436.5208048904092 133.03595890591163 L 436.59885520666165 132.93408392026518 L 436.67915518103837 132.8325668526419 L 436.76169678360884 132.73141785466385 L 436.84647176028153 132.6306470411466 L 436.9334716336295 132.53026448908753 L 437.02268770373786 132.43028023665818 L 437.114111049074 132.3307042822005 L 437.20773252737945 132.23154658322687 L 437.30354277658455 132.13281705542465 L 437.4015322157441 132.03452557166432 L 437.5016910459959 131.93668196101234 L 437.60400925154045 131.83929600774823 L 437.70847660064237 131.74237745038616 L 437.8150826466538 131.64593598070113 L 437.923816729059 131.5499812427597 L 438.0346679745404 131.45452283195576 L 438.14762529806575 131.35957029405077 L 438.2626774039968 131.26513312421943 L 438.37981278721895 131.17122076610005 L 438.49901973429144 131.07784261085013 L 438.62028632461886 130.98500799620743 L 438.74360043164324 130.89272620555602 L 438.8689497240567 130.80100646699807 L 438.9963216670344 130.709857952431 L 439.1257035234882 130.61928977663032 L 439.25708235534023 130.52931099633815 L 439.3904450248169 130.43993060935753 L 439.5257781957623 130.35115755365263 L 439.66306833497214 130.2630007064551 L 439.8023017135469 130.17546888337617 L 439.9434644082648 130.0885708375252 L 440.0865423029739 130.00231525863438 L 440.23152109000404 129.9167107721897 L 440.3783862715973 129.83176593856848 L 440.527123161358 129.7474892521833 L 440.677716885721 129.66388914063253 L 440.83015238543936 129.58097396385773 L 440.9844144170902 129.4987520133074 L 441.14048755459885 129.41723151110816 L 441.2983561907816 129.33642060924223 L 441.4580045389065 129.25632738873247 L 441.6194166342717 129.1769598588342 L 441.78257633580216 129.09832595623428 L 441.94746732766373 129.02043354425743 L 442.1140731208946 128.9432904120799 L 442.2823770550543 128.8669042739507 L 442.4523622998897 128.7912827684199 L 442.62401185701793 128.7164334575751 L 442.7973085616264 128.64236382628502 L 442.97223508418887 128.569081281451 L 443.14877393219905 128.4965931512665 L 443.3269074519191 128.4249066844841 L 443.5066178301457 128.35402904969078 L 443.68788709599056 128.28396733459095 L 443.8706971226783 128.2147285452977 L 444.0550296293585 128.1463196056323 L 444.24086618293416 128.07874735643168 L 444.42818819990475 128.01201855486445 L 444.61697694822476 127.9461398737552 L 444.80721354917654 127.88111790091709 L 444.9988789792587 127.81695913849325 L 445.19195407208775 127.75367000230645 L 445.3864195203154 127.69125682121756 L 445.58225587755896 127.6297258364927 L 445.77944356034584 127.56908320117904 L 445.977962850072 127.50933497948958 L 446.17779389497406 127.45048714619672 L 446.3789167121139 127.39254558603474 L 446.58131118937746 127.33551609311137 L 446.78495708748574 127.27940437032836 L 446.9898340420186 127.22421602881126 L 447.1959215654512 127.1699565873482 L 447.4031990492031 127.11663147183813 L 447.61164576569865 127.06424601474816 L 447.8212408704398 127.01280545458036 L 448.0319634040908 126.96231493534786 L 448.24379229457384 126.9127795060605 L 448.45670635917645 126.86420412021995 L 448.67068430666956 126.81659363532431 L 448.88570473943673 126.76995281238239 L 449.1017461556139 126.72428631543761 L 449.31878695123953 126.67959871110162 L 449.53680542241483 126.63589446809762 L 449.75577976747434 126.59317795681346 L 449.97568808916617 126.55145344886472 L 450.1965083968413 126.51072511666739 L 450.41821860865304 126.47099703302075 L 450.6407965537649 126.43227317070006 L 450.8642199745679 126.39455740205929 L 451.0884665289061 126.35785349864388 L 451.313513792311 126.32216513081357 L 451.53933926024376 126.28749586737541 L 451.76592035034577 126.25384917522686 L 451.99323440469686 126.22122841900908 L 452.221258692081 126.18963686077052 L 452.4499704102595 126.15907765964067 L 452.6793466882511 126.12955387151419 L 452.90936458861916 126.10106844874527 L 453.14000110976536 126.07362423985246 L 453.3712331882297 126.04722398923379 L 453.6030377009971 126.0218703368923 L 453.8353914678094 125.9975658181721 L 454.0682712534836 125.97431286350484 L 454.3016537702352 125.95211379816656 L 454.53551568000694 125.93097084204533 L 454.7698335968028 125.91088610941914 L 455.0045840890263 125.89186160874449 L 455.2397436818239 125.87389924245562 L 455.4752888594323 125.85700080677418 L 455.7111960675299 125.84116799152966 L 455.9474417155926 125.8264023799904 L 456.18400217925245 125.81270544870522 L 456.4208538026602 125.80007856735585 L 456.6579729008509 125.78852299861992 L 456.89533576211227 125.77803989804465 L 457.1329186503561 125.76863031393137 L 457.3706978074914 125.76029518723065 L 457.60864945580073 125.75303535144822 L 457.84674980031747 125.7468515325616 L 458.08497503120566 125.74174434894752 L 458.32330132614067 125.7377143113201 L 458.5617048526916 125.73476182267974 L 458.80016177070456 125.73288717827285 L 459.0386482346864 125.73209056556229 L 459.2771403961894 125.73237206420868 L 459.5156144061963 125.73373164606238 L 459.75404641750464 125.73616917516635 L 459.99241258711214 125.73968440776972 L 460.2306890786004 125.74427699235213 L 460.46885206451884 125.74994646965897 L 460.7068777287674 125.75669227274722 L 460.9447422689779 125.7645137270422 L 461.18242189889463 125.773410050405 L 461.4198928507526 125.7833803532107 L 461.6571313776546 125.79442363843732 L 461.89411375594557 125.80653880176556 L 462.1308162875851 125.81972463168914 L 462.3672153025175 125.8339798096361 L 462.603287161038 125.8493029101005 L 462.8390082561577 125.86569240078508 L 463.07435501596336 125.88314664275441 L 463.30930390597524 125.90166389059885 L 463.54383143150005 125.92124229260905 L 463.7779141399807 125.94187989096112 L 464.0115286233414 125.96357462191241 L 464.24465152032855 125.98632431600792 L 464.47725951884667 126.0101266982972 L 464.7093293582897 126.03497938856185 L 464.9408378318672 126.06087990155355 L 465.1717617889247 126.0878256472426 L 465.40207813725885 126.11581393107686 L 465.63176384542686 126.14484195425128 L 465.8607959450492 126.17490681398775 L 466.0891515331069 126.20600550382532 L 466.3168077742313 126.23813491392096 L 466.5437419029881 126.2712918313604 L 466.7699312261535 126.30547294047955 L 466.9953531249837 126.34067482319597 L 467.21998505747666 126.37689395935072 L 467.44380456062635 126.41412672706038 L 467.6667892526689 126.45236940307919 L 467.88891683532097 126.49161816317144 L 468.1101650960094 126.5318690824938 L 468.33051191009247 126.5731181359879 L 468.54993524307247 126.61536119878276 L 468.7684131527988 126.6585940466073 L 468.98592379166274 126.70281235621277 L 469.20244540878156 126.74801170580506 L 469.4179563521739 126.79418757548686 L 469.6324350709252 126.8413353477097 L 469.8458601173422 126.88945030773563 L 470.05821014909816 126.93852764410876 L 470.2694639313668 126.98856244913635 L 470.479600338946 127.03954971937958 L 470.68859835837003 127.09148435615393 L 470.8964370900112 127.14436116603898 L 471.10309575016953 127.19817486139782 L 471.3085536731512 127.25292006090577 L 471.51279031333513 127.30859129008847 L 471.71578524722753 127.36518298186941 L 471.9175181755041 127.42268947712658 L 472.11796892504015 127.48110502525837 L 472.3171174509278 127.54042378475864 L 472.5149438384804 127.60063982380089 L 472.71142830522405 127.66174712083138 L 472.90655120287585 127.72373956517133 L 473.10029301930854 127.78661095762796 L 473.292634380502 127.85035501111443 L 473.48355605248037 127.91496535127851 L 473.6730389432356 127.98043551714002 L 473.86106410463645 128.04675896173694 L 474.04761273432354 128.11392905278007 L 474.23266617758924 128.18193907331627 L 474.4162059292436 128.2507822224002 L 474.5982136354642 128.3204516157743 L 474.7786710956323 128.39094028655725 L 474.9575602641521 128.46224118594077 L 475.13486325225597 128.5343471838943 L 475.3105623297927 128.60725106987817 L 475.48463992700107 128.68094555356453 L 475.6570786362663 128.75542326556638 L 475.8278612138613 128.83067675817463 L 475.99697058167055 128.9066985061027 L 476.1643898288982 128.98348090723917 L 476.33010221375906 129.06101628340792 L 476.4940911651528 129.1392968811359 L 476.6563402843208 129.2183148724286 L 476.81683334648636 129.29806235555276 L 476.9755543024771 129.37853135582648 L 477.1324872803297 129.45971382641682 L 477.2876165868771 129.54160164914435 L 477.44092670931786 129.62418663529508 L 477.5924023167676 129.70746052643918 L 477.7420282617918 129.79141499525693 L 477.8897895819206 129.87604164637142 L 478.03567150114503 129.96133201718806 L 478.1796594313949 130.04727757874082 L 478.3217389739971 130.1338697365452 L 478.4618959211158 130.22109983145756 L 478.60011625717306 130.30895914054113 L 478.73638616025045 130.39743887793819 L 478.8706920034712 130.4865301957487 L 479.003020356363 130.5762241849152 L 479.13335798620074 130.66651187611347 L 479.2616918593301 130.75738424064963 L 479.38800914247065 130.84883219136296 L 479.5122972039994 130.94084658353458 L 479.6345436152138 131.033418215802 L 479.7547361515745 131.12653783107908 L 479.8728627939281 131.2201961174819 L 479.98891172970883 131.3143837092599 L 480.1028713541197 131.40909118773237 L 480.2147302712933 131.50430908223038 L 480.3244772954312 131.60002787104384 L 480.43210145192234 131.69623798237365 L 480.53759197844084 131.7929297952888 L 480.64093832602185 131.89009364068863 L 480.74213016011686 131.98771980226954 L 480.84115736162664 132.08579851749673 L 480.9380100279137 132.18431997858042 L 481.03267847379203 132.2832743334566 L 481.125153232496 132.38265168677225 L 481.21542505662677 132.4824421008748 L 481.3034849190771 132.58263559680609 L 481.38932401393424 132.68322215529994 L 481.4729337573601 132.78419171778435 L 481.55430578845016 132.88553418738724 L 481.633431970069 132.98723942994607 L 481.7103043896645 133.08929727502135 L 481.7849153600587 133.1916975169136 L 481.8572574202167 133.294429915684 L 481.9273233359928 133.39748419817826 L 481.99510610085383 133.500850059054 L 482.0605989365798 133.6045171618113 L 482.1237952939417 133.70847513982625 L 482.1846888533565 133.81271359738767 L 482.2432735255189 133.9172221107367 L 482.29954345201054 134.0219902291091 L 482.3534930058857 134.1270074757803 L 482.4051167922339 134.23226334911314 L 482.4544096487196 134.33774732360806 L 482.5013666460982 134.44344885095546 L 482.5459830887091 134.54935736109073 L 482.5882545149451 134.65546226325108 L 482.62817669769896 134.76175294703472 L 482.6657456447856 134.86821878346188 L 482.7009575993417 134.97484912603758 L 482.733809040201 135.0816333118165 L 482.7642966822469 135.18856066246894 L 482.7924174767405 135.29562048534905 L 482.81816861162594 135.40280207456368 L 482.8415475118111 135.51009471204327 L 482.8625518394254 135.61748766861348 L 482.8811794940537 135.72497020506813 L 482.89742861294593 135.83253157324313 L 482.9112975712039 135.94016101709133 L 482.92278498194315 136.04784777375804 L 482.9318896964323 136.15558107465728 L 482.9386108042074 136.2633501465488 L 482.94294763316344 136.37114421261518 L 482.944899749621 136.47895249353962 M 482.94502073967703 170.8172209081 L 482.94382827977336 170.92503145301663 L 482.9402510193073 171.03283121696862 L 482.9342893160019 171.14060942006935 L 482.9259437660226 171.24835528458843 L 482.9152152039174 171.35605803602908 L 482.90210470253356 171.46370690420602 L 482.88661357291033 171.57129112432204 L 482.8687433641477 171.67879993804488 L 482.8484958632517 171.78622259458265 L 482.8258730949555 171.8935483517593 L 482.8008773215172 172.00076647708852 L 482.77351104249317 172.10786624884713 L 482.74377699448854 172.21483695714718 L 482.7116781508834 172.32166790500702 L 482.6772177215353 172.42834840942086 L 482.6403991524585 172.5348678024272 L 482.6012261254792 172.64121543217544 L 482.5597025578674 172.74738066399127 L 482.51583260194536 172.85335288143997 L 482.4696206446721 172.9591214873881 L 482.4210713072048 173.06467590506324 L 482.3701894444367 173.17000557911155 L 482.3169801445117 173.2750999766534 L 482.2614487283156 173.3799485883366 L 482.20360074894353 173.4845409293874 L 482.1434419911454 173.5888665406588 L 482.0809784707467 173.6929149896767 L 482.0162164340475 173.7966758716828 L 481.94916235719757 173.90013881067543 L 481.87982294554854 174.00329346044688 L 481.80820513298397 174.10612950561816 L 481.7343160812253 174.20863666267041 L 481.65816317911623 174.3108046809734 L 481.5797540418834 174.4126233438104 L 481.49909651037535 174.5140824694 L 481.41619865027786 174.61517191191416 L 481.33106875130795 174.71588156249288 L 481.2437153263846 174.81620135025506 L 481.1541471107774 174.9161212433055 L 481.06237306123336 175.01563124973814 L 480.9684023550809 175.1147214186353 L 480.8722443893124 175.2133818410626 L 480.7739087796442 175.3116026510601 L 480.67340535955543 175.4093740266286 L 480.57074417930426 175.50668619071203 L 480.46593550492327 175.60352941217508 L 480.3589898171924 175.69989400677628 L 480.24991781059146 175.79577033813652 L 480.1387303922301 175.8911488187025 L 480.0254386807576 175.9860199107057 L 479.9100540052506 176.08037412711596 L 479.79258790408056 176.17420203259027 L 479.67305212375965 176.26749424441624 L 479.5514586177664 176.36024143345048 L 479.42781954534996 176.45243432505134 L 479.3021472703146 176.54406370000652 L 479.1744543597831 176.63512039545483 L 479.04475358294013 176.72559530580267 L 478.91305790975525 176.81547938363437 L 478.779380509686 176.90476364061703 L 478.64373475036103 176.99343914839937 L 478.50613419624324 177.0814970395045 L 478.36659260727333 177.16892850821674 L 478.22512393749395 177.25572481146202 L 478.08174233365423 177.34187726968239 L 477.936462133795 177.42737726770378 L 477.78929786581523 177.51221625559765 L 477.640264246019 177.5963857495359 L 477.4893761776442 177.6798773326393 L 477.3366487493719 177.76268265581913 L 477.18209723381756 177.84479343861204 L 477.025737086004 177.92620147000818 L 476.86758394181584 178.00689860927227 L 476.7076536164355 178.0868767867576 L 476.54596210276236 178.16612800471313 L 476.38252556981297 178.24464433808305 L 476.2173603611045 178.32241793529946 L 476.0504829930202 178.39944101906747 L 475.88191015315766 178.47570588714288 L 475.7116586986606 178.55120491310242 L 475.5397456545324 178.62593054710644 L 475.36618821193434 178.6998753166538 L 475.191003726466 178.77303182732913 L 475.01420971643 178.8453927635424 L 474.8358238610799 178.91695088926022 L 474.65586399885274 178.9876990487297 L 474.47434812558464 179.0576301671938 L 474.2912943927117 179.126737251599 L 474.10672110545465 179.1950133912944 L 473.9206467209885 179.26245175872296 L 473.7330898465965 179.32904561010412 L 473.5440692378099 179.39478828610825 L 473.35360379653196 179.45967321252255 L 473.1617125691482 179.5236939009084 L 472.9684147446214 179.58684394925032 L 472.77372965257285 179.64911704259617 L 472.57767676134966 179.71050695368842 L 472.3802756760775 179.7710075435872 L 472.1815461367004 179.83061276228383 L 471.98150801600667 179.88931664930624 L 471.78018131764173 179.94711333431454 L 471.57758617410764 180.00399703768846 L 471.3737428447499 180.05996207110505 L 471.16867171373156 180.11500283810759 L 470.96239328799487 180.16911383466524 L 470.75492819521054 180.22228964972345 L 470.54629718171486 180.27452496574506 L 470.33652111043534 180.32581455924193 L 470.1256209588044 180.3761533012975 L 469.9136178166613 180.42553615807952 L 469.70053288414374 180.47395819134343 L 469.48638746956726 180.52141455892627 L 469.271202987295 180.56790051523083 L 469.05500095559574 180.6134114117002 L 468.8378029944926 180.6579426972827 L 468.6196308236006 180.70148991888684 L 468.4005062599551 180.74404872182677 L 468.18045121582975 180.78561485025764 L 467.95948769654564 180.82618414760128 L 467.7376377982706 180.86575255696175 L 467.51492370580957 180.90431612153108 L 467.29136769038615 180.94187098498494 L 467.0669921074157 180.97841339186832 L 466.8418193942694 181.01393968797092 L 466.61587206803097 181.0484463206928 L 466.38917272324477 181.08192983939938 L 466.16174402965635 181.11438689576673 L 465.93360872994555 181.14581424411628 L 465.7047896374522 181.17620874173934 L 465.475309633895 181.20556734921152 L 465.24519166708285 181.2338871306965 L 465.0144587486208 181.26116525423976 L 464.7831339516084 181.28739899205164 L 464.55124040833266 181.31258572078025 L 464.3188013079545 181.3367229217737 L 464.08583989419037 181.35980818133203 L 463.8523794629875 181.38183919094848 L 463.6184433601945 181.40281374754045 L 463.38405497922656 181.42272975366978 L 463.14923775872654 181.44158521775248 L 462.9140151802209 181.45937825425779 L 462.67841076577133 181.47610708389692 L 462.442448075623 181.49177003380086 L 462.2061507058483 181.50636553768766 L 461.96954228598725 181.51989213601908 L 461.73264647668475 181.53234847614655 L 461.4954869673242 181.5437333124465 L 461.258087473659 181.5540455064447 L 461.02047173544065 181.56328402693043 L 460.78266351404494 181.5714479500593 L 460.54468659009586 181.5785364594458 L 460.3065647610875 181.58454884624487 L 460.0683218390043 181.58948450922287 L 459.82998164794 181.59334295481764 L 459.5915680217149 181.5961237971878 L 459.3531048014932 181.59782675825144 L 459.11461583339803 181.59845166771387 L 458.8761249661276 181.59799846308468 L 458.6376560485697 181.59646718968392 L 458.39923292741753 181.59385800063768 L 458.1608794447844 181.5901711568627 L 457.9226194358201 181.58540702704028 L 457.68447672632686 181.57956608757942 L 457.44647513037717 181.5726489225692 L 457.20863844793234 181.56465622372033 L 456.9709904624624 181.5555887902961 L 456.73355493856786 181.54544752903226 L 456.49635561960326 181.53423345404647 L 456.2594162253028 181.5219476867369 L 456.0227604494085 181.50859145567006 L 455.7864119573007 181.4941660964579 L 455.55039438363167 181.47867305162433 L 455.3147313299621 181.4621138704609 L 455.079446362401 181.44449020887197 L 454.84456300924893 181.425803829209 L 454.61010475864566 181.40605660009436 L 454.3760950562207 181.3852504962345 L 454.1425573027494 181.36338759822252 L 453.90951485181245 181.34047009232998 L 453.67699100746074 181.31650027028834 L 453.44500902188497 181.29148052905984 L 453.2135920930903 181.2654133705978 L 452.9827633625768 181.2383014015963 L 452.75254591302524 181.21014733322963 L 452.5229627659886 181.1809539808812 L 452.2940368795904 181.15072426386192 L 452.0657911462284 181.11946120511828 L 451.83824839028574 181.0871679309301 L 451.6114313658485 181.05384767059792 L 451.38536275442993 181.01950375611995 L 451.160065162703 180.98413962185907 L 450.93556112023896 180.94775880419922 L 450.71187307725506 180.91036494119186 L 450.4890234023691 180.8719617721921 L 450.26703438036304 180.83255313748487 L 450.0459282099539 180.79214297790077 L 449.8257270015746 180.7507353344221 L 449.6064527751623 180.7083343477787 L 449.3881274579572 180.6649442580339 L 449.1707728823088 180.6205694041605 L 448.9544107834937 180.57521422360693 L 448.73906279754146 180.52888325185347 L 448.5247504590712 180.48158112195864 L 448.3114951991381 180.433312564096 L 448.09931834309054 180.3840824050812 L 447.8882411084373 180.33389556788902 L 447.6782846027259 180.28275707116143 L 447.469469821432 180.2306720287054 L 447.2618176458597 180.1776456489819 L 447.0553488410535 180.12368323458458 L 446.85008405372184 180.06879018171 L 446.6460438101724 180.01297197961767 L 446.4432485142595 179.95623421008128 L 446.2417184453437 179.8985825468305 L 446.041473756264 179.84002275498366 L 445.8425344713224 179.78056069047108 L 445.64492048428167 179.7202022994497 L 445.44865155637575 179.6589536177083 L 445.2537473143339 179.59682077006403 L 445.060227248418 179.53380996974988 L 444.8681107104733 179.46992751779337 L 444.6774169119934 179.40517980238644 L 444.4881649221994 179.3395732982467 L 444.30037366613254 179.27311456596988 L 444.1140619227619 179.2058102513738 L 443.9292483231065 179.1376670848339 L 443.7459513483724 179.06869188061 L 443.56418932810425 178.99889153616505 L 443.38398043835264 178.92827303147533 L 443.2053426998564 178.85684342833244 L 443.02829397624043 178.78460986963722 L 442.85285197222964 178.7115795786853 L 442.67903423187823 178.63775985844492 L 442.5068581368153 178.56315809082662 L 442.3363409045069 178.48778173594496 L 442.1674995865343 178.41163833137264 L 442.0003510668884 178.33473549138665 L 441.834912060282 178.2570809062069 L 441.6711991104779 178.1786823412272 L 441.5092285886346 178.09954763623873 L 441.34901669166925 178.019684704646 L 441.1905794406382 177.9391015326757 L 441.03393267913435 177.8578061785778 L 440.87909207170344 177.77580677181996 L 440.72607310227716 177.69311151227458 L 440.5748910726249 177.60972866939866 L 440.42556110082364 177.52566658140702 L 440.2780981197461 177.44093365443842 L 440.13251687556755 177.3555383617149 L 439.9888319262911 177.26948924269462 L 439.8470576402919 177.18279490221772 L 439.7072081948804 177.09546400964607 L 439.5692975748847 177.0075052979961 L 439.43333957125174 176.9189275630657 L 439.2993477796686 176.82973966255454 L 439.1673355992029 176.73995051517835 L 439.0373162309625 176.64956909977704 L 438.90930267677606 176.55860445441684 L 438.7833077378922 176.46706567548648 L 438.6593440136998 176.37496191678758 L 438.53742390046807 176.28230238861923 L 438.4175595901067 176.18909635685705 L 438.2997630689468 176.09535314202654 L 438.18404611654233 176.00108211837107 L 438.07042030449213 175.90629271291445 L 437.9588969952827 175.81099440451823 L 437.84948734115204 175.71519672293383 L 437.7422022829744 175.61890924784956 L 437.6370525491661 175.52214160793272 L 437.534048654613 175.42490347986666 L 437.4332008996187 175.32720458738314 L 437.3345193688747 175.22905470029 L 437.2380139304517 175.13046363349414 L 437.14369423481327 175.03144124602014 L 437.05156971385026 174.93199744002413 L 436.96164957993807 174.83214215980394 L 436.87394282501515 174.7318853908043 L 436.7884582196839 174.63123715861863 L 436.70520431233354 174.53020752798625 L 436.62418942828555 174.42880660178602 L 436.5454216689608 174.32704452002605 L 436.46890891106943 174.22493145882973 L 436.39465880582367 174.1224776294181 L 436.3226787781721 174.01969327708872 L 436.25297602605747 173.91658868019113 L 436.18555751969694 173.81317414909915 L 436.12043000088494 173.70946002517968 L 436.05759998231906 173.6054566797587 L 435.99707374694884 173.50117451308407 L 435.9388573473474 173.39662395328557 L 435.8829566051061 173.29181545533203 L 435.82937711025266 173.18675949998593 L 435.7781242206919 173.08146659275525 L 435.72920306167003 172.97594726284296 L 435.6826185252622 172.87021206209417 L 435.6383752698832 172.76427156394075 L 435.59647771982185 172.65813636234432 L 435.55693006479805 172.55181707073655 L 435.51973625954446 172.44532432095798 L 435.48490002341055 172.3386687621949 L 435.45242483999095 172.23186105991428 L 435.4223139567769 172.12491189479732 L 435.39457038483164 172.01783196167145 L 435.3691968984893 171.91063196844073 L 435.3461960350773 171.80332263501512 L 435.3255700946628 171.6959146922386 L 435.3073211398227 171.58841888081588 L 435.2914509954373 171.48084595023857 L 435.2779612485078 171.37320665771009 L 435.2668532479976 171.2655117670699 L 435.25812810469745 171.15777204771746 L 435.25178669111455 171.0499982735348 L 435.2478296413849 170.9422012218096 L 435.2462573512102 170.83439167215718" stroke-miterlimit="10" stroke-width="2.7769845610000004" stroke-dasharray=""/></g><g><g/><text fill="black" stroke="none" font-family="sans-serif" font-size="11pt" font-style="normal" font-weight="normal" text-decoration="normal" x="428.9345750325169" y="199.126128227" text-anchor="start" dominant-baseline="alphabetic">database</text></g><path fill="none" stroke="none"/><g><path fill="white" stroke="black" paint-order="fill stroke markers" d=" M 524.436437121677 159.92164030700002 L 657.650399327599 159.92164030700002 L 657.650399327599 204.026689217 L 524.436437121677 204.026689217 L 524.436437121677 159.92164030700002 Z" stroke-miterlimit="10" stroke-width="2.613632528" stroke-dasharray=""/></g><g><g/><text fill="black" stroke="none" font-family="sans-serif" font-size="11pt" font-style="normal" font-weight="normal" text-decoration="normal" x="542.1601327021771" y="187.691485917" text-anchor="start" dominant-baseline="alphabetic">resorce_server</text></g><g><path fill="white" stroke="black" paint-order="fill stroke markers" d=" M 832.7802288231745 172.00969074900001 L 832.7802288231745 137.70576381900003 L 880.4790224591744 137.70576381900003 L 880.4790224591744 172.00969074900001" stroke-miterlimit="10" stroke-width="2.7769845610000004" stroke-dasharray=""/><path fill="white" stroke="black" paint-order="fill stroke markers" d=" M 880.4790224591744 136.51329397810002 L 880.4778299992707 136.62110452301664 L 880.4742527388047 136.72890428696863 L 880.4682910354994 136.83668249006936 L 880.45994548552 136.94442835458844 L 880.4492169234148 137.0521311060291 L 880.436106422031 137.15977997420603 L 880.4206152924078 137.26736419432206 L 880.4027450836452 137.3748730080449 L 880.3824975827491 137.48229566458267 L 880.359874814453 137.58962142175932 L 880.3348790410146 137.69683954708853 L 880.3075127619906 137.80393931884714 L 880.277778713986 137.9109100271472 L 880.2456798703809 138.01774097500703 L 880.2112194410328 138.12442147942087 L 880.174400871956 138.2309408724272 L 880.1352278449766 138.33728850217545 L 880.0937042773648 138.44345373399128 L 880.0498343214429 138.54942595143999 L 880.0036223641695 138.6551945573881 L 879.9550730267022 138.76074897506325 L 879.9041911639341 138.86607864911156 L 879.8509818640092 138.9711730466534 L 879.795450447813 139.0760216583366 L 879.737602468441 139.18061399938742 L 879.6774437106428 139.28493961065882 L 879.6149801902442 139.3889880596767 L 879.550218153545 139.4927489416828 L 879.483164076695 139.59621188067544 L 879.413824665046 139.6993665304469 L 879.3422068524814 139.80220257561817 L 879.2683178007227 139.90470973267043 L 879.1921648986137 140.00687775097342 L 879.1137557613808 140.1086964138104 L 879.0330982298727 140.2101555394 L 878.9502003697753 140.31124498191417 L 878.8650704708054 140.4119546324929 L 878.777717045882 140.51227442025507 L 878.6881488302748 140.6121943133055 L 878.5963747807308 140.71170431973815 L 878.5024040745784 140.8107944886353 L 878.4062461088098 140.90945491106262 L 878.3079104991417 141.0076757210601 L 878.2074070790529 141.1054470966286 L 878.1047458988018 141.20275926071204 L 877.9999372244207 141.2996024821751 L 877.8929915366898 141.3959670767763 L 877.7839195300888 141.49184340813653 L 877.6727321117276 141.58722188870252 L 877.559440400255 141.6820929807057 L 877.4440557247481 141.77644719711597 L 877.326589623578 141.87027510259028 L 877.2070538432571 141.96356731441625 L 877.0854603372638 142.0563145034505 L 876.9618212648475 142.14850739505135 L 876.836148989812 142.24013677000653 L 876.7084560792806 142.33119346545485 L 876.5787553024376 142.42166837580268 L 876.4470596292526 142.51155245363438 L 876.3133822291834 142.60083671061705 L 876.1777364698585 142.6895122183994 L 876.0401359157406 142.77757010950452 L 875.9005943267707 142.86500157821675 L 875.7591256569914 142.95179788146203 L 875.6157440531516 143.0379503396824 L 875.4704638532925 143.1234503377038 L 875.3232995853126 143.20828932559766 L 875.1742659655165 143.2924588195359 L 875.0233778971416 143.37595040263932 L 874.8706504688693 143.45875572581915 L 874.716098953315 143.54086650861205 L 874.5597388055015 143.6222745400082 L 874.4015856613132 143.70297167927228 L 874.2416553359329 143.78294985675763 L 874.0799638222597 143.86220107471314 L 873.9165272893105 143.94071740808306 L 873.7513620806019 144.01849100529947 L 873.5844847125176 144.09551408906748 L 873.4159118726551 144.1717789571429 L 873.245660418158 144.24727798310244 L 873.0737473740298 144.32200361710645 L 872.9001899314318 144.3959483866538 L 872.7250054459635 144.46910489732915 L 872.5482114359274 144.54146583354242 L 872.3698255805774 144.61302395926023 L 872.1898657183501 144.6837721187297 L 872.0083498450821 144.7537032371938 L 871.8252961122091 144.822810321599 L 871.6407228249521 144.8910864612944 L 871.4546484404859 144.95852482872297 L 871.267091566094 145.02511868010413 L 871.0780709573073 145.09086135610826 L 870.8876055160295 145.15574628252256 L 870.6957142886456 145.2197669709084 L 870.5024164641188 145.28291701925033 L 870.3077313720703 145.34519011259619 L 870.1116784808471 145.40658002368843 L 869.9142773955749 145.4670806135872 L 869.7155478561979 145.52668583228385 L 869.5155097355041 145.58538971930625 L 869.3141830371392 145.64318640431455 L 869.1115878936051 145.70007010768848 L 868.9077445642473 145.75603514110506 L 868.702673433229 145.8110759081076 L 868.4963950074923 145.86518690466525 L 868.288929914708 145.91836271972346 L 868.0802989012122 145.97059803574507 L 867.8705228299328 146.02188762924195 L 867.6596226783018 146.07222637129752 L 867.4476195361588 146.12160922807954 L 867.2345346036411 146.17003126134344 L 867.0203891890648 146.21748762892628 L 866.8052047067924 146.26397358523084 L 866.5890026750932 146.30948448170022 L 866.3718047139901 146.3540157672827 L 866.1536325430981 146.39756298888685 L 865.9345079794525 146.44012179182678 L 865.7144529353271 146.48168792025766 L 865.4934894160431 146.5222572176013 L 865.2716395177681 146.56182562696176 L 865.0489254253071 146.6003891915311 L 864.8253694098836 146.63794405498496 L 864.6009938269132 146.67448646186833 L 864.3758211137668 146.71001275797093 L 864.1498737875285 146.7445193906928 L 863.9231744427423 146.7780029093994 L 863.6957457491538 146.81045996576674 L 863.467610449443 146.8418873141163 L 863.2387913569497 146.87228181173936 L 863.0093113533924 146.90164041921153 L 862.7791933865803 146.9299602006965 L 862.5484604681183 146.95723832423977 L 862.3171356711059 146.98347206205165 L 862.08524212783 147.00865879078026 L 861.852803027452 147.03279599177372 L 861.6198416136879 147.05588125133204 L 861.3863811824849 147.0779122609485 L 861.1524450796919 147.09888681754046 L 860.918056698724 147.1188028236698 L 860.683239478224 147.1376582877525 L 860.4480168997184 147.1554513242578 L 860.2124124852687 147.17218015389693 L 859.9764497951204 147.18784310380087 L 859.7401524253457 147.20243860768767 L 859.5035440054847 147.2159652060191 L 859.2666481961821 147.22842154614656 L 859.0294886868217 147.23980638244652 L 858.7920891931565 147.25011857644472 L 858.554473454938 147.25935709693044 L 858.3166652335424 147.26752102005932 L 858.0786883095933 147.2746095294458 L 857.8405664805849 147.28062191624488 L 857.6023235585018 147.28555757922288 L 857.3639833674374 147.28941602481765 L 857.1255697412124 147.2921968671878 L 856.8871065209906 147.29389982825145 L 856.6486175528955 147.29452473771389 L 856.410126685625 147.2940715330847 L 856.1716577680671 147.29254025968393 L 855.9332346469149 147.2899310706377 L 855.6948811642819 147.28624422686272 L 855.4566211553175 147.2814800970403 L 855.2184784458243 147.27563915757943 L 854.9804768498747 147.2687219925692 L 854.7426401674298 147.26072929372035 L 854.5049921819599 147.2516618602961 L 854.2675566580654 147.24152059903227 L 854.0303573391006 147.23030652404648 L 853.7934179448002 147.2180207567369 L 853.556762168906 147.20466452567007 L 853.3204136767981 147.1902391664579 L 853.084396103129 147.17474612162434 L 852.8487330494595 147.15818694046092 L 852.6134480818984 147.14056327887198 L 852.3785647287464 147.121876899209 L 852.144106478143 147.10212967009437 L 851.9100967757182 147.08132356623452 L 851.6765590222468 147.05946066822253 L 851.4435165713099 147.03654316233 L 851.2109927269582 147.01257334028836 L 850.9790107413824 146.98755359905985 L 850.7475938125878 146.9614864405978 L 850.5167650820742 146.9343744715963 L 850.2865476325227 146.90622040322964 L 850.0569644854861 146.87702705088122 L 849.8280385990878 146.84679733386193 L 849.5997928657258 146.8155342751183 L 849.3722501097832 146.7832410009301 L 849.1454330853459 146.74992074059793 L 848.9193644739274 146.71557682611996 L 848.6940668822004 146.68021269185908 L 848.4695628397363 146.64383187419924 L 848.2458747967524 146.60643801119187 L 848.0230251218666 146.5680348421921 L 847.8010360998604 146.52862620748488 L 847.5799299294514 146.48821604790078 L 847.359728721072 146.44680840442211 L 847.1404544946598 146.4044074177787 L 846.9221291774546 146.3610173280339 L 846.7047746018062 146.31664247416052 L 846.4884125029912 146.27128729360695 L 846.2730645170388 146.22495632185348 L 846.0587521785686 146.17765419195865 L 845.8454969186355 146.12938563409602 L 845.633320062588 146.0801554750812 L 845.4222428279347 146.02996863788903 L 845.2122863222233 145.97883014116144 L 845.0034715409295 145.92674509870542 L 844.7958193653571 145.8737187189819 L 844.589350560551 145.8197563045846 L 844.3840857732193 145.76486325171 L 844.1800455296699 145.70904504961769 L 843.9772502337569 145.6523072800813 L 843.7757201648411 145.59465561683052 L 843.5754754757614 145.53609582498368 L 843.3765361908198 145.4766337604711 L 843.178922203779 145.41627536944972 L 842.9826532758732 145.35502668770832 L 842.7877490338313 145.29289384006404 L 842.5942289679155 145.2298830397499 L 842.4021124299707 145.16600058779338 L 842.2114186314909 145.10125287238645 L 842.0221666416969 145.03564636824672 L 841.83437538563 144.9691876359699 L 841.6480636422593 144.90188332137382 L 841.4632500426039 144.83374015483392 L 841.2799530678699 144.76476495061002 L 841.0981910476016 144.69496460616506 L 840.9179821578501 144.62434610147534 L 840.7393444193539 144.55291649833245 L 840.5622956957379 144.48068293963723 L 840.3868536917271 144.4076526486853 L 840.2130359513757 144.33383292844493 L 840.0408598563127 144.25923116082663 L 839.8703426240044 144.18385480594497 L 839.7015013060318 144.10771140137265 L 839.5343527863859 144.03080856138666 L 839.3689137797795 143.95315397620692 L 839.2052008299753 143.8747554112272 L 839.043230308132 143.79562070623874 L 838.8830184111667 143.71575777464602 L 838.7245811601356 143.6351746026757 L 838.5679343986318 143.5538792485778 L 838.4130937912009 143.47187984181997 L 838.2600748217747 143.3891845822746 L 838.1088927921223 143.30580173939867 L 837.959562820321 143.22173965140703 L 837.8120998392435 143.13700672443844 L 837.666518595065 143.05161143171492 L 837.5228336457885 142.96556231269463 L 837.3810593597893 142.87886797221773 L 837.2412099143779 142.79153707964608 L 837.1032992943822 142.7035783679961 L 836.9673412907491 142.6150006330657 L 836.833349499166 142.52581273255456 L 836.7013373187003 142.43602358517836 L 836.57131795046 142.34564216977705 L 836.4433043962734 142.25467752441685 L 836.3173094573896 142.1631387454865 L 836.1933457331972 142.0710349867876 L 836.0714256199656 141.97837545861924 L 835.9515613096041 141.88516942685706 L 835.8337647884442 141.79142621202655 L 835.7180478360398 141.69715518837108 L 835.6044220239895 141.60236578291446 L 835.4928987147802 141.50706747451824 L 835.3834890606495 141.41126979293384 L 835.2762040024718 141.31498231784957 L 835.1710542686635 141.21821467793274 L 835.0680503741105 141.12097654986667 L 834.9672026191162 141.02327765738315 L 834.8685210883721 140.92512777029 L 834.7720156499491 140.82653670349416 L 834.6776959543107 140.72751431602015 L 834.5855714333477 140.62807051002414 L 834.4956512994355 140.52821522980395 L 834.4079445445126 140.42795846080432 L 834.3224599391813 140.32731022861864 L 834.239206031831 140.22628059798626 L 834.158191147783 140.12487967178603 L 834.0794233884582 140.02311759002606 L 834.0029106305669 139.92100452882974 L 833.9286605253211 139.81855069941813 L 833.8566804976696 139.71576634708873 L 833.7869777455549 139.61266175019114 L 833.7195592391944 139.50924721909917 L 833.6544317203824 139.4055330951797 L 833.5916017018164 139.3015297497587 L 833.5310754664463 139.19724758308408 L 833.4728590668448 139.09269702328558 L 833.4169583246036 138.98788852533204 L 833.3633788297501 138.88283256998594 L 833.3121259401893 138.77753966275526 L 833.2632047811675 138.67202033284298 L 833.2166202447596 138.56628513209418 L 833.1723769893807 138.46034463394076 L 833.1304794393193 138.35420943234433 L 833.0909317842955 138.24789014073656 L 833.0537379790419 138.141397390958 L 833.018901742908 138.03474183219492 L 832.9864265594883 137.9279341299143 L 832.9563156762744 137.82098496479733 L 832.9285721043291 137.71390503167146 L 832.9031986179867 137.60670503844074 L 832.8801977545747 137.49939570501513 L 832.8595718141603 137.3919877622386 L 832.8413228593201 137.2844919508159 L 832.8254527149347 137.17691902023859 L 832.8119629680052 137.0692797277101 L 832.800854967495 136.96158483706992 L 832.792129824195 136.85384511771747 L 832.785788410612 136.74607134353482 L 832.7818313608824 136.6382742918096 L 832.7802590707076 136.5304647421572 L 832.7810716973156 136.42265347544267 L 832.7842691594442 136.31485127270287 L 832.7898511373498 136.20706891406826 L 832.7978170728395 136.09931717768487 L 832.8081661693262 135.99160683863653 L 832.820897391909 135.88394866786737 L 832.8360094674762 135.77635343110484 L 832.8535008848328 135.66883188778286 L 832.8733698948515 135.5613947899662 L 832.8956145106482 135.4540528812751 L 832.9202325077797 135.34681689581097 L 832.9472214244666 135.23969755708305 L 832.97657856184 135.13270557693588 L 833.0083009842106 135.02585165447834 L 833.0423855193625 134.91914647501363 L 833.0788287588705 134.8126007089708 L 833.1176270584413 134.7062250108376 L 833.1587765382769 134.60003001809528 L 833.202273083464 134.49402635015454 L 833.248112344384 134.38822460729392 L 833.2962897371492 134.28263536959946 L 833.3468004440605 134.177269195907 L 833.399639414089 134.07213662274606 L 833.4548013633822 133.96724816328637 L 833.5122807757908 133.86261430628647 L 833.5720719034216 133.75824551504485 L 833.6341687672115 133.6541522263537 L 833.698565157526 133.5503448494551 L 833.7652546347798 133.4468337650002 L 833.8342305300806 133.3436293240113 L 833.9054859458964 133.2407418468464 L 833.9790137567451 133.1381816221675 L 834.0548066099067 133.03595890591163 L 834.1328569261591 132.93408392026518 L 834.2131569005359 132.8325668526419 L 834.2956985031062 132.73141785466385 L 834.380473479779 132.6306470411466 L 834.4674733531269 132.53026448908753 L 834.5566894232353 132.43028023665818 L 834.6481127685714 132.3307042822005 L 834.741734246877 132.23154658322687 L 834.8375444960819 132.13281705542465 L 834.9355339352416 132.03452557166432 L 835.0356927654934 131.93668196101234 L 835.1380109710379 131.83929600774823 L 835.2424783201398 131.74237745038616 L 835.3490843661513 131.64593598070113 L 835.4578184485565 131.5499812427597 L 835.5686696940378 131.45452283195576 L 835.6816270175632 131.35957029405077 L 835.7966791234943 131.26513312421943 L 835.9138145067164 131.17122076610005 L 836.0330214537888 131.07784261085013 L 836.1542880441162 130.98500799620743 L 836.2776021511406 130.89272620555602 L 836.4029514435541 130.80100646699807 L 836.5303233865318 130.709857952431 L 836.6597052429856 130.61928977663032 L 836.7910840748377 130.52931099633815 L 836.9244467443143 130.43993060935753 L 837.0597799152597 130.35115755365263 L 837.1970700544696 130.2630007064551 L 837.3363034330443 130.17546888337617 L 837.4774661277622 130.0885708375252 L 837.6205440224713 130.00231525863438 L 837.7655228095015 129.9167107721897 L 837.9123879910948 129.83176593856848 L 838.0611248808555 129.7474892521833 L 838.2117186052184 129.66388914063253 L 838.3641541049368 129.58097396385773 L 838.5184161365876 129.4987520133074 L 838.6744892740962 129.41723151110816 L 838.832357910279 129.33642060924223 L 838.992006258404 129.25632738873247 L 839.1534183537691 129.1769598588342 L 839.3165780552996 129.09832595623428 L 839.4814690471611 129.02043354425743 L 839.648074840392 128.9432904120799 L 839.8163787745518 128.8669042739507 L 839.9863640193871 128.7912827684199 L 840.1580135765154 128.7164334575751 L 840.3313102811238 128.64236382628502 L 840.5062368036863 128.569081281451 L 840.6827756516965 128.4965931512665 L 840.8609091714166 128.4249066844841 L 841.0406195496431 128.35402904969078 L 841.221888815488 128.28396733459095 L 841.4046988421757 128.2147285452977 L 841.5890313488559 128.1463196056323 L 841.7748679024317 128.07874735643168 L 841.9621899194022 128.01201855486445 L 842.1509786677221 127.9461398737552 L 842.341215268674 127.88111790091709 L 842.5328806987561 127.81695913849325 L 842.7259557915852 127.75367000230645 L 842.9204212398129 127.69125682121756 L 843.1162575970565 127.6297258364927 L 843.3134452798432 127.56908320117904 L 843.5119645695695 127.50933497948958 L 843.7117956144715 127.45048714619672 L 843.9129184316113 127.39254558603474 L 844.1153129088749 127.33551609311137 L 844.3189588069832 127.27940437032836 L 844.523835761516 127.22421602881126 L 844.7299232849487 127.1699565873482 L 844.9372007687006 127.11663147183813 L 845.145647485196 127.06424601474816 L 845.3552425899372 127.01280545458036 L 845.5659651235882 126.96231493534786 L 845.7777940140712 126.9127795060605 L 845.9907080786738 126.86420412021995 L 846.204686026167 126.81659363532431 L 846.4197064589342 126.76995281238239 L 846.6357478751114 126.72428631543761 L 846.8527886707369 126.67959871110162 L 847.0708071419123 126.63589446809762 L 847.2897814869718 126.59317795681346 L 847.5096898086636 126.55145344886472 L 847.7305101163388 126.51072511666739 L 847.9522203281505 126.47099703302075 L 848.1747982732624 126.43227317070006 L 848.3982216940653 126.39455740205929 L 848.6224682484035 126.35785349864388 L 848.8475155118084 126.32216513081357 L 849.0733409797411 126.28749586737541 L 849.2999220698432 126.25384917522686 L 849.5272361241944 126.22122841900908 L 849.7552604115784 126.18963686077052 L 849.9839721297569 126.15907765964067 L 850.2133484077485 126.12955387151419 L 850.4433663081167 126.10106844874527 L 850.6740028292628 126.07362423985246 L 850.9052349077272 126.04722398923379 L 851.1370394204945 126.0218703368923 L 851.3693931873069 125.9975658181721 L 851.602272972981 125.97431286350484 L 851.8356554897326 125.95211379816656 L 852.0695173995044 125.93097084204533 L 852.3038353163003 125.91088610941914 L 852.5385858085237 125.89186160874449 L 852.7737454013213 125.87389924245562 L 853.0092905789297 125.85700080677418 L 853.2451977870273 125.84116799152966 L 853.4814434350901 125.8264023799904 L 853.7180038987499 125.81270544870522 L 853.9548555221577 125.80007856735585 L 854.1919746203483 125.78852299861992 L 854.4293374816098 125.77803989804465 L 854.6669203698535 125.76863031393137 L 854.9046995269888 125.76029518723065 L 855.1426511752982 125.75303535144822 L 855.3807515198149 125.7468515325616 L 855.618976750703 125.74174434894752 L 855.8573030456381 125.7377143113201 L 856.0957065721891 125.73476182267974 L 856.334163490202 125.73288717827285 L 856.5726499541838 125.73209056556229 L 856.8111421156868 125.73237206420868 L 857.0496161256937 125.73373164606238 L 857.2880481370021 125.73616917516635 L 857.5264143066096 125.73968440776972 L 857.7646907980978 125.74427699235213 L 858.0028537840163 125.74994646965897 L 858.2408794482649 125.75669227274722 L 858.4787439884753 125.7645137270422 L 858.716423618392 125.773410050405 L 858.9538945702501 125.7833803532107 L 859.191133097152 125.79442363843732 L 859.428115475443 125.80653880176556 L 859.6648180070825 125.81972463168914 L 859.9012170220149 125.8339798096361 L 860.1372888805355 125.8493029101005 L 860.3730099756551 125.86569240078508 L 860.6083567354608 125.88314664275441 L 860.8433056254727 125.90166389059885 L 861.0778331509974 125.92124229260905 L 861.3119158594782 125.94187989096112 L 861.5455303428389 125.96357462191241 L 861.778653239826 125.98632431600792 L 862.0112612383441 126.0101266982972 L 862.2433310777872 126.03497938856185 L 862.4748395513647 126.06087990155355 L 862.7057635084221 126.0878256472426 L 862.9360798567564 126.11581393107686 L 863.1657655649243 126.14484195425128 L 863.3947976645467 126.17490681398775 L 863.6231532526043 126.20600550382532 L 863.8508094937288 126.23813491392096 L 864.0777436224855 126.2712918313604 L 864.3039329456509 126.30547294047955 L 864.5293548444812 126.34067482319597 L 864.7539867769741 126.37689395935072 L 864.9778062801238 126.41412672706038 L 865.2007909721664 126.45236940307919 L 865.4229185548184 126.49161816317144 L 865.6441668155069 126.5318690824938 L 865.86451362959 126.5731181359879 L 866.0839369625699 126.61536119878276 L 866.3024148722963 126.6585940466073 L 866.5199255111602 126.70281235621277 L 866.736447128279 126.74801170580506 L 866.9519580716714 126.79418757548686 L 867.1664367904226 126.8413353477097 L 867.3798618368396 126.88945030773563 L 867.5922118685955 126.93852764410876 L 867.8034656508643 126.98856244913635 L 868.0136020584434 127.03954971937958 L 868.2226000778675 127.09148435615393 L 868.4304388095087 127.14436116603898 L 868.637097469667 127.19817486139782 L 868.8425553926487 127.25292006090577 L 869.0467920328326 127.30859129008847 L 869.249786966725 127.36518298186941 L 869.4515198950015 127.42268947712658 L 869.6519706445376 127.48110502525837 L 869.8511191704252 127.54042378475864 L 870.0489455579778 127.60063982380089 L 870.2454300247215 127.66174712083138 L 870.4405529223733 127.72373956517133 L 870.634294738806 127.78661095762796 L 870.8266360999994 127.85035501111443 L 871.0175577719779 127.91496535127851 L 871.207040662733 127.98043551714002 L 871.3950658241339 128.04675896173694 L 871.581614453821 128.11392905278007 L 871.7666678970867 128.18193907331627 L 871.950207648741 128.2507822224002 L 872.1322153549617 128.3204516157743 L 872.3126728151298 128.39094028655725 L 872.4915619836496 128.46224118594077 L 872.6688649717534 128.5343471838943 L 872.8445640492902 128.60725106987817 L 873.0186416464985 128.68094555356453 L 873.1910803557638 128.75542326556638 L 873.3618629333588 128.83067675817463 L 873.530972301168 128.9066985061027 L 873.6983915483956 128.98348090723917 L 873.8641039332565 129.06101628340792 L 874.0280928846502 129.1392968811359 L 874.1903420038182 129.2183148724286 L 874.3508350659838 129.29806235555276 L 874.5095560219746 129.37853135582648 L 874.6664889998272 129.45971382641682 L 874.8216183063745 129.54160164914435 L 874.9749284288154 129.62418663529508 L 875.1264040362651 129.70746052643918 L 875.2760299812892 129.79141499525693 L 875.423791301418 129.87604164637142 L 875.5696732206425 129.96133201718806 L 875.7136611508923 130.04727757874082 L 875.8557406934946 130.1338697365452 L 875.9958976406133 130.22109983145756 L 876.1341179766705 130.30895914054113 L 876.2703878797479 130.39743887793819 L 876.4046937229687 130.4865301957487 L 876.5370220758605 130.5762241849152 L 876.6673597056981 130.66651187611347 L 876.7956935788275 130.75738424064963 L 876.9220108619681 130.84883219136296 L 877.0462989234968 130.94084658353458 L 877.1685453347112 131.033418215802 L 877.2887378710719 131.12653783107908 L 877.4068645134256 131.2201961174819 L 877.5229134492063 131.3143837092599 L 877.6368730736172 131.40909118773237 L 877.7487319907908 131.50430908223038 L 877.8584790149287 131.60002787104384 L 877.9661031714198 131.69623798237365 L 878.0715936979383 131.7929297952888 L 878.1749400455193 131.89009364068863 L 878.2761318796142 131.98771980226954 L 878.3751590811241 132.08579851749673 L 878.4720117474111 132.18431997858042 L 878.5666801932895 132.2832743334566 L 878.6591549519934 132.38265168677225 L 878.7494267761242 132.4824421008748 L 878.8374866385745 132.58263559680609 L 878.9233257334316 132.68322215529994 L 879.0069354768576 132.78419171778435 L 879.0883075079475 132.88553418738724 L 879.1674336895665 132.98723942994607 L 879.2443061091619 133.08929727502135 L 879.3189170795561 133.1916975169136 L 879.3912591397141 133.294429915684 L 879.4613250554903 133.39748419817826 L 879.5291078203513 133.500850059054 L 879.5946006560773 133.6045171618113 L 879.6577970134392 133.70847513982625 L 879.7186905728539 133.81271359738767 L 879.7772752450163 133.9172221107367 L 879.8335451715079 134.0219902291091 L 879.8874947253831 134.1270074757803 L 879.9391185117314 134.23226334911314 L 879.988411368217 134.33774732360806 L 880.0353683655957 134.44344885095546 L 880.0799848082065 134.54935736109073 L 880.1222562344426 134.65546226325108 L 880.1621784171964 134.76175294703472 L 880.1997473642831 134.86821878346188 L 880.2349593188391 134.97484912603758 L 880.2678107596985 135.0816333118165 L 880.2982984017443 135.18856066246894 L 880.326419196238 135.29562048534905 L 880.3521703311234 135.40280207456368 L 880.3755492313086 135.51009471204327 L 880.3965535589228 135.61748766861348 L 880.4151812135511 135.72497020506813 L 880.4314303324434 135.83253157324313 L 880.4452992907013 135.94016101709133 L 880.4567867014406 136.04784777375804 L 880.4658914159297 136.15558107465728 L 880.4726125237049 136.2633501465488 L 880.4769493526609 136.37114421261518 L 880.4789014691185 136.47895249353962 M 880.4790224591744 170.8172209081 L 880.4778299992707 170.92503145301663 L 880.4742527388047 171.03283121696862 L 880.4682910354994 171.14060942006935 L 880.45994548552 171.24835528458843 L 880.4492169234148 171.35605803602908 L 880.436106422031 171.46370690420602 L 880.4206152924078 171.57129112432204 L 880.4027450836452 171.67879993804488 L 880.3824975827491 171.78622259458265 L 880.359874814453 171.8935483517593 L 880.3348790410146 172.00076647708852 L 880.3075127619906 172.10786624884713 L 880.277778713986 172.21483695714718 L 880.2456798703809 172.32166790500702 L 880.2112194410328 172.42834840942086 L 880.174400871956 172.5348678024272 L 880.1352278449766 172.64121543217544 L 880.0937042773648 172.74738066399127 L 880.0498343214429 172.85335288143997 L 880.0036223641695 172.9591214873881 L 879.9550730267022 173.06467590506324 L 879.9041911639341 173.17000557911155 L 879.8509818640092 173.2750999766534 L 879.795450447813 173.3799485883366 L 879.737602468441 173.4845409293874 L 879.6774437106428 173.5888665406588 L 879.6149801902442 173.6929149896767 L 879.550218153545 173.7966758716828 L 879.483164076695 173.90013881067543 L 879.413824665046 174.00329346044688 L 879.3422068524814 174.10612950561816 L 879.2683178007227 174.20863666267041 L 879.1921648986137 174.3108046809734 L 879.1137557613808 174.4126233438104 L 879.0330982298727 174.5140824694 L 878.9502003697753 174.61517191191416 L 878.8650704708054 174.71588156249288 L 878.777717045882 174.81620135025506 L 878.6881488302748 174.9161212433055 L 878.5963747807308 175.01563124973814 L 878.5024040745784 175.1147214186353 L 878.4062461088098 175.2133818410626 L 878.3079104991417 175.3116026510601 L 878.2074070790529 175.4093740266286 L 878.1047458988018 175.50668619071203 L 877.9999372244207 175.60352941217508 L 877.8929915366898 175.69989400677628 L 877.7839195300888 175.79577033813652 L 877.6727321117276 175.8911488187025 L 877.559440400255 175.9860199107057 L 877.4440557247481 176.08037412711596 L 877.326589623578 176.17420203259027 L 877.2070538432571 176.26749424441624 L 877.0854603372638 176.36024143345048 L 876.9618212648475 176.45243432505134 L 876.836148989812 176.54406370000652 L 876.7084560792806 176.63512039545483 L 876.5787553024376 176.72559530580267 L 876.4470596292526 176.81547938363437 L 876.3133822291834 176.90476364061703 L 876.1777364698585 176.99343914839937 L 876.0401359157406 177.0814970395045 L 875.9005943267707 177.16892850821674 L 875.7591256569914 177.25572481146202 L 875.6157440531516 177.34187726968239 L 875.4704638532925 177.42737726770378 L 875.3232995853126 177.51221625559765 L 875.1742659655165 177.5963857495359 L 875.0233778971416 177.6798773326393 L 874.8706504688693 177.76268265581913 L 874.716098953315 177.84479343861204 L 874.5597388055015 177.92620147000818 L 874.4015856613132 178.00689860927227 L 874.2416553359329 178.0868767867576 L 874.0799638222597 178.16612800471313 L 873.9165272893105 178.24464433808305 L 873.7513620806019 178.32241793529946 L 873.5844847125176 178.39944101906747 L 873.4159118726551 178.47570588714288 L 873.245660418158 178.55120491310242 L 873.0737473740298 178.62593054710644 L 872.9001899314318 178.6998753166538 L 872.7250054459635 178.77303182732913 L 872.5482114359274 178.8453927635424 L 872.3698255805774 178.91695088926022 L 872.1898657183501 178.9876990487297 L 872.0083498450821 179.0576301671938 L 871.8252961122091 179.126737251599 L 871.6407228249521 179.1950133912944 L 871.4546484404859 179.26245175872296 L 871.267091566094 179.32904561010412 L 871.0780709573073 179.39478828610825 L 870.8876055160295 179.45967321252255 L 870.6957142886456 179.5236939009084 L 870.5024164641188 179.58684394925032 L 870.3077313720703 179.64911704259617 L 870.1116784808471 179.71050695368842 L 869.9142773955749 179.7710075435872 L 869.7155478561979 179.83061276228383 L 869.5155097355041 179.88931664930624 L 869.3141830371392 179.94711333431454 L 869.1115878936051 180.00399703768846 L 868.9077445642473 180.05996207110505 L 868.702673433229 180.11500283810759 L 868.4963950074923 180.16911383466524 L 868.288929914708 180.22228964972345 L 868.0802989012122 180.27452496574506 L 867.8705228299328 180.32581455924193 L 867.6596226783018 180.3761533012975 L 867.4476195361588 180.42553615807952 L 867.2345346036411 180.47395819134343 L 867.0203891890648 180.52141455892627 L 866.8052047067924 180.56790051523083 L 866.5890026750932 180.6134114117002 L 866.3718047139901 180.6579426972827 L 866.1536325430981 180.70148991888684 L 865.9345079794525 180.74404872182677 L 865.7144529353271 180.78561485025764 L 865.4934894160431 180.82618414760128 L 865.2716395177681 180.86575255696175 L 865.0489254253071 180.90431612153108 L 864.8253694098836 180.94187098498494 L 864.6009938269132 180.97841339186832 L 864.3758211137668 181.01393968797092 L 864.1498737875285 181.0484463206928 L 863.9231744427423 181.08192983939938 L 863.6957457491538 181.11438689576673 L 863.467610449443 181.14581424411628 L 863.2387913569497 181.17620874173934 L 863.0093113533924 181.20556734921152 L 862.7791933865803 181.2338871306965 L 862.5484604681183 181.26116525423976 L 862.3171356711059 181.28739899205164 L 862.08524212783 181.31258572078025 L 861.852803027452 181.3367229217737 L 861.6198416136879 181.35980818133203 L 861.3863811824849 181.38183919094848 L 861.1524450796919 181.40281374754045 L 860.918056698724 181.42272975366978 L 860.683239478224 181.44158521775248 L 860.4480168997184 181.45937825425779 L 860.2124124852687 181.47610708389692 L 859.9764497951204 181.49177003380086 L 859.7401524253457 181.50636553768766 L 859.5035440054847 181.51989213601908 L 859.2666481961821 181.53234847614655 L 859.0294886868217 181.5437333124465 L 858.7920891931565 181.5540455064447 L 858.554473454938 181.56328402693043 L 858.3166652335424 181.5714479500593 L 858.0786883095933 181.5785364594458 L 857.8405664805849 181.58454884624487 L 857.6023235585018 181.58948450922287 L 857.3639833674374 181.59334295481764 L 857.1255697412124 181.5961237971878 L 856.8871065209906 181.59782675825144 L 856.6486175528955 181.59845166771387 L 856.410126685625 181.59799846308468 L 856.1716577680671 181.59646718968392 L 855.9332346469149 181.59385800063768 L 855.6948811642819 181.5901711568627 L 855.4566211553175 181.58540702704028 L 855.2184784458243 181.57956608757942 L 854.9804768498747 181.5726489225692 L 854.7426401674298 181.56465622372033 L 854.5049921819599 181.5555887902961 L 854.2675566580654 181.54544752903226 L 854.0303573391006 181.53423345404647 L 853.7934179448002 181.5219476867369 L 853.556762168906 181.50859145567006 L 853.3204136767981 181.4941660964579 L 853.084396103129 181.47867305162433 L 852.8487330494595 181.4621138704609 L 852.6134480818984 181.44449020887197 L 852.3785647287464 181.425803829209 L 852.144106478143 181.40605660009436 L 851.9100967757182 181.3852504962345 L 851.6765590222468 181.36338759822252 L 851.4435165713099 181.34047009232998 L 851.2109927269582 181.31650027028834 L 850.9790107413824 181.29148052905984 L 850.7475938125878 181.2654133705978 L 850.5167650820742 181.2383014015963 L 850.2865476325227 181.21014733322963 L 850.0569644854861 181.1809539808812 L 849.8280385990878 181.15072426386192 L 849.5997928657258 181.11946120511828 L 849.3722501097832 181.0871679309301 L 849.1454330853459 181.05384767059792 L 848.9193644739274 181.01950375611995 L 848.6940668822004 180.98413962185907 L 848.4695628397363 180.94775880419922 L 848.2458747967524 180.91036494119186 L 848.0230251218666 180.8719617721921 L 847.8010360998604 180.83255313748487 L 847.5799299294514 180.79214297790077 L 847.359728721072 180.7507353344221 L 847.1404544946598 180.7083343477787 L 846.9221291774546 180.6649442580339 L 846.7047746018062 180.6205694041605 L 846.4884125029912 180.57521422360693 L 846.2730645170388 180.52888325185347 L 846.0587521785686 180.48158112195864 L 845.8454969186355 180.433312564096 L 845.633320062588 180.3840824050812 L 845.4222428279347 180.33389556788902 L 845.2122863222233 180.28275707116143 L 845.0034715409295 180.2306720287054 L 844.7958193653571 180.1776456489819 L 844.589350560551 180.12368323458458 L 844.3840857732193 180.06879018171 L 844.1800455296699 180.01297197961767 L 843.9772502337569 179.95623421008128 L 843.7757201648411 179.8985825468305 L 843.5754754757614 179.84002275498366 L 843.3765361908198 179.78056069047108 L 843.178922203779 179.7202022994497 L 842.9826532758732 179.6589536177083 L 842.7877490338313 179.59682077006403 L 842.5942289679155 179.53380996974988 L 842.4021124299707 179.46992751779337 L 842.2114186314909 179.40517980238644 L 842.0221666416969 179.3395732982467 L 841.83437538563 179.27311456596988 L 841.6480636422593 179.2058102513738 L 841.4632500426039 179.1376670848339 L 841.2799530678699 179.06869188061 L 841.0981910476016 178.99889153616505 L 840.9179821578501 178.92827303147533 L 840.7393444193539 178.85684342833244 L 840.5622956957379 178.78460986963722 L 840.3868536917271 178.7115795786853 L 840.2130359513757 178.63775985844492 L 840.0408598563127 178.56315809082662 L 839.8703426240044 178.48778173594496 L 839.7015013060318 178.41163833137264 L 839.5343527863859 178.33473549138665 L 839.3689137797795 178.2570809062069 L 839.2052008299753 178.1786823412272 L 839.043230308132 178.09954763623873 L 838.8830184111667 178.019684704646 L 838.7245811601356 177.9391015326757 L 838.5679343986318 177.8578061785778 L 838.4130937912009 177.77580677181996 L 838.2600748217747 177.69311151227458 L 838.1088927921223 177.60972866939866 L 837.959562820321 177.52566658140702 L 837.8120998392435 177.44093365443842 L 837.666518595065 177.3555383617149 L 837.5228336457885 177.26948924269462 L 837.3810593597893 177.18279490221772 L 837.2412099143779 177.09546400964607 L 837.1032992943822 177.0075052979961 L 836.9673412907491 176.9189275630657 L 836.833349499166 176.82973966255454 L 836.7013373187003 176.73995051517835 L 836.57131795046 176.64956909977704 L 836.4433043962734 176.55860445441684 L 836.3173094573896 176.46706567548648 L 836.1933457331972 176.37496191678758 L 836.0714256199656 176.28230238861923 L 835.9515613096041 176.18909635685705 L 835.8337647884442 176.09535314202654 L 835.7180478360398 176.00108211837107 L 835.6044220239895 175.90629271291445 L 835.4928987147802 175.81099440451823 L 835.3834890606495 175.71519672293383 L 835.2762040024718 175.61890924784956 L 835.1710542686635 175.52214160793272 L 835.0680503741105 175.42490347986666 L 834.9672026191162 175.32720458738314 L 834.8685210883721 175.22905470029 L 834.7720156499491 175.13046363349414 L 834.6776959543107 175.03144124602014 L 834.5855714333477 174.93199744002413 L 834.4956512994355 174.83214215980394 L 834.4079445445126 174.7318853908043 L 834.3224599391813 174.63123715861863 L 834.239206031831 174.53020752798625 L 834.158191147783 174.42880660178602 L 834.0794233884582 174.32704452002605 L 834.0029106305669 174.22493145882973 L 833.9286605253211 174.1224776294181 L 833.8566804976696 174.01969327708872 L 833.7869777455549 173.91658868019113 L 833.7195592391944 173.81317414909915 L 833.6544317203824 173.70946002517968 L 833.5916017018164 173.6054566797587 L 833.5310754664463 173.50117451308407 L 833.4728590668448 173.39662395328557 L 833.4169583246036 173.29181545533203 L 833.3633788297501 173.18675949998593 L 833.3121259401893 173.08146659275525 L 833.2632047811675 172.97594726284296 L 833.2166202447596 172.87021206209417 L 833.1723769893807 172.76427156394075 L 833.1304794393193 172.65813636234432 L 833.0909317842955 172.55181707073655 L 833.0537379790419 172.44532432095798 L 833.018901742908 172.3386687621949 L 832.9864265594883 172.23186105991428 L 832.9563156762744 172.12491189479732 L 832.9285721043291 172.01783196167145 L 832.9031986179867 171.91063196844073 L 832.8801977545747 171.80332263501512 L 832.8595718141603 171.6959146922386 L 832.8413228593201 171.58841888081588 L 832.8254527149347 171.48084595023857 L 832.8119629680052 171.37320665771009 L 832.800854967495 171.2655117670699 L 832.792129824195 171.15777204771746 L 832.785788410612 171.0499982735348 L 832.7818313608824 170.9422012218096 L 832.7802590707076 170.83439167215718" stroke-miterlimit="10" stroke-width="2.7769845610000004" stroke-dasharray=""/></g><g><g/><text fill="black" stroke="none" font-family="sans-serif" font-size="11pt" font-style="normal" font-weight="normal" text-decoration="normal" x="780.4199241030885" y="199.126128227" text-anchor="start" dominant-baseline="alphabetic">authorization_database</text></g></g><g><g><text fill="black" stroke="none" font-family="sans-serif" font-size="11pt" font-style="normal" font-weight="normal" text-decoration="normal" x="138.83586429168227" y="251.39877878699994" text-anchor="start" dominant-baseline="alphabetic">username:password hashed</text></g><g><path fill="none" stroke="black" paint-order="fill stroke markers" d=" M 89.84361815 257.93286010699995 L 369.2787332883125 257.93286010699995" stroke-miterlimit="10" stroke-width="1.3612669416666667" stroke-dasharray=""/><g transform="translate(372.0012671716458,257.93286010699995) translate(-372.0012671716458,-257.93286010699995)"><path fill="black" stroke="none" paint-order="stroke fill markers" d=" M 358.3885977549791 251.12652539866662 L 372.0012671716458 257.93286010699995 L 358.3885977549791 264.7391948153333 Z"/></g></g><g><text fill="black" stroke="none" font-family="sans-serif" font-size="11pt" font-style="normal" font-weight="normal" text-decoration="normal" x="195.89381717254165" y="297.1373480269999" text-anchor="start" dominant-baseline="alphabetic">JWT token</text></g><g><path fill="none" stroke="black" paint-order="fill stroke markers" d=" M 372.0012671716458 303.67142934699996 L 92.56615203333334 303.67142934699996" stroke-miterlimit="10" stroke-width="1.3612669416666667" stroke-dasharray=""/><g transform="translate(89.84361815,303.67142934699996) translate(-89.84361815,-303.67142934699996)"><path fill="black" stroke="none" paint-order="stroke fill markers" d=" M 103.45628756666666 296.8650946386666 L 89.84361815 303.67142934699996 L 103.45628756666666 310.4777640553333 Z"/></g></g><g><text fill="black" stroke="none" font-family="sans-serif" font-size="11pt" font-style="normal" font-weight="normal" text-decoration="normal" x="275.85871746710416" y="386.9809661769999" text-anchor="start" dominant-baseline="alphabetic">API request + token</text></g><g><path fill="none" stroke="black" paint-order="fill stroke markers" d=" M 89.84361815 393.51504749699996 L 588.3208843413047 393.51504749699996" stroke-miterlimit="10" stroke-width="1.3612669416666667" stroke-dasharray=""/><g transform="translate(591.043418224638,393.51504749699996) translate(-591.043418224638,-393.51504749699996)"><path fill="black" stroke="none" paint-order="stroke fill markers" d=" M 577.4307488079713 386.7087127886666 L 591.043418224638 393.51504749699996 L 577.4307488079713 400.3213822053333 Z"/></g></g><g><text fill="black" stroke="none" font-family="sans-serif" font-size="11pt" font-style="normal" font-weight="normal" text-decoration="normal" x="612.8236892913046" y="432.7195354169999" text-anchor="start" dominant-baseline="alphabetic">user_name (from token) + resorce</text></g><g><path fill="none" stroke="black" paint-order="fill stroke markers" d=" M 591.043418224638 439.25361673699996 L 853.9070917578412 439.25361673699996" stroke-miterlimit="10" stroke-width="1.3612669416666667" stroke-dasharray=""/><g transform="translate(856.6296256411745,439.25361673699996) translate(-856.6296256411745,-439.25361673699996)"><path fill="black" stroke="none" paint-order="stroke fill markers" d=" M 843.0169562245078 432.4472820286666 L 856.6296256411745 439.25361673699996 L 843.0169562245078 446.0599514453333 Z"/></g></g><g><text fill="black" stroke="none" font-family="sans-serif" font-size="11pt" font-style="normal" font-weight="normal" text-decoration="normal" x="712.4299438689413" y="522.5631535669999" text-anchor="start" dominant-baseline="alphabetic">yes</text></g><g><path fill="none" stroke="black" paint-order="fill stroke markers" d=" M 856.6296256411745 529.0972348869999 L 593.7659521079713 529.0972348869999" stroke-miterlimit="10" stroke-width="1.3612669416666667" stroke-dasharray=""/><g transform="translate(591.043418224638,529.0972348869999) translate(-591.043418224638,-529.0972348869999)"><path fill="black" stroke="none" paint-order="stroke fill markers" d=" M 604.6560876413047 522.2909001786666 L 591.043418224638 529.0972348869999 L 604.6560876413047 535.9035695953332 Z"/></g></g><g><text fill="black" stroke="none" font-family="sans-serif" font-size="11pt" font-style="normal" font-weight="normal" text-decoration="normal" x="306.41704418829556" y="568.3017228069998" text-anchor="start" dominant-baseline="alphabetic">2xx + data</text></g><g><path fill="none" stroke="black" paint-order="fill stroke markers" d=" M 591.043418224638 574.8358041269998 L 92.56615203333334 574.8358041269998" stroke-miterlimit="10" stroke-width="1.3612669416666667" stroke-dasharray=""/><g transform="translate(89.84361815,574.8358041269998) translate(-89.84361815,-574.8358041269998)"><path fill="black" stroke="none" paint-order="stroke fill markers" d=" M 103.45628756666666 568.0294694186665 L 89.84361815 574.8358041269998 L 103.45628756666666 581.6421388353332 Z"/></g></g><g><text fill="black" stroke="none" font-family="sans-serif" font-size="11pt" font-style="normal" font-weight="normal" text-decoration="normal" x="715.6833389495077" y="658.1453409569998" text-anchor="start" dominant-baseline="alphabetic">no</text></g><g><path fill="none" stroke="black" paint-order="fill stroke markers" d=" M 856.6296256411745 664.6794222769998 L 593.7659521079713 664.6794222769998" stroke-miterlimit="10" stroke-width="1.3612669416666667" stroke-dasharray=""/><g transform="translate(591.043418224638,664.6794222769998) translate(-591.043418224638,-664.6794222769998)"><path fill="black" stroke="none" paint-order="stroke fill markers" d=" M 604.6560876413047 657.8730875686665 L 591.043418224638 664.6794222769998 L 604.6560876413047 671.4857569853332 Z"/></g></g><g><text fill="black" stroke="none" font-family="sans-serif" font-size="11pt" font-style="normal" font-weight="normal" text-decoration="normal" x="293.17080547979947" y="703.8839101969998" text-anchor="start" dominant-baseline="alphabetic">403 Forbidden</text></g><g><path fill="none" stroke="black" paint-order="fill stroke markers" d=" M 591.043418224638 710.4179915169998 L 92.56615203333334 710.4179915169998" stroke-miterlimit="10" stroke-width="1.3612669416666667" stroke-dasharray=""/><g transform="translate(89.84361815,710.4179915169998) translate(-89.84361815,-710.4179915169998)"><path fill="black" stroke="none" paint-order="stroke fill markers" d=" M 103.45628756666666 703.6116568086665 L 89.84361815 710.4179915169998 L 103.45628756666666 717.2243262253331 Z"/></g></g><g><g/><path fill="none" stroke="black" paint-order="fill stroke markers" d=" M 16.335203300000003 328.17423429699994 L 930.1380404911745 328.17423429699994 L 930.1380404911745 759.4236014169999 L 16.335203300000003 759.4236014169999 L 16.335203300000003 328.17423429699994 Z" stroke-miterlimit="10" stroke-width="2.3336004714285714" stroke-dasharray=""/><path fill="white" stroke="black" paint-order="fill stroke markers" d=" M 16.335203300000003 328.17423429699994 L 16.335203300000003 347.77647825699995 L 73.76000443125 347.77647825699995 L 83.56112641125 337.97535627699995 L 83.56112641125 328.17423429699994 L 16.335203300000003 328.17423429699994" stroke-miterlimit="10" stroke-width="2.3336004714285714" stroke-dasharray=""/><text fill="black" stroke="none" font-family="sans-serif" font-size="8.8pt" font-style="normal" font-weight="bold" text-decoration="normal" x="32.67040660000001" y="341.24239693699997" text-anchor="start" dominant-baseline="alphabetic">loop</text><text fill="black" stroke="none" font-family="sans-serif" font-size="8.8pt" font-style="normal" font-weight="bold" text-decoration="normal" x="99.89632971125" y="341.24239693699997" text-anchor="start" dominant-baseline="alphabetic">[until token expire]</text></g><g><g/><path fill="none" stroke="black" paint-order="fill stroke markers" d=" M 32.6704066 463.75642168699994 L 913.8028371911745 463.75642168699994 L 913.8028371911745 734.9207964669998 L 32.6704066 734.9207964669998 L 32.6704066 463.75642168699994 Z" stroke-miterlimit="10" stroke-width="2.3336004714285714" stroke-dasharray=""/><path fill="white" stroke="black" paint-order="fill stroke markers" d=" M 32.6704066 463.75642168699994 L 32.6704066 483.35866564699995 L 79.02961019707031 483.35866564699995 L 88.83073217707032 473.55754366699995 L 88.83073217707032 463.75642168699994 L 32.6704066 463.75642168699994" stroke-miterlimit="10" stroke-width="2.3336004714285714" stroke-dasharray=""/><text fill="black" stroke="none" font-family="sans-serif" font-size="8.8pt" font-style="normal" font-weight="bold" text-decoration="normal" x="49.005609899999996" y="476.82458432699997" text-anchor="start" dominant-baseline="alphabetic">alt</text><text fill="black" stroke="none" font-family="sans-serif" font-size="8.8pt" font-style="normal" font-weight="bold" text-decoration="normal" x="105.16593547707032" y="476.82458432699997" text-anchor="start" dominant-baseline="alphabetic">[premmison to resorce is given]</text><g><path fill="none" stroke="black" paint-order="fill stroke markers" d=" M 32.6704066 599.3386090769999 L 913.8028371911745 599.3386090769999" stroke-miterlimit="10" stroke-width="2.3336004714285714" stroke-dasharray="4.083800825"/></g><g/><text fill="black" stroke="none" font-family="sans-serif" font-size="8.8pt" font-style="normal" font-weight="bold" text-decoration="normal" x="105.16593547707032" y="612.4067717169999" text-anchor="start" dominant-baseline="alphabetic">[premmison to resorce denied]</text></g><g/></g><g/><g/><g/><g/><g/></g></svg>